{"glyphs":{"0":{"ha":888,"x_min":131,"x_max":758,"o":"m 297 949 l 296 949 q 349 972 316 972 l 542 972 q 593 950 570 972 l 736 806 q 758 753 758 783 l 758 220 q 736 165 758 188 l 593 22 q 542 0 570 0 l 349 0 q 297 24 317 0 l 153 167 q 131 220 131 189 l 131 753 q 153 806 131 784 l 297 949 m 587 739 l 587 741 q 585 746 587 743 l 519 810 q 496 819 510 819 l 395 819 q 370 810 379 819 l 293 733 q 283 708 283 724 l 283 453 q 289 441 283 441 q 298 447 293 441 l 585 733 q 587 739 587 736 m 306 227 l 370 163 q 395 153 380 153 l 496 153 q 519 163 509 153 l 597 239 q 606 264 606 249 l 606 518 q 600 529 606 529 q 590 524 595 529 l 306 239 q 302 232 302 235 q 306 227 302 230 z "},"1":{"ha":888,"x_min":192,"x_max":697,"o":"m 367 197 l 367 696 q 361 707 367 707 q 353 701 358 707 l 318 665 q 265 644 297 644 q 213 665 233 644 q 192 718 192 686 q 214 772 192 751 l 389 950 q 444 972 411 972 q 498 951 476 972 q 519 897 519 929 l 519 197 q 533 164 519 178 q 567 150 547 150 l 624 150 q 676 129 656 150 q 697 75 697 107 q 676 21 697 43 q 624 0 656 0 l 265 0 q 213 21 233 0 q 192 75 192 43 q 213 129 192 107 q 265 150 233 150 l 321 150 q 354 164 340 150 q 367 197 367 178 z "},"2":{"ha":888,"x_min":131,"x_max":758,"o":"m 281 736 l 281 721 q 259 668 281 689 q 205 647 237 647 q 152 668 174 647 q 131 721 131 689 l 131 782 q 153 835 131 813 l 267 949 q 319 972 285 972 l 571 972 q 624 949 604 972 l 737 835 q 758 782 758 808 l 758 699 q 737 647 758 668 l 290 204 q 283 187 283 197 q 297 162 283 172 q 328 153 311 153 l 685 153 q 738 131 717 153 q 758 77 758 109 q 738 22 758 44 q 685 0 717 0 l 205 0 q 152 22 174 0 q 131 77 131 44 l 131 227 q 153 277 131 258 l 603 724 q 608 741 608 731 q 603 757 608 749 l 550 810 q 525 819 541 819 l 366 819 q 340 810 350 819 l 290 760 q 281 736 281 750 z "},"3":{"ha":888,"x_min":131,"x_max":758,"o":"m 281 737 l 281 721 q 259 668 281 689 q 205 647 237 647 q 152 668 174 647 q 131 721 131 689 l 131 782 q 153 835 131 813 l 267 949 q 319 972 285 972 l 568 972 q 621 949 600 972 l 737 835 q 758 782 758 814 l 758 600 q 737 547 758 568 l 708 519 q 696 486 696 507 q 708 452 696 464 l 737 424 q 758 371 758 403 l 758 191 q 737 138 758 159 l 621 24 q 568 0 600 0 l 319 0 q 267 24 285 0 l 153 138 q 131 191 131 159 l 131 252 q 152 303 131 283 q 205 323 173 323 q 259 303 238 323 q 281 252 281 283 l 281 235 q 290 212 281 222 l 340 163 q 366 153 351 153 l 522 153 q 547 163 537 153 l 597 212 q 606 235 606 222 l 606 326 q 597 350 606 340 l 547 401 q 522 411 536 411 l 371 411 q 317 433 339 411 q 296 486 296 454 q 317 539 296 518 q 371 559 338 559 l 522 559 q 547 570 535 559 l 597 621 q 606 644 606 631 l 606 737 q 597 760 606 749 l 547 810 q 522 819 538 819 l 366 819 q 340 810 350 819 l 290 760 q 281 737 281 750 z "},"4":{"ha":888,"x_min":131,"x_max":758,"o":"m 367 532 l 559 532 q 592 546 579 532 q 606 579 606 559 l 606 897 q 628 951 606 929 q 684 972 651 972 q 737 951 715 972 q 758 897 758 929 l 758 75 q 737 22 758 43 q 684 0 715 0 q 628 22 651 0 q 606 75 606 43 l 606 332 q 592 365 606 351 q 559 379 579 379 l 322 379 q 269 403 288 379 l 153 517 q 131 571 131 538 l 131 897 q 153 951 131 929 q 207 972 175 972 q 261 951 239 972 q 283 897 283 929 l 283 615 q 293 591 283 601 l 342 542 q 367 532 352 532 z "},"5":{"ha":888,"x_min":131,"x_max":758,"o":"m 283 252 l 283 235 q 293 211 283 220 l 342 163 q 367 153 352 153 l 524 153 q 549 163 538 153 l 597 211 q 606 235 606 221 l 606 357 q 597 380 606 370 l 549 429 q 524 439 539 439 l 322 439 q 269 461 287 439 l 153 576 q 131 631 131 598 l 131 896 q 153 950 131 928 q 207 972 175 972 l 684 972 q 737 950 715 972 q 758 896 758 928 q 737 841 758 863 q 684 819 715 819 l 329 819 q 296 806 309 819 q 283 772 283 792 l 283 673 q 293 650 283 656 l 342 602 q 367 591 352 591 l 567 591 q 621 568 600 591 l 737 454 q 758 401 758 430 l 758 189 q 737 138 758 162 l 621 24 q 567 0 600 0 l 322 0 q 269 24 288 0 l 153 138 q 131 189 131 159 l 131 252 q 153 302 131 281 q 207 323 175 323 q 261 302 239 323 q 283 252 283 281 z "},"6":{"ha":888,"x_min":131,"x_max":758,"o":"m 606 721 l 606 737 q 597 760 606 749 l 549 810 q 524 819 539 819 l 367 819 q 342 810 351 819 l 293 760 q 283 737 283 750 l 283 608 q 296 574 283 588 q 329 559 309 559 l 567 559 q 621 539 600 559 l 737 424 q 758 371 758 403 l 758 191 q 737 138 758 159 l 621 24 q 567 0 600 0 l 322 0 q 269 24 288 0 l 153 138 q 131 191 131 159 l 131 782 q 153 835 131 813 l 269 949 q 322 972 288 972 l 567 972 q 621 949 600 972 l 737 835 q 758 782 758 814 l 758 721 q 737 668 758 689 q 684 647 715 647 q 628 668 651 647 q 606 721 606 689 m 283 363 l 283 235 q 293 212 283 222 l 342 163 q 367 153 352 153 l 524 153 q 549 163 538 153 l 597 212 q 606 235 606 222 l 606 326 q 597 350 606 340 l 549 401 q 524 411 537 411 l 329 411 q 296 397 309 411 q 283 363 283 383 z "},"7":{"ha":888,"x_min":131,"x_max":758,"o":"m 521 439 l 521 75 q 499 22 521 43 q 446 0 477 0 q 390 22 412 0 q 368 75 368 43 l 368 485 q 390 538 368 516 l 600 743 q 608 768 608 751 l 608 772 q 594 806 608 792 q 561 819 581 819 l 205 819 q 152 841 174 819 q 131 896 131 863 q 152 950 131 928 q 205 972 174 972 l 685 972 q 738 950 717 972 q 758 896 758 928 l 758 724 q 737 671 758 695 l 530 463 q 521 439 521 453 z "},"8":{"ha":888,"x_min":131,"x_max":758,"o":"m 568 0 l 322 0 q 269 24 288 0 l 153 138 q 131 191 131 159 l 131 371 q 153 424 131 405 l 180 452 q 195 486 195 466 q 180 519 195 505 l 153 547 q 131 600 131 566 l 131 782 q 153 835 131 813 l 269 949 q 322 972 288 972 l 568 972 q 621 949 600 972 l 737 835 q 758 782 758 814 l 758 600 q 737 547 758 568 l 708 519 q 696 486 696 507 q 708 452 696 464 l 737 424 q 758 371 758 403 l 758 191 q 737 138 758 159 l 621 24 q 568 0 600 0 m 597 760 l 549 810 q 524 819 539 819 l 367 819 q 342 810 351 819 l 293 760 q 283 737 283 750 l 283 644 q 293 621 283 630 l 342 570 q 367 559 354 559 l 524 559 q 549 570 536 559 l 597 621 q 606 644 606 631 l 606 737 q 597 760 606 749 m 597 350 l 549 401 q 524 411 537 411 l 367 411 q 342 401 353 411 l 293 350 q 283 326 283 340 l 283 235 q 293 212 283 222 l 342 163 q 367 153 352 153 l 524 153 q 549 163 538 153 l 597 212 q 606 235 606 222 l 606 326 q 597 350 606 340 z "},"9":{"ha":888,"x_min":131,"x_max":758,"o":"m 283 252 l 283 235 q 293 212 283 222 l 342 163 q 367 153 352 153 l 524 153 q 549 163 538 153 l 597 212 q 606 235 606 222 l 606 363 q 592 397 606 383 q 559 411 579 411 l 322 411 q 269 432 288 411 l 153 547 q 131 600 131 566 l 131 782 q 153 835 131 813 l 269 949 q 322 972 288 972 l 568 972 q 621 949 600 972 l 737 835 q 758 782 758 814 l 758 191 q 737 138 758 159 l 621 24 q 568 0 600 0 l 322 0 q 269 24 288 0 l 153 138 q 131 191 131 159 l 131 252 q 153 303 131 283 q 207 323 174 323 q 261 303 239 323 q 283 252 283 283 m 606 608 l 606 737 q 597 760 606 749 l 549 810 q 524 819 539 819 l 367 819 q 342 810 351 819 l 293 760 q 283 737 283 750 l 283 644 q 293 621 283 630 l 342 570 q 367 559 354 559 l 559 559 q 592 574 579 559 q 606 608 606 588 z "},"\r":{"ha":347,"x_min":0,"x_max":0,"o":""},"\u0000":{"ha":0,"x_min":0,"x_max":0,"o":""}," ":{"ha":888,"x_min":0,"x_max":0,"o":""},"!":{"ha":888,"x_min":342,"x_max":547,"o":"m 521 897 l 521 345 q 499 292 521 313 q 444 271 477 271 q 390 292 412 271 q 368 345 368 313 l 368 897 q 390 951 368 929 q 444 972 412 972 q 498 951 476 972 q 521 897 521 929 m 471 0 l 416 0 q 363 22 385 0 q 342 75 342 43 l 342 129 q 363 182 342 161 q 416 203 385 203 l 471 203 q 525 182 503 203 q 547 129 547 161 l 547 75 q 525 22 547 43 q 471 0 503 0 z "},"\"":{"ha":888,"x_min":248,"x_max":643,"o":"m 400 897 l 400 710 q 378 657 400 678 q 322 636 356 636 q 269 657 290 636 q 248 710 248 678 l 248 897 q 269 951 248 929 q 322 972 290 972 q 378 951 355 972 q 400 897 400 929 m 643 897 l 643 710 q 621 657 643 678 q 566 636 598 636 q 512 657 534 636 q 490 710 490 678 l 490 897 q 512 951 490 929 q 566 972 534 972 q 621 951 598 972 q 643 897 643 929 z "},"#":{"ha":888,"x_min":131,"x_max":758,"o":"m 203 83 l 227 268 q 224 273 227 273 l 205 273 q 152 294 174 273 q 131 347 131 315 q 152 401 131 379 q 205 422 174 422 l 236 422 q 245 431 243 422 l 258 549 l 258 550 q 254 554 258 554 l 205 554 q 152 576 174 554 q 131 629 131 597 q 152 682 131 661 q 205 703 174 703 l 269 703 q 278 711 276 705 l 298 905 q 323 953 301 933 q 374 972 346 972 l 380 972 q 427 950 408 972 q 447 897 447 927 l 447 889 l 428 708 q 432 703 428 703 l 504 703 q 513 711 511 703 l 533 905 q 558 953 536 933 q 608 972 581 972 l 616 972 q 664 948 644 969 q 684 897 684 926 l 684 889 l 663 708 q 667 703 663 703 l 685 703 q 738 682 717 703 q 758 629 758 661 q 738 575 758 597 q 685 554 717 554 l 653 554 q 644 546 646 554 l 632 428 q 636 422 632 422 l 685 422 q 738 401 717 422 q 758 347 758 380 q 738 294 758 315 q 685 273 717 273 l 621 273 q 611 265 613 273 l 587 66 q 562 19 584 39 q 511 0 541 0 l 505 0 q 458 23 477 0 q 439 75 439 46 l 439 83 l 461 268 l 461 269 q 458 273 461 273 l 386 273 q 376 265 378 273 l 353 66 q 328 19 349 39 q 277 0 306 0 l 271 0 q 222 23 241 0 q 203 75 203 46 l 203 83 m 400 422 l 471 422 q 481 431 479 422 l 494 549 l 494 550 q 490 554 494 554 l 418 554 q 410 546 412 554 l 396 428 q 400 422 396 422 z "},"$":{"ha":888,"x_min":131,"x_max":758,"o":"m 319 972 l 361 972 q 367 979 367 972 l 367 997 q 389 1050 367 1029 q 443 1072 411 1072 q 498 1051 476 1072 q 519 997 519 1029 l 519 979 q 526 972 519 972 l 570 972 q 621 949 600 972 l 737 838 q 758 785 758 817 l 758 722 q 737 669 758 690 q 684 648 715 648 q 628 669 651 648 q 606 722 606 690 l 606 739 q 597 762 606 752 l 549 812 q 526 822 539 822 q 519 817 519 822 l 519 568 q 526 561 519 561 l 570 561 q 621 539 604 561 l 737 425 q 758 372 758 404 l 758 189 q 737 135 758 159 l 621 24 q 570 0 600 0 l 526 0 q 519 -7 519 0 l 519 -25 q 498 -78 519 -57 q 443 -100 476 -100 q 389 -78 411 -100 q 367 -25 367 -57 l 367 -7 q 361 0 367 0 l 319 0 q 269 24 288 0 l 153 135 q 131 189 131 157 l 131 250 q 153 303 131 282 q 207 323 174 323 q 261 303 239 323 q 283 250 283 282 l 283 233 q 293 210 283 219 l 339 160 q 361 150 349 150 q 367 155 367 150 l 367 406 q 361 412 367 412 l 319 412 q 269 433 288 412 l 153 547 q 131 600 131 569 l 131 785 q 153 838 131 816 l 269 949 q 319 972 288 972 m 367 567 l 367 817 q 363 822 367 822 q 339 812 349 822 l 293 762 q 283 739 283 753 l 283 646 q 293 621 283 630 l 339 571 q 361 561 349 561 q 367 567 367 561 m 519 407 l 519 155 q 525 150 519 150 q 549 160 538 150 l 597 210 q 606 233 606 220 l 606 326 q 597 351 606 341 l 549 403 q 526 412 536 412 q 519 407 519 412 z "},"%":{"ha":888,"x_min":131,"x_max":758,"o":"m 606 771 l 606 897 q 628 951 606 929 q 684 972 651 972 q 737 951 715 972 q 758 897 758 929 l 758 725 q 736 672 758 694 l 293 227 q 283 201 283 217 l 283 75 q 261 22 283 43 q 207 0 239 0 q 153 22 175 0 q 131 75 131 43 l 131 248 q 154 300 131 277 l 597 746 q 606 771 606 756 m 289 743 l 207 743 q 153 764 174 743 q 131 817 131 785 l 131 897 q 153 951 131 929 q 207 972 175 972 l 289 972 q 341 951 319 972 q 363 897 363 929 l 363 817 q 341 764 363 785 q 289 743 319 743 m 684 0 l 600 0 q 549 22 570 0 q 528 75 528 43 l 528 155 q 549 208 528 187 q 600 229 570 229 l 684 229 q 737 208 715 229 q 758 155 758 187 l 758 75 q 737 22 758 43 q 684 0 715 0 z "},"&":{"ha":888,"x_min":131,"x_max":811,"o":"m 697 404 l 697 192 q 675 138 697 160 l 562 24 q 509 0 542 0 l 322 0 q 269 24 288 0 l 153 138 q 131 192 131 159 l 131 371 q 153 424 131 402 l 180 452 q 195 486 195 466 q 180 519 195 505 l 153 547 q 131 600 131 569 l 131 782 q 153 835 131 813 l 269 949 q 322 972 288 972 l 446 972 q 498 950 477 972 q 519 896 519 928 q 498 841 519 863 q 446 819 477 819 l 367 819 q 343 810 353 819 l 293 760 q 283 737 283 750 l 283 644 q 293 621 283 630 l 343 570 q 367 559 355 559 l 542 559 q 549 567 549 559 l 549 600 q 570 653 549 632 q 623 673 591 673 q 676 653 654 673 q 697 600 697 632 l 697 567 q 704 559 697 559 l 736 559 q 790 539 768 559 q 811 486 811 518 q 789 433 811 454 q 736 411 768 411 l 704 411 q 697 404 697 411 m 549 235 l 549 404 q 542 411 549 411 l 367 411 q 343 401 355 411 l 293 350 q 283 326 283 340 l 283 235 q 293 212 283 222 l 343 163 q 367 153 353 153 l 464 153 q 488 163 477 153 l 539 212 q 549 235 549 224 z "},"'":{"ha":888,"x_min":368,"x_max":521,"o":"m 521 897 l 521 710 q 499 657 521 678 q 444 636 477 636 q 390 657 412 636 q 368 710 368 678 l 368 897 q 390 951 368 929 q 444 972 412 972 q 498 951 476 972 q 521 897 521 929 z "},"(":{"ha":888,"x_min":269,"x_max":619,"o":"m 503 87 l 546 87 q 598 66 578 87 q 619 14 619 45 q 598 -40 619 -18 q 546 -61 578 -61 l 457 -61 q 404 -39 422 -61 l 290 74 q 269 126 269 95 l 269 844 q 290 897 269 876 l 404 1010 q 457 1032 422 1032 l 546 1032 q 598 1011 578 1032 q 619 958 619 990 q 598 905 619 926 q 546 884 578 884 l 503 884 q 478 873 488 884 l 428 823 q 418 799 418 813 l 418 172 q 428 147 418 157 l 478 97 q 503 87 488 87 z "},")":{"ha":888,"x_min":268,"x_max":621,"o":"m 342 87 l 385 87 q 410 97 400 87 l 460 147 q 468 172 468 157 l 468 799 q 460 823 468 813 l 410 873 q 385 884 399 884 l 342 884 q 289 905 310 884 q 268 958 268 926 q 289 1011 268 990 q 342 1032 310 1032 l 431 1032 q 484 1010 464 1032 l 600 897 q 621 844 621 877 l 621 126 q 600 74 621 94 l 484 -39 q 431 -61 464 -61 l 342 -61 q 289 -40 310 -61 q 268 14 268 -18 q 289 66 268 45 q 342 87 310 87 z "},"*":{"ha":888,"x_min":250,"x_max":639,"o":"m 338 886 l 367 869 q 376 867 372 867 q 385 879 385 867 l 385 913 q 402 955 385 937 q 444 972 420 972 q 487 955 469 972 q 504 913 504 938 l 504 879 q 513 867 504 867 q 522 869 517 867 l 551 886 q 581 892 560 892 q 622 876 606 892 q 639 835 639 860 q 610 783 639 796 l 582 766 q 574 755 574 762 q 582 746 574 750 l 610 729 q 639 677 639 714 q 623 636 639 652 q 581 619 606 619 q 551 627 564 619 l 522 643 q 519 644 521 644 q 516 645 517 645 q 514 646 515 646 q 504 632 504 646 l 504 600 q 487 557 504 574 q 444 541 469 541 q 402 557 420 541 q 385 600 385 574 l 385 632 q 375 646 385 646 l 367 643 l 338 627 q 309 619 323 619 q 267 635 283 619 q 250 676 250 652 q 279 729 250 711 l 307 746 q 315 755 315 750 q 307 766 315 762 l 279 783 q 250 836 250 802 q 269 877 250 861 q 311 893 287 893 q 338 886 322 893 z "},"+":{"ha":888,"x_min":189,"x_max":701,"o":"m 568 558 l 628 558 q 681 537 660 558 q 701 485 701 517 q 681 431 701 452 q 628 410 660 410 l 568 410 q 535 396 549 410 q 521 363 521 382 l 521 301 q 499 248 521 269 q 446 227 477 227 q 392 248 414 227 q 371 301 371 269 l 371 363 q 357 396 371 382 q 323 410 343 410 l 264 410 q 211 431 232 410 q 189 485 189 453 q 211 537 189 517 q 264 558 232 558 l 323 558 q 357 572 343 558 q 371 606 371 586 l 371 667 q 392 720 371 699 q 446 742 414 742 q 499 720 477 742 q 521 667 521 699 l 521 606 q 535 572 521 586 q 568 558 549 558 z "},",":{"ha":888,"x_min":343,"x_max":546,"o":"m 416 203 l 469 203 q 524 181 501 203 q 546 127 546 159 l 546 -4 q 522 -57 546 -33 l 465 -113 q 419 -132 452 -132 q 375 -113 395 -132 q 357 -68 357 -94 q 374 -22 357 -39 l 397 0 q 358 28 374 7 q 343 74 343 48 l 343 127 q 364 181 343 160 q 416 203 385 203 z "},"-":{"ha":888,"x_min":189,"x_max":701,"o":"m 264 561 l 628 561 q 681 540 660 561 q 701 488 701 519 q 681 434 701 455 q 628 412 660 412 l 264 412 q 211 434 232 412 q 189 488 189 456 q 211 540 189 519 q 264 561 232 561 z "},".":{"ha":888,"x_min":336,"x_max":553,"o":"m 478 0 l 411 0 q 358 22 379 0 q 336 75 336 43 l 336 142 q 358 195 336 174 q 411 216 379 216 l 478 216 q 531 195 510 216 q 553 142 553 174 l 553 75 q 531 22 553 43 q 478 0 510 0 z "},"/":{"ha":888,"x_min":131,"x_max":758,"o":"m 606 771 l 606 897 q 628 951 606 929 q 684 972 651 972 q 737 951 715 972 q 758 897 758 929 l 758 725 q 736 672 758 694 l 293 227 q 283 201 283 217 l 283 75 q 261 22 283 43 q 207 0 239 0 q 153 22 175 0 q 131 75 131 43 l 131 248 q 154 300 131 277 l 597 746 q 606 771 606 756 z "},":":{"ha":888,"x_min":336,"x_max":553,"o":"m 478 460 l 411 460 q 358 480 379 460 q 336 533 336 501 l 336 602 q 358 654 336 633 q 411 675 379 675 l 478 675 q 531 654 510 675 q 553 602 553 633 l 553 533 q 531 480 553 501 q 478 460 510 460 m 478 0 l 411 0 q 358 22 379 0 q 336 75 336 43 l 336 142 q 358 195 336 174 q 411 216 379 216 l 478 216 q 531 195 510 216 q 553 142 553 174 l 553 75 q 531 22 553 43 q 478 0 510 0 z "},";":{"ha":888,"x_min":335,"x_max":551,"o":"m 476 460 l 410 460 q 356 480 378 460 q 335 533 335 501 l 335 602 q 356 654 335 633 q 410 675 378 675 l 476 675 q 530 654 509 675 q 551 602 551 633 l 551 533 q 530 480 551 501 q 476 460 509 460 m 416 203 l 469 203 q 524 181 501 203 q 546 127 546 159 l 546 -4 q 522 -57 546 -33 l 465 -113 q 419 -132 452 -132 q 375 -113 395 -132 q 357 -68 357 -94 q 374 -22 357 -39 l 397 0 q 358 28 374 7 q 343 74 343 48 l 343 127 q 364 181 343 160 q 416 203 385 203 z "},"<":{"ha":888,"x_min":218,"x_max":672,"o":"m 239 539 l 543 842 q 595 864 563 864 q 649 842 625 864 q 672 789 672 820 q 650 737 672 757 l 432 518 q 415 485 415 503 q 433 450 415 469 l 648 235 q 669 182 669 214 q 649 129 669 150 q 596 107 628 107 q 542 129 561 107 l 239 431 q 218 485 218 454 q 239 539 218 519 z "},"=":{"ha":888,"x_min":189,"x_max":701,"o":"m 264 701 l 628 701 q 681 681 660 701 q 701 628 701 660 q 681 574 701 595 q 628 553 660 553 l 264 553 q 211 574 232 553 q 189 628 189 596 q 211 681 189 660 q 264 701 232 701 m 264 421 l 628 421 q 681 400 660 421 q 701 347 701 379 q 681 293 701 315 q 628 272 660 272 l 264 272 q 211 294 232 272 q 189 347 189 315 q 211 400 189 379 q 264 421 232 421 z "},">":{"ha":888,"x_min":218,"x_max":672,"o":"m 347 842 l 650 539 q 672 485 672 517 q 650 431 672 453 l 349 129 q 294 107 327 107 q 242 129 262 107 q 221 182 221 150 q 241 235 221 216 l 457 450 q 473 485 473 469 q 458 518 473 503 l 239 737 q 218 789 218 758 q 242 842 218 820 q 296 864 265 864 q 347 842 325 864 z "},"?":{"ha":888,"x_min":131,"x_max":758,"o":"m 758 782 l 758 696 q 737 643 758 664 l 530 435 q 521 411 521 425 l 521 343 q 499 290 521 311 q 446 269 477 269 q 390 290 412 269 q 368 343 368 311 l 368 457 q 390 509 368 490 l 600 717 q 608 741 608 725 q 603 757 608 751 l 550 810 q 525 819 541 819 l 366 819 q 340 810 350 819 l 290 760 q 281 736 281 750 l 281 721 q 259 668 281 689 q 205 647 237 647 q 152 668 174 647 q 131 721 131 689 l 131 782 q 153 835 131 813 l 267 949 q 319 972 285 972 l 571 972 q 624 949 604 972 l 737 835 q 758 782 758 814 m 471 0 l 416 0 q 363 22 385 0 q 342 75 342 43 l 342 129 q 363 182 342 161 q 416 203 385 203 l 471 203 q 525 182 503 203 q 547 129 547 161 l 547 75 q 525 22 547 43 q 471 0 503 0 z "},"@":{"ha":888,"x_min":131,"x_max":758,"o":"m 529 421 l 551 399 q 575 389 559 389 l 600 389 q 606 396 606 389 l 606 736 q 597 760 606 749 l 549 810 q 525 819 539 819 l 363 819 q 339 810 349 819 l 293 760 q 283 736 283 750 l 283 236 q 293 212 283 222 l 339 163 q 363 153 349 153 l 559 153 q 612 131 590 153 q 633 77 633 109 q 612 22 633 45 q 559 0 590 0 l 319 0 q 269 24 288 0 l 153 138 q 131 192 131 159 l 131 782 q 153 835 131 813 l 269 949 q 319 972 288 972 l 568 972 q 621 949 600 972 l 737 835 q 758 782 758 814 l 758 318 q 737 263 758 286 q 684 241 715 241 l 532 241 q 476 265 500 241 l 389 349 q 367 401 367 370 l 367 628 q 389 679 367 659 q 443 699 410 699 q 498 679 477 699 q 519 628 519 660 l 519 446 q 529 421 519 431 z "},"A":{"ha":888,"x_min":131,"x_max":758,"o":"m 758 753 l 758 75 q 737 22 758 43 q 684 0 715 0 q 628 22 651 0 q 606 75 606 43 l 606 332 q 592 365 606 351 q 559 379 579 379 l 329 379 q 296 366 309 379 q 283 332 283 352 l 283 75 q 261 22 283 43 q 207 0 239 0 q 153 22 175 0 q 131 75 131 43 l 131 753 q 153 806 131 784 l 297 949 q 349 972 317 972 l 542 972 q 593 950 570 972 l 736 806 q 758 753 758 783 m 606 579 l 606 710 q 597 733 606 725 l 519 810 q 496 819 510 819 l 395 819 q 370 810 379 819 l 293 733 q 283 710 283 724 l 283 579 q 296 545 283 559 q 329 532 309 532 l 559 532 q 592 546 579 532 q 606 579 606 559 z "},"B":{"ha":888,"x_min":131,"x_max":758,"o":"m 737 547 l 708 519 q 696 486 696 507 q 708 452 696 464 l 737 424 q 758 371 758 403 l 758 192 q 737 138 758 162 l 621 24 q 567 0 600 0 l 207 0 q 153 22 175 0 q 131 77 131 45 l 131 896 q 153 950 131 928 q 207 972 175 972 l 567 972 q 621 949 600 972 l 737 835 q 758 782 758 814 l 758 600 q 737 547 758 568 m 549 570 l 597 621 q 606 644 606 631 l 606 737 q 597 760 606 749 l 549 810 q 524 819 539 819 l 329 819 q 296 806 309 819 q 283 772 283 792 l 283 608 q 296 574 283 588 q 329 559 309 559 l 524 559 q 549 570 536 559 m 549 163 l 597 212 q 606 235 606 222 l 606 326 q 597 350 606 340 l 549 401 q 524 411 537 411 l 329 411 q 296 397 309 411 q 283 363 283 383 l 283 200 q 296 166 283 180 q 329 153 309 153 l 524 153 q 549 163 538 153 z "},"C":{"ha":888,"x_min":131,"x_max":758,"o":"m 283 708 l 283 264 q 293 239 283 248 l 371 163 q 396 153 381 153 l 497 153 q 521 163 511 153 l 600 239 q 608 264 608 245 l 608 304 q 630 358 608 336 q 685 379 652 379 q 738 358 717 379 q 758 304 758 336 l 758 220 q 736 167 758 189 l 596 22 q 543 0 574 0 l 350 0 q 296 24 319 0 l 153 167 q 131 220 131 189 l 131 753 q 153 806 131 784 l 296 949 q 350 972 319 972 l 543 972 q 596 950 574 972 l 736 806 q 758 753 758 783 l 758 668 q 738 614 758 635 q 685 593 717 593 q 631 614 653 593 q 608 668 608 636 l 608 708 q 600 733 608 727 l 521 810 q 497 819 511 819 l 396 819 q 371 810 380 819 l 293 733 q 283 708 283 724 z "},"D":{"ha":888,"x_min":131,"x_max":758,"o":"m 593 950 l 736 806 q 758 753 758 783 l 758 220 q 736 167 758 189 l 593 22 q 542 0 570 0 l 207 0 q 153 22 175 0 q 131 77 131 45 l 131 896 q 153 950 131 928 q 207 972 175 972 l 542 972 q 593 950 570 972 m 519 163 l 597 239 q 606 264 606 249 l 606 708 q 597 733 606 723 l 519 810 q 496 819 510 819 l 329 819 q 296 806 309 819 q 283 772 283 792 l 283 200 q 296 166 283 180 q 329 153 309 153 l 496 153 q 519 163 509 153 z "},"E":{"ha":888,"x_min":131,"x_max":758,"o":"m 131 77 l 131 896 q 153 950 131 928 q 207 972 175 972 l 685 972 q 738 950 717 972 q 758 896 758 928 q 738 841 758 863 q 685 819 717 819 l 330 819 q 297 806 311 819 q 283 772 283 792 l 283 608 q 297 574 283 588 q 330 559 311 559 l 593 559 q 647 539 625 559 q 668 486 668 518 q 646 433 668 454 q 593 411 625 411 l 330 411 q 297 397 311 411 q 283 363 283 382 l 283 200 q 297 166 283 180 q 330 153 311 153 l 685 153 q 738 131 717 153 q 758 77 758 109 q 738 22 758 44 q 685 0 717 0 l 207 0 q 153 22 175 0 q 131 77 131 45 z "},"F":{"ha":888,"x_min":131,"x_max":758,"o":"m 283 364 l 283 75 q 261 22 283 43 q 207 0 239 0 q 153 22 175 0 q 131 75 131 43 l 131 896 q 153 950 131 928 q 207 972 175 972 l 685 972 q 738 950 717 972 q 758 896 758 928 q 738 841 758 863 q 685 819 717 819 l 330 819 q 297 806 311 819 q 283 772 283 792 l 283 608 q 297 574 283 588 q 330 559 311 559 l 593 559 q 646 539 625 559 q 667 486 667 518 q 646 434 667 456 q 593 412 625 412 l 330 412 q 297 398 311 412 q 283 364 283 384 z "},"G":{"ha":888,"x_min":131,"x_max":758,"o":"m 606 721 l 606 737 q 597 760 606 749 l 549 810 q 524 819 539 819 l 367 819 q 342 810 351 819 l 293 760 q 283 737 283 750 l 283 235 q 293 212 283 222 l 342 163 q 367 153 352 153 l 524 153 q 549 163 538 153 l 597 212 q 606 235 606 222 l 606 364 q 592 397 606 384 q 559 411 579 411 l 481 411 q 428 433 450 411 q 406 486 406 454 q 428 538 406 517 q 481 559 450 559 l 684 559 q 737 539 715 559 q 758 486 758 518 l 758 192 q 737 138 758 162 l 621 24 q 567 0 600 0 l 322 0 q 269 24 288 0 l 153 138 q 131 192 131 159 l 131 782 q 153 835 131 813 l 269 949 q 322 972 288 972 l 567 972 q 621 949 600 972 l 737 835 q 758 782 758 814 l 758 721 q 737 668 758 689 q 684 647 715 647 q 628 668 651 647 q 606 721 606 689 z "},"H":{"ha":888,"x_min":131,"x_max":758,"o":"m 758 897 l 758 75 q 737 22 758 43 q 684 0 715 0 q 628 22 650 0 q 606 75 606 43 l 606 364 q 592 398 606 385 q 559 412 579 412 l 329 412 q 296 398 309 412 q 283 364 283 385 l 283 75 q 261 22 283 43 q 207 0 239 0 q 153 22 175 0 q 131 75 131 43 l 131 897 q 153 951 131 929 q 207 972 175 972 q 261 951 239 972 q 283 897 283 929 l 283 608 q 296 574 283 588 q 329 559 309 559 l 559 559 q 592 574 579 559 q 606 608 606 588 l 606 897 q 628 951 606 929 q 684 972 650 972 q 737 951 715 972 q 758 897 758 929 z "},"I":{"ha":888,"x_min":191,"x_max":699,"o":"m 625 0 l 265 0 q 212 22 233 0 q 191 75 191 43 q 212 129 191 107 q 265 150 233 150 l 321 150 q 354 164 340 150 q 368 197 368 178 l 368 775 q 354 808 368 795 q 321 822 340 822 l 265 822 q 212 844 233 822 q 191 897 191 865 q 212 951 191 929 q 265 972 233 972 l 625 972 q 678 951 657 972 q 699 897 699 930 q 678 843 699 865 q 625 822 657 822 l 568 822 q 535 808 549 822 q 521 775 521 795 l 521 197 q 535 164 521 178 q 568 150 549 150 l 625 150 q 678 129 657 150 q 699 75 699 107 q 678 21 699 43 q 625 0 657 0 z "},"J":{"ha":888,"x_min":131,"x_max":758,"o":"m 606 236 l 606 772 q 592 806 606 792 q 559 819 579 819 l 444 819 q 393 842 414 819 q 371 896 371 864 q 393 950 371 928 q 444 972 414 972 l 684 972 q 737 950 715 972 q 758 896 758 928 l 758 192 q 737 138 758 162 l 621 24 q 568 0 600 0 l 322 0 q 269 24 288 0 l 153 138 q 131 192 131 159 l 131 306 q 153 358 131 338 q 207 378 174 378 q 261 358 239 378 q 283 306 283 338 l 283 236 q 293 212 283 222 l 342 163 q 367 153 352 153 l 524 153 q 549 163 538 153 l 597 212 q 606 236 606 222 z "},"K":{"ha":888,"x_min":131,"x_max":758,"o":"m 393 412 l 329 412 q 296 398 309 412 q 283 364 283 385 l 283 75 q 261 22 283 43 q 207 0 239 0 q 153 22 175 0 q 131 75 131 43 l 131 897 q 153 951 131 929 q 207 972 175 972 q 261 951 239 972 q 283 897 283 929 l 283 608 q 296 574 283 588 q 329 559 309 559 l 393 559 q 415 570 409 559 l 597 753 q 606 778 606 763 l 606 897 q 628 951 606 929 q 684 972 651 972 q 737 951 715 972 q 758 897 758 929 l 758 732 q 737 679 758 703 l 575 519 q 561 486 561 503 q 575 453 561 469 l 737 293 q 758 240 758 269 l 758 75 q 737 22 758 43 q 684 0 715 0 q 628 22 651 0 q 606 75 606 43 l 606 195 q 597 220 606 210 l 415 403 q 393 412 410 412 z "},"L":{"ha":888,"x_min":131,"x_max":758,"o":"m 283 897 l 283 200 q 297 166 283 180 q 330 153 311 153 l 685 153 q 738 131 717 153 q 758 77 758 109 q 738 22 758 44 q 685 0 717 0 l 207 0 q 153 22 175 0 q 131 77 131 45 l 131 897 q 153 951 131 929 q 207 972 175 972 q 261 951 239 972 q 283 897 283 929 z "},"M":{"ha":888,"x_min":131,"x_max":758,"o":"m 606 75 l 606 696 q 600 707 606 707 q 591 701 597 707 l 529 637 q 519 612 519 628 l 519 486 q 498 433 519 454 q 444 412 476 412 q 389 433 411 412 q 367 486 367 454 l 367 612 q 358 637 367 629 l 297 703 q 289 708 294 708 q 283 697 283 708 l 283 75 q 261 22 283 43 q 207 0 239 0 q 153 22 175 0 q 131 75 131 43 l 131 897 q 153 951 131 929 q 207 972 175 972 q 262 950 240 972 l 410 799 q 444 785 429 785 q 478 798 456 785 l 628 950 q 684 972 650 972 q 737 951 715 972 q 758 897 758 929 l 758 75 q 737 22 758 43 q 684 0 715 0 q 628 22 651 0 q 606 75 606 43 z "},"N":{"ha":888,"x_min":131,"x_max":758,"o":"m 275 935 l 596 374 q 603 367 601 367 q 606 376 606 367 l 606 897 q 628 951 606 929 q 684 972 651 972 q 737 951 715 972 q 758 897 758 929 l 758 75 q 737 22 758 43 q 684 0 715 0 q 615 37 641 0 l 293 603 q 286 610 291 610 q 283 600 283 610 l 283 75 q 261 22 283 43 q 207 0 239 0 q 153 22 175 0 q 131 75 131 43 l 131 897 q 153 951 131 929 q 207 972 175 972 q 247 962 228 972 q 275 935 267 951 z "},"O":{"ha":888,"x_min":131,"x_max":758,"o":"m 621 949 l 737 835 q 758 782 758 814 l 758 191 q 737 138 758 159 l 621 24 q 567 0 600 0 l 322 0 q 269 24 288 0 l 153 138 q 131 191 131 159 l 131 782 q 153 835 131 813 l 269 949 q 322 972 288 972 l 567 972 q 621 949 600 972 m 549 163 l 597 212 q 606 236 606 222 l 606 736 q 597 760 606 749 l 549 810 q 524 819 539 819 l 367 819 q 342 810 351 819 l 293 760 q 283 736 283 750 l 283 236 q 293 212 283 222 l 342 163 q 367 153 352 153 l 524 153 q 549 163 538 153 z "},"P":{"ha":888,"x_min":131,"x_max":758,"o":"m 283 330 l 283 72 q 261 19 283 40 q 207 -3 239 -3 q 153 19 175 -3 q 131 72 131 40 l 131 896 q 153 950 131 928 q 207 972 175 972 l 567 972 q 621 949 600 972 l 737 835 q 758 782 758 814 l 758 570 q 737 515 758 540 l 621 401 q 567 378 600 378 l 329 378 q 296 364 309 378 q 283 330 283 351 m 329 530 l 524 530 q 549 541 538 530 l 597 590 q 606 612 606 600 l 606 737 q 597 760 606 749 l 549 810 q 524 819 539 819 l 329 819 q 296 806 309 819 q 283 772 283 792 l 283 578 q 296 544 283 557 q 329 530 309 530 z "},"Q":{"ha":888,"x_min":131,"x_max":758,"o":"m 524 0 l 322 0 q 269 24 288 0 l 153 138 q 131 192 131 159 l 131 782 q 153 835 131 813 l 269 949 q 322 972 288 972 l 568 972 q 621 949 600 972 l 737 835 q 758 782 758 814 l 758 192 q 737 138 758 159 l 708 111 q 696 77 696 99 q 708 41 696 56 l 737 16 q 758 -39 758 -3 q 737 -92 758 -71 q 684 -113 715 -113 q 628 -92 649 -113 l 549 -9 q 524 0 537 0 m 549 163 l 597 212 q 606 236 606 220 l 606 736 q 597 760 606 751 l 549 810 q 524 819 539 819 l 367 819 q 342 810 351 819 l 293 760 q 283 736 283 750 l 283 236 q 293 212 283 222 l 342 163 q 367 153 352 153 l 524 153 q 549 163 538 153 z "},"R":{"ha":888,"x_min":131,"x_max":758,"o":"m 496 378 l 329 378 q 296 364 309 378 q 283 330 283 351 l 283 72 q 261 19 283 40 q 207 -3 239 -3 q 153 19 175 -3 q 131 72 131 40 l 131 896 q 153 950 131 928 q 207 972 175 972 l 542 972 q 595 949 571 972 l 737 806 q 758 753 758 785 l 758 597 q 736 545 758 567 l 681 489 q 667 456 667 475 q 682 419 667 435 l 737 366 q 758 313 758 345 l 758 72 q 737 19 758 40 q 684 -3 715 -3 q 628 19 651 -3 q 606 72 606 40 l 606 267 q 597 290 606 282 l 519 368 q 496 378 510 378 m 519 541 l 597 616 q 606 642 606 625 l 606 708 q 597 733 606 725 l 519 810 q 496 819 510 819 l 329 819 q 296 806 309 819 q 283 772 283 792 l 283 578 q 296 544 283 557 q 329 530 309 530 l 496 530 q 519 541 509 530 z "},"S":{"ha":888,"x_min":131,"x_max":758,"o":"m 606 721 l 606 737 q 597 760 606 751 l 547 810 q 525 819 538 819 l 366 819 q 343 810 353 819 l 293 760 q 283 737 283 750 l 283 644 q 293 621 283 630 l 343 570 q 366 559 355 559 l 568 559 q 621 539 600 559 l 737 419 q 758 368 758 398 l 758 189 q 737 138 758 159 l 621 24 q 568 0 600 0 l 322 0 q 269 24 288 0 l 153 138 q 131 189 131 159 l 131 250 q 153 300 131 280 q 207 319 174 319 q 261 300 239 319 q 283 250 283 280 l 283 235 q 293 211 283 220 l 343 163 q 366 153 353 153 l 525 153 q 547 163 537 153 l 597 211 q 606 235 606 219 l 606 322 q 597 347 606 337 l 547 397 q 525 407 536 407 l 322 407 q 269 428 288 407 l 153 547 q 131 600 131 571 l 131 782 q 153 835 131 813 l 269 949 q 322 972 288 972 l 568 972 q 621 949 600 972 l 737 835 q 758 782 758 814 l 758 721 q 737 668 758 689 q 684 647 715 647 q 628 668 651 647 q 606 721 606 689 z "},"T":{"ha":888,"x_min":129,"x_max":760,"o":"m 521 772 l 521 72 q 499 19 521 40 q 444 -3 477 -3 q 390 19 412 -3 q 368 72 368 40 l 368 772 q 354 806 368 792 q 321 819 340 819 l 204 819 q 151 842 172 819 q 129 896 129 864 q 151 950 129 928 q 204 972 172 972 l 686 972 q 739 950 718 972 q 760 896 760 928 q 739 841 760 863 q 686 819 718 819 l 568 819 q 535 806 549 819 q 521 772 521 792 z "},"U":{"ha":888,"x_min":131,"x_max":758,"o":"m 283 900 l 283 236 q 293 212 283 222 l 342 163 q 367 153 352 153 l 524 153 q 549 163 538 153 l 597 212 q 606 236 606 220 l 606 900 q 628 954 606 932 q 684 975 651 975 q 737 954 715 975 q 758 900 758 932 l 758 191 q 737 138 758 159 l 621 24 q 567 0 600 0 l 322 0 q 269 24 288 0 l 153 138 q 131 191 131 159 l 131 900 q 153 954 131 932 q 207 975 175 975 q 261 954 239 975 q 283 900 283 932 z "},"V":{"ha":888,"x_min":131,"x_max":758,"o":"m 606 335 l 606 897 q 628 951 606 929 q 684 972 651 972 q 737 951 715 972 q 758 897 758 929 l 758 289 q 736 235 758 254 l 521 22 q 469 0 498 0 l 419 0 q 368 22 391 0 l 154 235 q 131 289 131 258 l 131 897 q 153 951 131 929 q 207 972 175 972 q 261 951 239 972 q 283 897 283 929 l 283 335 q 293 311 283 321 l 411 189 q 446 176 424 176 q 479 189 465 176 l 597 311 q 606 335 606 319 z "},"W":{"ha":888,"x_min":131,"x_max":758,"o":"m 606 240 l 606 897 q 628 951 606 929 q 684 972 651 972 q 737 951 715 972 q 758 897 758 929 l 758 195 q 737 142 758 163 l 614 22 q 562 0 591 0 q 511 22 534 0 l 444 87 l 375 22 q 325 0 353 0 q 275 22 298 0 l 153 142 q 131 195 131 163 l 131 897 q 153 951 131 929 q 207 972 175 972 q 261 951 239 972 q 283 897 283 929 l 283 240 q 296 212 283 224 q 325 200 309 200 q 354 212 342 200 q 367 240 367 224 l 367 486 q 389 539 367 518 q 444 559 410 559 q 498 539 477 559 q 519 486 519 518 l 519 240 q 533 212 519 224 q 562 200 546 200 q 592 212 579 200 q 606 240 606 224 z "},"X":{"ha":888,"x_min":131,"x_max":758,"o":"m 606 746 l 606 897 q 628 951 606 929 q 684 972 651 972 q 737 951 715 972 q 758 897 758 929 l 758 699 q 736 647 758 665 l 607 519 q 593 486 593 503 q 607 453 593 469 l 736 325 q 758 273 758 307 l 758 75 q 737 22 758 43 q 684 0 715 0 q 628 22 651 0 q 606 75 606 43 l 606 227 q 597 252 606 243 l 479 371 q 444 386 465 386 q 411 371 426 386 l 293 252 q 283 227 283 242 l 283 75 q 261 22 283 43 q 207 0 239 0 q 153 22 175 0 q 131 75 131 43 l 131 273 q 154 325 131 307 l 282 453 q 297 486 297 468 q 282 519 297 505 l 154 647 q 131 699 131 665 l 131 897 q 153 951 131 929 q 207 972 175 972 q 261 951 239 972 q 283 897 283 929 l 283 746 q 293 721 283 730 l 411 602 q 444 586 427 586 q 479 602 464 586 l 597 721 q 606 746 606 729 z "},"Y":{"ha":888,"x_min":131,"x_max":758,"o":"m 358 410 l 154 615 q 131 669 131 638 l 131 897 q 153 951 131 929 q 207 972 175 972 q 261 951 239 972 q 283 897 283 929 l 283 715 q 293 692 283 701 l 410 570 q 443 557 422 557 q 478 570 463 557 l 597 692 q 606 715 606 700 l 606 897 q 628 951 606 929 q 684 972 651 972 q 737 951 715 972 q 758 897 758 929 l 758 669 q 736 615 758 635 l 529 410 q 519 385 519 400 l 519 75 q 498 21 519 43 q 443 0 476 0 q 389 22 411 0 q 367 75 367 43 l 367 385 q 358 410 367 401 z "},"Z":{"ha":888,"x_min":131,"x_max":758,"o":"m 153 301 l 600 743 q 608 768 608 751 l 608 772 q 594 806 608 792 q 561 819 581 819 l 205 819 q 152 841 174 819 q 131 896 131 863 q 152 950 131 928 q 205 972 174 972 l 685 972 q 738 950 717 972 q 758 896 758 928 l 758 724 q 737 671 758 690 l 290 229 q 281 204 281 220 l 281 200 q 294 166 281 180 q 328 153 308 153 l 685 153 q 738 131 717 153 q 758 77 758 109 q 738 22 758 44 q 685 0 717 0 l 205 0 q 152 22 174 0 q 131 77 131 44 l 131 249 q 153 301 131 279 z "},"[":{"ha":888,"x_min":269,"x_max":619,"o":"m 546 -61 l 343 -61 q 290 -40 311 -61 q 269 12 269 -20 l 269 958 q 290 1011 269 990 q 343 1032 311 1032 l 546 1032 q 598 1011 578 1032 q 619 958 619 990 q 598 905 619 926 q 546 884 578 884 l 465 884 q 432 870 446 884 q 418 836 418 856 l 418 135 q 432 101 418 115 q 465 87 446 87 l 546 87 q 598 66 578 87 q 619 14 619 45 q 598 -40 619 -18 q 546 -61 578 -61 z "},"\\":{"ha":888,"x_min":131,"x_max":758,"o":"m 283 897 l 283 771 q 293 746 283 755 l 736 300 q 758 248 758 277 l 758 75 q 737 22 758 43 q 684 0 715 0 q 628 22 651 0 q 606 75 606 43 l 606 201 q 597 227 606 218 l 154 672 q 131 725 131 695 l 131 897 q 153 951 131 929 q 207 972 175 972 q 261 951 239 972 q 283 897 283 929 z "},"]":{"ha":888,"x_min":267,"x_max":619,"o":"m 545 -61 l 340 -61 q 288 -40 309 -61 q 267 14 267 -18 q 288 66 267 45 q 340 87 309 87 l 419 87 q 453 101 439 87 q 467 135 467 115 l 467 836 q 453 870 467 856 q 419 884 439 884 l 340 884 q 288 905 309 884 q 267 958 267 926 q 288 1011 267 990 q 340 1032 309 1032 l 545 1032 q 598 1011 576 1032 q 619 958 619 990 l 619 12 q 598 -40 619 -20 q 545 -61 576 -61 z "},"^":{"ha":888,"x_min":175,"x_max":714,"o":"m 444 972 q 497 950 475 972 l 693 754 q 714 700 714 733 q 692 647 714 668 q 637 627 671 627 q 587 648 606 627 l 478 757 q 444 772 463 772 q 411 757 431 772 l 301 648 q 252 627 281 627 q 197 647 218 627 q 175 700 175 668 q 196 754 175 733 l 392 950 q 444 972 414 972 z "},"_":{"ha":888,"x_min":131,"x_max":758,"o":"m 205 87 l 685 87 q 738 66 717 87 q 758 14 758 45 q 738 -40 758 -18 q 685 -61 717 -61 l 205 -61 q 152 -40 174 -61 q 131 14 131 -18 q 152 66 131 45 q 205 87 174 87 z "},"`":{"ha":888,"x_min":315,"x_max":575,"o":"m 447 1116 l 336 1225 q 315 1278 315 1246 q 336 1332 315 1310 q 389 1353 357 1353 q 443 1331 420 1353 l 553 1219 q 575 1168 575 1197 q 553 1115 575 1136 q 500 1093 532 1093 q 447 1116 469 1093 z "},"a":{"ha":888,"x_min":131,"x_max":758,"o":"m 758 753 l 758 75 q 737 22 758 43 q 684 0 715 0 q 628 22 651 0 q 606 75 606 43 l 606 332 q 592 365 606 351 q 559 379 579 379 l 329 379 q 296 366 309 379 q 283 332 283 352 l 283 75 q 261 22 283 43 q 207 0 239 0 q 153 22 175 0 q 131 75 131 43 l 131 753 q 153 806 131 784 l 297 949 q 349 972 317 972 l 542 972 q 593 950 570 972 l 736 806 q 758 753 758 783 m 606 579 l 606 710 q 597 733 606 725 l 519 810 q 496 819 510 819 l 395 819 q 370 810 379 819 l 293 733 q 283 710 283 724 l 283 579 q 296 545 283 559 q 329 532 309 532 l 559 532 q 592 546 579 532 q 606 579 606 559 z "},"b":{"ha":888,"x_min":131,"x_max":758,"o":"m 737 547 l 708 519 q 696 486 696 507 q 708 452 696 464 l 737 424 q 758 371 758 403 l 758 192 q 737 138 758 162 l 621 24 q 567 0 600 0 l 207 0 q 153 22 175 0 q 131 77 131 45 l 131 896 q 153 950 131 928 q 207 972 175 972 l 567 972 q 621 949 600 972 l 737 835 q 758 782 758 814 l 758 600 q 737 547 758 568 m 549 570 l 597 621 q 606 644 606 631 l 606 737 q 597 760 606 749 l 549 810 q 524 819 539 819 l 329 819 q 296 806 309 819 q 283 772 283 792 l 283 608 q 296 574 283 588 q 329 559 309 559 l 524 559 q 549 570 536 559 m 549 163 l 597 212 q 606 235 606 222 l 606 326 q 597 350 606 340 l 549 401 q 524 411 537 411 l 329 411 q 296 397 309 411 q 283 363 283 383 l 283 200 q 296 166 283 180 q 329 153 309 153 l 524 153 q 549 163 538 153 z "},"c":{"ha":888,"x_min":131,"x_max":758,"o":"m 283 708 l 283 264 q 293 239 283 248 l 371 163 q 396 153 381 153 l 497 153 q 521 163 511 153 l 600 239 q 608 264 608 245 l 608 304 q 630 358 608 336 q 685 379 652 379 q 738 358 717 379 q 758 304 758 336 l 758 220 q 736 167 758 189 l 596 22 q 543 0 574 0 l 350 0 q 296 24 319 0 l 153 167 q 131 220 131 189 l 131 753 q 153 806 131 784 l 296 949 q 350 972 319 972 l 543 972 q 596 950 574 972 l 736 806 q 758 753 758 783 l 758 668 q 738 614 758 635 q 685 593 717 593 q 631 614 653 593 q 608 668 608 636 l 608 708 q 600 733 608 727 l 521 810 q 497 819 511 819 l 396 819 q 371 810 380 819 l 293 733 q 283 708 283 724 z "},"d":{"ha":888,"x_min":131,"x_max":758,"o":"m 593 950 l 736 806 q 758 753 758 783 l 758 220 q 736 167 758 189 l 593 22 q 542 0 570 0 l 207 0 q 153 22 175 0 q 131 77 131 45 l 131 896 q 153 950 131 928 q 207 972 175 972 l 542 972 q 593 950 570 972 m 519 163 l 597 239 q 606 264 606 249 l 606 708 q 597 733 606 723 l 519 810 q 496 819 510 819 l 329 819 q 296 806 309 819 q 283 772 283 792 l 283 200 q 296 166 283 180 q 329 153 309 153 l 496 153 q 519 163 509 153 z "},"e":{"ha":888,"x_min":131,"x_max":758,"o":"m 131 77 l 131 896 q 153 950 131 928 q 207 972 175 972 l 685 972 q 738 950 717 972 q 758 896 758 928 q 738 841 758 863 q 685 819 717 819 l 330 819 q 297 806 311 819 q 283 772 283 792 l 283 608 q 297 574 283 588 q 330 559 311 559 l 593 559 q 647 539 625 559 q 668 486 668 518 q 646 433 668 454 q 593 411 625 411 l 330 411 q 297 397 311 411 q 283 363 283 382 l 283 200 q 297 166 283 180 q 330 153 311 153 l 685 153 q 738 131 717 153 q 758 77 758 109 q 738 22 758 44 q 685 0 717 0 l 207 0 q 153 22 175 0 q 131 77 131 45 z "},"f":{"ha":888,"x_min":131,"x_max":758,"o":"m 283 364 l 283 75 q 261 22 283 43 q 207 0 239 0 q 153 22 175 0 q 131 75 131 43 l 131 896 q 153 950 131 928 q 207 972 175 972 l 685 972 q 738 950 717 972 q 758 896 758 928 q 738 841 758 863 q 685 819 717 819 l 330 819 q 297 806 311 819 q 283 772 283 792 l 283 608 q 297 574 283 588 q 330 559 311 559 l 593 559 q 646 539 625 559 q 667 486 667 518 q 646 434 667 456 q 593 412 625 412 l 330 412 q 297 398 311 412 q 283 364 283 384 z "},"g":{"ha":888,"x_min":131,"x_max":758,"o":"m 606 721 l 606 737 q 597 760 606 749 l 549 810 q 524 819 539 819 l 367 819 q 342 810 351 819 l 293 760 q 283 737 283 750 l 283 235 q 293 212 283 222 l 342 163 q 367 153 352 153 l 524 153 q 549 163 538 153 l 597 212 q 606 235 606 222 l 606 364 q 592 397 606 384 q 559 411 579 411 l 481 411 q 428 433 450 411 q 406 486 406 454 q 428 538 406 517 q 481 559 450 559 l 684 559 q 737 539 715 559 q 758 486 758 518 l 758 192 q 737 138 758 162 l 621 24 q 567 0 600 0 l 322 0 q 269 24 288 0 l 153 138 q 131 192 131 159 l 131 782 q 153 835 131 813 l 269 949 q 322 972 288 972 l 567 972 q 621 949 600 972 l 737 835 q 758 782 758 814 l 758 721 q 737 668 758 689 q 684 647 715 647 q 628 668 651 647 q 606 721 606 689 z "},"h":{"ha":888,"x_min":131,"x_max":758,"o":"m 758 897 l 758 75 q 737 22 758 43 q 684 0 715 0 q 628 22 650 0 q 606 75 606 43 l 606 364 q 592 398 606 385 q 559 412 579 412 l 329 412 q 296 398 309 412 q 283 364 283 385 l 283 75 q 261 22 283 43 q 207 0 239 0 q 153 22 175 0 q 131 75 131 43 l 131 897 q 153 951 131 929 q 207 972 175 972 q 261 951 239 972 q 283 897 283 929 l 283 608 q 296 574 283 588 q 329 559 309 559 l 559 559 q 592 574 579 559 q 606 608 606 588 l 606 897 q 628 951 606 929 q 684 972 650 972 q 737 951 715 972 q 758 897 758 929 z "},"i":{"ha":888,"x_min":191,"x_max":699,"o":"m 625 0 l 265 0 q 212 22 233 0 q 191 75 191 43 q 212 129 191 107 q 265 150 233 150 l 321 150 q 354 164 340 150 q 368 197 368 178 l 368 775 q 354 808 368 795 q 321 822 340 822 l 265 822 q 212 844 233 822 q 191 897 191 865 q 212 951 191 929 q 265 972 233 972 l 625 972 q 678 951 657 972 q 699 897 699 930 q 678 843 699 865 q 625 822 657 822 l 568 822 q 535 808 549 822 q 521 775 521 795 l 521 197 q 535 164 521 178 q 568 150 549 150 l 625 150 q 678 129 657 150 q 699 75 699 107 q 678 21 699 43 q 625 0 657 0 z "},"j":{"ha":888,"x_min":131,"x_max":758,"o":"m 606 236 l 606 772 q 592 806 606 792 q 559 819 579 819 l 444 819 q 393 842 414 819 q 371 896 371 864 q 393 950 371 928 q 444 972 414 972 l 684 972 q 737 950 715 972 q 758 896 758 928 l 758 192 q 737 138 758 162 l 621 24 q 568 0 600 0 l 322 0 q 269 24 288 0 l 153 138 q 131 192 131 159 l 131 306 q 153 358 131 338 q 207 378 174 378 q 261 358 239 378 q 283 306 283 338 l 283 236 q 293 212 283 222 l 342 163 q 367 153 352 153 l 524 153 q 549 163 538 153 l 597 212 q 606 236 606 222 z "},"k":{"ha":888,"x_min":131,"x_max":758,"o":"m 393 412 l 329 412 q 296 398 309 412 q 283 364 283 385 l 283 75 q 261 22 283 43 q 207 0 239 0 q 153 22 175 0 q 131 75 131 43 l 131 897 q 153 951 131 929 q 207 972 175 972 q 261 951 239 972 q 283 897 283 929 l 283 608 q 296 574 283 588 q 329 559 309 559 l 393 559 q 415 570 409 559 l 597 753 q 606 778 606 763 l 606 897 q 628 951 606 929 q 684 972 651 972 q 737 951 715 972 q 758 897 758 929 l 758 732 q 737 679 758 703 l 575 519 q 561 486 561 503 q 575 453 561 469 l 737 293 q 758 240 758 269 l 758 75 q 737 22 758 43 q 684 0 715 0 q 628 22 651 0 q 606 75 606 43 l 606 195 q 597 220 606 210 l 415 403 q 393 412 410 412 z "},"l":{"ha":888,"x_min":131,"x_max":758,"o":"m 283 897 l 283 200 q 297 166 283 180 q 330 153 311 153 l 685 153 q 738 131 717 153 q 758 77 758 109 q 738 22 758 44 q 685 0 717 0 l 207 0 q 153 22 175 0 q 131 77 131 45 l 131 897 q 153 951 131 929 q 207 972 175 972 q 261 951 239 972 q 283 897 283 929 z "},"m":{"ha":888,"x_min":131,"x_max":758,"o":"m 606 75 l 606 696 q 600 707 606 707 q 591 701 597 707 l 529 637 q 519 612 519 628 l 519 486 q 498 433 519 454 q 444 412 476 412 q 389 433 411 412 q 367 486 367 454 l 367 612 q 358 637 367 629 l 297 703 q 289 708 294 708 q 283 697 283 708 l 283 75 q 261 22 283 43 q 207 0 239 0 q 153 22 175 0 q 131 75 131 43 l 131 897 q 153 951 131 929 q 207 972 175 972 q 262 950 240 972 l 410 799 q 444 785 429 785 q 478 798 456 785 l 628 950 q 684 972 650 972 q 737 951 715 972 q 758 897 758 929 l 758 75 q 737 22 758 43 q 684 0 715 0 q 628 22 651 0 q 606 75 606 43 z "},"n":{"ha":888,"x_min":131,"x_max":758,"o":"m 275 935 l 596 374 q 603 367 601 367 q 606 376 606 367 l 606 897 q 628 951 606 929 q 684 972 651 972 q 737 951 715 972 q 758 897 758 929 l 758 75 q 737 22 758 43 q 684 0 715 0 q 615 37 641 0 l 293 603 q 286 610 291 610 q 283 600 283 610 l 283 75 q 261 22 283 43 q 207 0 239 0 q 153 22 175 0 q 131 75 131 43 l 131 897 q 153 951 131 929 q 207 972 175 972 q 247 962 228 972 q 275 935 267 951 z "},"o":{"ha":888,"x_min":131,"x_max":758,"o":"m 621 949 l 737 835 q 758 782 758 814 l 758 191 q 737 138 758 159 l 621 24 q 567 0 600 0 l 322 0 q 269 24 288 0 l 153 138 q 131 191 131 159 l 131 782 q 153 835 131 813 l 269 949 q 322 972 288 972 l 567 972 q 621 949 600 972 m 549 163 l 597 212 q 606 236 606 222 l 606 736 q 597 760 606 749 l 549 810 q 524 819 539 819 l 367 819 q 342 810 351 819 l 293 760 q 283 736 283 750 l 283 236 q 293 212 283 222 l 342 163 q 367 153 352 153 l 524 153 q 549 163 538 153 z "},"p":{"ha":888,"x_min":131,"x_max":758,"o":"m 283 330 l 283 72 q 261 19 283 40 q 207 -3 239 -3 q 153 19 175 -3 q 131 72 131 40 l 131 896 q 153 950 131 928 q 207 972 175 972 l 567 972 q 621 949 600 972 l 737 835 q 758 782 758 814 l 758 570 q 737 515 758 540 l 621 401 q 567 378 600 378 l 329 378 q 296 364 309 378 q 283 330 283 351 m 329 530 l 524 530 q 549 541 538 530 l 597 590 q 606 612 606 600 l 606 737 q 597 760 606 749 l 549 810 q 524 819 539 819 l 329 819 q 296 806 309 819 q 283 772 283 792 l 283 578 q 296 544 283 557 q 329 530 309 530 z "},"q":{"ha":888,"x_min":131,"x_max":758,"o":"m 524 0 l 322 0 q 269 24 288 0 l 153 138 q 131 192 131 159 l 131 782 q 153 835 131 813 l 269 949 q 322 972 288 972 l 568 972 q 621 949 600 972 l 737 835 q 758 782 758 814 l 758 192 q 737 138 758 159 l 708 111 q 696 77 696 99 q 708 41 696 56 l 737 16 q 758 -39 758 -3 q 737 -92 758 -71 q 684 -113 715 -113 q 628 -92 649 -113 l 549 -9 q 524 0 537 0 m 549 163 l 597 212 q 606 236 606 220 l 606 736 q 597 760 606 751 l 549 810 q 524 819 539 819 l 367 819 q 342 810 351 819 l 293 760 q 283 736 283 750 l 283 236 q 293 212 283 222 l 342 163 q 367 153 352 153 l 524 153 q 549 163 538 153 z "},"r":{"ha":888,"x_min":131,"x_max":758,"o":"m 496 378 l 329 378 q 296 364 309 378 q 283 330 283 351 l 283 72 q 261 19 283 40 q 207 -3 239 -3 q 153 19 175 -3 q 131 72 131 40 l 131 896 q 153 950 131 928 q 207 972 175 972 l 542 972 q 595 949 571 972 l 737 806 q 758 753 758 785 l 758 597 q 736 545 758 567 l 681 489 q 667 456 667 475 q 682 419 667 435 l 737 366 q 758 313 758 345 l 758 72 q 737 19 758 40 q 684 -3 715 -3 q 628 19 651 -3 q 606 72 606 40 l 606 267 q 597 290 606 282 l 519 368 q 496 378 510 378 m 519 541 l 597 616 q 606 642 606 625 l 606 708 q 597 733 606 725 l 519 810 q 496 819 510 819 l 329 819 q 296 806 309 819 q 283 772 283 792 l 283 578 q 296 544 283 557 q 329 530 309 530 l 496 530 q 519 541 509 530 z "},"s":{"ha":888,"x_min":131,"x_max":758,"o":"m 606 721 l 606 737 q 597 760 606 751 l 547 810 q 525 819 538 819 l 366 819 q 343 810 353 819 l 293 760 q 283 737 283 750 l 283 644 q 293 621 283 630 l 343 570 q 366 559 355 559 l 568 559 q 621 539 600 559 l 737 419 q 758 368 758 398 l 758 189 q 737 138 758 159 l 621 24 q 568 0 600 0 l 322 0 q 269 24 288 0 l 153 138 q 131 189 131 159 l 131 250 q 153 300 131 280 q 207 319 174 319 q 261 300 239 319 q 283 250 283 280 l 283 235 q 293 211 283 220 l 343 163 q 366 153 353 153 l 525 153 q 547 163 537 153 l 597 211 q 606 235 606 219 l 606 322 q 597 347 606 337 l 547 397 q 525 407 536 407 l 322 407 q 269 428 288 407 l 153 547 q 131 600 131 571 l 131 782 q 153 835 131 813 l 269 949 q 322 972 288 972 l 568 972 q 621 949 600 972 l 737 835 q 758 782 758 814 l 758 721 q 737 668 758 689 q 684 647 715 647 q 628 668 651 647 q 606 721 606 689 z "},"t":{"ha":888,"x_min":129,"x_max":760,"o":"m 521 772 l 521 72 q 499 19 521 40 q 444 -3 477 -3 q 390 19 412 -3 q 368 72 368 40 l 368 772 q 354 806 368 792 q 321 819 340 819 l 204 819 q 151 842 172 819 q 129 896 129 864 q 151 950 129 928 q 204 972 172 972 l 686 972 q 739 950 718 972 q 760 896 760 928 q 739 841 760 863 q 686 819 718 819 l 568 819 q 535 806 549 819 q 521 772 521 792 z "},"u":{"ha":888,"x_min":131,"x_max":758,"o":"m 283 900 l 283 236 q 293 212 283 222 l 342 163 q 367 153 352 153 l 524 153 q 549 163 538 153 l 597 212 q 606 236 606 220 l 606 900 q 628 954 606 932 q 684 975 651 975 q 737 954 715 975 q 758 900 758 932 l 758 191 q 737 138 758 159 l 621 24 q 567 0 600 0 l 322 0 q 269 24 288 0 l 153 138 q 131 191 131 159 l 131 900 q 153 954 131 932 q 207 975 175 975 q 261 954 239 975 q 283 900 283 932 z "},"v":{"ha":888,"x_min":131,"x_max":758,"o":"m 606 335 l 606 897 q 628 951 606 929 q 684 972 651 972 q 737 951 715 972 q 758 897 758 929 l 758 289 q 736 235 758 254 l 521 22 q 469 0 498 0 l 419 0 q 368 22 391 0 l 154 235 q 131 289 131 258 l 131 897 q 153 951 131 929 q 207 972 175 972 q 261 951 239 972 q 283 897 283 929 l 283 335 q 293 311 283 321 l 411 189 q 446 176 424 176 q 479 189 465 176 l 597 311 q 606 335 606 319 z "},"w":{"ha":888,"x_min":131,"x_max":758,"o":"m 606 240 l 606 897 q 628 951 606 929 q 684 972 651 972 q 737 951 715 972 q 758 897 758 929 l 758 195 q 737 142 758 163 l 614 22 q 562 0 591 0 q 511 22 534 0 l 444 87 l 375 22 q 325 0 353 0 q 275 22 298 0 l 153 142 q 131 195 131 163 l 131 897 q 153 951 131 929 q 207 972 175 972 q 261 951 239 972 q 283 897 283 929 l 283 240 q 296 212 283 224 q 325 200 309 200 q 354 212 342 200 q 367 240 367 224 l 367 486 q 389 539 367 518 q 444 559 410 559 q 498 539 477 559 q 519 486 519 518 l 519 240 q 533 212 519 224 q 562 200 546 200 q 592 212 579 200 q 606 240 606 224 z "},"x":{"ha":888,"x_min":131,"x_max":758,"o":"m 606 746 l 606 897 q 628 951 606 929 q 684 972 651 972 q 737 951 715 972 q 758 897 758 929 l 758 699 q 736 647 758 665 l 607 519 q 593 486 593 503 q 607 453 593 469 l 736 325 q 758 273 758 307 l 758 75 q 737 22 758 43 q 684 0 715 0 q 628 22 651 0 q 606 75 606 43 l 606 227 q 597 252 606 243 l 479 371 q 444 386 465 386 q 411 371 426 386 l 293 252 q 283 227 283 242 l 283 75 q 261 22 283 43 q 207 0 239 0 q 153 22 175 0 q 131 75 131 43 l 131 273 q 154 325 131 307 l 282 453 q 297 486 297 468 q 282 519 297 505 l 154 647 q 131 699 131 665 l 131 897 q 153 951 131 929 q 207 972 175 972 q 261 951 239 972 q 283 897 283 929 l 283 746 q 293 721 283 730 l 411 602 q 444 586 427 586 q 479 602 464 586 l 597 721 q 606 746 606 729 z "},"y":{"ha":888,"x_min":131,"x_max":758,"o":"m 358 410 l 154 615 q 131 669 131 638 l 131 897 q 153 951 131 929 q 207 972 175 972 q 261 951 239 972 q 283 897 283 929 l 283 715 q 293 692 283 701 l 410 570 q 443 557 422 557 q 478 570 463 557 l 597 692 q 606 715 606 700 l 606 897 q 628 951 606 929 q 684 972 651 972 q 737 951 715 972 q 758 897 758 929 l 758 669 q 736 615 758 635 l 529 410 q 519 385 519 400 l 519 75 q 498 21 519 43 q 443 0 476 0 q 389 22 411 0 q 367 75 367 43 l 367 385 q 358 410 367 401 z "},"z":{"ha":888,"x_min":131,"x_max":758,"o":"m 153 301 l 600 743 q 608 768 608 751 l 608 772 q 594 806 608 792 q 561 819 581 819 l 205 819 q 152 841 174 819 q 131 896 131 863 q 152 950 131 928 q 205 972 174 972 l 685 972 q 738 950 717 972 q 758 896 758 928 l 758 724 q 737 671 758 690 l 290 229 q 281 204 281 220 l 281 200 q 294 166 281 180 q 328 153 308 153 l 685 153 q 738 131 717 153 q 758 77 758 109 q 738 22 758 44 q 685 0 717 0 l 205 0 q 152 22 174 0 q 131 77 131 44 l 131 249 q 153 301 131 279 z "},"{":{"ha":888,"x_min":212,"x_max":676,"o":"m 397 481 l 454 424 q 475 371 475 404 l 475 172 q 485 147 475 157 l 534 97 q 559 87 544 87 l 603 87 q 655 66 635 87 q 676 14 676 45 q 655 -41 676 -19 q 603 -62 635 -62 l 514 -62 q 461 -40 484 -62 l 347 74 q 326 126 326 95 l 326 325 q 317 350 326 340 l 235 432 q 212 485 212 454 q 235 538 212 515 l 317 619 q 326 644 326 629 l 326 844 q 347 897 326 876 l 461 1010 q 514 1032 481 1032 l 603 1032 q 655 1011 635 1032 q 676 958 676 990 q 655 905 676 926 q 603 884 635 884 l 559 884 q 534 873 545 884 l 485 823 q 475 799 475 813 l 475 599 q 454 546 475 566 l 397 489 q 395 485 395 486 q 397 481 395 484 z "},"|":{"ha":888,"x_min":370,"x_max":519,"o":"m 370 -25 l 370 997 q 391 1050 370 1029 q 444 1072 412 1072 q 498 1050 476 1072 q 519 997 519 1029 l 519 -25 q 498 -78 519 -57 q 444 -100 476 -100 q 391 -78 412 -100 q 370 -25 370 -57 z "},"}":{"ha":888,"x_min":212,"x_max":676,"o":"m 435 424 l 492 481 q 494 485 494 484 q 492 489 494 486 l 435 546 q 414 599 414 567 l 414 799 q 404 823 414 814 l 354 873 q 329 884 344 884 l 286 884 q 233 905 254 884 q 212 958 212 926 q 233 1011 212 990 q 286 1032 254 1032 l 375 1032 q 428 1010 408 1032 l 542 897 q 562 844 562 877 l 562 644 q 572 619 562 629 l 654 538 q 676 485 676 516 q 654 432 676 454 l 572 350 q 562 325 562 340 l 562 126 q 542 74 562 94 l 428 -40 q 375 -62 406 -62 l 286 -62 q 233 -41 254 -62 q 212 14 212 -19 q 233 66 212 45 q 286 87 254 87 l 329 87 q 354 97 345 87 l 404 147 q 414 172 414 157 l 414 371 q 435 424 414 403 z "},"~":{"ha":888,"x_min":146,"x_max":745,"o":"m 313 514 l 296 497 l 296 424 q 274 370 296 392 q 220 349 252 349 q 169 371 191 349 q 146 424 146 393 l 146 532 q 167 579 146 553 l 231 644 q 278 664 250 664 l 385 664 q 433 644 414 664 l 500 579 q 518 532 518 561 l 518 473 l 538 457 l 578 457 l 595 473 l 595 550 q 616 603 595 580 q 669 625 638 625 q 722 602 699 625 q 745 550 745 579 l 745 441 q 726 395 745 413 l 660 329 q 611 310 643 310 l 504 310 q 454 329 473 310 l 389 395 q 368 441 368 415 l 368 497 l 353 514 l 313 514 z "},"":{"ha":888,"x_min":343,"x_max":546,"o":"m 416 972 l 471 972 q 524 951 503 972 q 546 897 546 929 l 546 843 q 525 790 546 811 q 471 770 503 770 l 416 770 q 364 790 385 770 q 343 843 343 811 l 343 897 q 364 951 343 930 q 416 972 385 972 m 519 628 l 519 75 q 498 22 519 43 q 444 0 476 0 q 391 22 412 0 q 370 75 370 43 l 370 628 q 391 681 370 660 q 444 701 412 701 q 498 681 477 701 q 519 628 519 660 z "},"":{"ha":888,"x_min":131,"x_max":758,"o":"m 600 734 l 533 800 q 525 804 529 804 q 518 793 518 804 l 518 178 q 524 167 518 167 q 533 172 528 167 l 600 237 q 608 262 608 245 l 608 302 q 631 356 608 334 q 685 378 653 378 q 738 356 717 378 q 758 302 758 335 l 758 216 q 736 164 758 186 l 596 22 q 543 0 574 0 l 525 0 q 518 -7 518 0 l 518 -25 q 496 -78 518 -57 q 443 -100 475 -100 q 390 -78 411 -100 q 368 -25 368 -57 l 368 -7 q 363 0 368 0 l 347 0 q 293 24 317 0 l 153 164 q 131 216 131 186 l 131 755 q 153 808 131 787 l 293 949 q 347 972 317 972 l 363 972 q 368 979 368 972 l 368 997 q 390 1050 368 1029 q 443 1072 411 1072 q 496 1050 475 1072 q 518 997 518 1029 l 518 979 q 525 972 518 972 l 543 972 q 596 950 574 972 l 736 808 q 758 755 758 786 l 758 669 q 738 616 758 637 q 685 595 717 595 q 630 616 652 595 q 608 669 608 637 l 608 710 q 600 734 608 724 m 368 180 l 368 791 q 363 803 368 803 q 353 798 358 803 l 290 734 q 281 710 281 725 l 281 262 q 290 237 281 247 l 353 175 q 363 170 358 170 q 368 180 368 170 z "},"":{"ha":888,"x_min":131,"x_max":758,"o":"m 608 722 l 608 739 q 599 764 608 748 l 551 811 q 525 822 538 822 l 488 822 q 461 811 475 822 l 414 764 q 404 739 404 748 l 404 538 q 411 530 404 530 l 623 530 q 676 510 654 530 q 697 457 697 489 q 676 402 697 425 q 623 380 654 380 l 411 380 q 404 374 404 380 l 404 157 q 411 150 404 150 l 685 150 q 738 129 717 150 q 758 75 758 107 q 738 21 758 43 q 685 0 717 0 l 205 0 q 152 22 174 0 q 131 75 131 43 q 152 129 131 107 q 205 150 174 150 l 248 150 q 254 157 254 150 l 254 374 q 248 380 254 380 l 205 380 q 152 402 174 380 q 131 457 131 425 q 152 510 131 489 q 205 530 174 530 l 248 530 q 254 538 254 530 l 254 785 q 275 838 254 817 l 389 949 q 441 972 409 972 l 571 972 q 624 949 604 972 l 737 838 q 758 785 758 817 l 758 722 q 738 669 758 690 q 685 648 717 648 q 630 669 652 648 q 608 722 608 690 z "},"":{"ha":888,"x_min":121,"x_max":768,"o":"m 179 624 q 183 635 183 630 q 179 644 183 640 l 142 682 q 121 736 121 703 q 142 789 121 768 q 195 810 163 810 q 249 789 228 810 l 286 751 q 297 747 290 747 q 307 750 299 747 q 353 766 334 766 l 536 766 q 582 750 560 766 q 591 747 590 747 q 603 751 599 747 l 640 789 q 694 810 661 810 q 747 789 726 810 q 768 736 768 768 q 746 682 768 705 l 707 643 q 703 633 703 639 q 707 624 703 628 q 725 578 725 606 l 725 395 q 707 347 725 366 q 703 338 703 343 q 707 328 703 332 l 746 289 q 768 236 768 267 q 747 183 768 204 q 694 163 726 163 q 640 183 661 163 l 603 221 q 591 225 599 225 q 582 222 590 225 q 536 205 559 205 l 353 205 q 307 222 332 205 q 297 227 303 227 q 286 221 292 227 l 249 183 q 195 163 229 163 q 142 183 163 163 q 121 236 121 204 q 142 290 121 269 l 179 328 q 184 339 184 333 q 180 349 184 345 q 164 395 164 375 l 164 578 q 179 624 164 600 m 575 440 l 575 532 q 564 557 575 545 l 515 606 q 490 616 502 616 l 399 616 q 372 606 386 616 l 323 557 q 314 532 314 544 l 314 440 q 323 415 314 428 l 372 367 q 399 355 387 355 l 490 355 q 515 367 501 355 l 564 415 q 575 440 575 427 z "},"":{"ha":888,"x_min":131,"x_max":758,"o":"m 359 522 l 154 728 q 131 782 131 751 l 131 897 q 152 951 131 929 q 205 972 174 972 q 259 951 237 972 q 281 897 281 929 l 281 828 q 290 803 281 812 l 411 682 q 444 668 425 668 q 479 682 463 668 l 600 803 q 608 828 608 811 l 608 897 q 631 951 608 929 q 685 972 653 972 q 738 951 717 972 q 758 897 758 930 l 758 782 q 736 728 758 750 l 530 522 q 528 517 528 519 q 538 510 528 510 l 627 510 q 679 489 659 510 q 700 436 700 468 q 679 382 700 404 q 627 361 659 361 l 526 361 q 519 354 519 361 l 519 334 q 526 326 519 326 l 627 326 q 679 306 659 326 q 700 253 700 285 q 679 199 700 220 q 627 178 659 178 l 526 178 q 519 171 519 178 l 519 75 q 498 22 519 43 q 444 0 476 0 q 391 22 412 0 q 370 75 370 43 l 370 171 q 364 178 370 178 l 262 178 q 209 199 231 178 q 187 253 187 221 q 209 306 187 285 q 262 326 230 326 l 364 326 q 370 334 370 326 l 370 354 q 364 361 370 361 l 262 361 q 209 382 231 361 q 187 436 187 404 q 209 489 187 468 q 262 510 231 510 l 353 510 q 363 517 363 510 q 359 522 363 519 z "},"":{"ha":888,"x_min":370,"x_max":519,"o":"m 370 610 l 370 997 q 391 1050 370 1029 q 444 1072 412 1072 q 498 1050 476 1072 q 519 997 519 1029 l 519 610 q 498 557 519 578 q 444 536 477 536 q 391 557 412 536 q 370 610 370 578 m 370 -25 l 370 363 q 391 415 370 395 q 444 436 412 436 q 498 415 477 436 q 519 363 519 395 l 519 -25 q 498 -78 519 -57 q 444 -100 476 -100 q 391 -78 412 -100 q 370 -25 370 -57 z "},"":{"ha":888,"x_min":131,"x_max":758,"o":"m 608 835 l 608 851 q 600 876 608 868 l 550 926 q 525 935 542 935 l 366 935 q 340 926 349 935 l 290 876 q 281 851 281 867 l 281 819 q 290 794 281 804 l 340 745 q 366 734 353 734 l 571 734 q 624 713 602 734 l 737 600 q 758 547 758 579 l 758 424 q 737 371 758 392 l 676 313 l 737 250 q 758 197 758 226 l 758 75 q 737 22 758 43 l 624 -90 q 571 -113 602 -113 l 319 -113 q 267 -90 284 -113 l 153 22 q 131 75 131 44 l 131 136 q 152 189 131 168 q 205 210 174 210 q 259 189 238 210 q 281 136 281 168 l 281 121 q 290 96 281 105 l 340 46 q 366 37 349 37 l 525 37 q 550 46 541 37 l 600 96 q 608 121 608 104 l 608 151 q 600 176 608 168 l 550 227 q 525 236 538 236 l 319 236 q 267 258 295 236 l 153 371 q 131 424 131 393 l 131 547 q 153 600 131 578 l 212 659 l 153 721 q 131 774 131 743 l 131 897 q 153 950 131 928 l 267 1063 q 319 1084 283 1084 l 571 1084 q 624 1063 602 1084 l 737 950 q 758 897 758 929 l 758 835 q 738 781 758 802 q 685 760 717 760 q 631 781 653 760 q 608 835 608 803 m 290 446 l 340 396 q 366 386 351 386 l 525 386 q 550 396 540 386 l 600 446 q 608 469 608 454 l 608 500 q 600 524 608 513 l 550 575 q 525 585 538 585 l 366 585 q 340 575 350 585 l 290 525 q 281 501 281 515 l 281 469 q 290 446 281 455 z "},"":{"ha":888,"x_min":239,"x_max":652,"o":"m 576 1107 l 550 1107 q 496 1128 518 1107 q 475 1181 475 1149 l 475 1208 q 496 1261 475 1240 q 550 1282 517 1282 l 576 1282 q 630 1261 609 1282 q 652 1208 652 1240 l 652 1181 q 630 1128 652 1149 q 576 1107 608 1107 m 340 1107 l 314 1107 q 260 1128 282 1107 q 239 1181 239 1149 l 239 1208 q 260 1261 239 1240 q 314 1282 281 1282 l 340 1282 q 394 1261 372 1282 q 415 1208 415 1240 l 415 1181 q 394 1128 415 1149 q 340 1107 372 1107 z "},"":{"ha":888,"x_min":131,"x_max":758,"o":"m 644 838 l 745 736 q 758 700 758 720 l 758 273 q 745 236 758 254 l 644 138 q 607 122 629 122 l 282 122 q 245 138 261 122 l 144 236 q 131 273 131 254 l 131 700 q 146 736 131 721 l 245 838 q 282 851 257 851 l 607 851 q 644 838 633 851 m 597 237 l 643 283 q 653 310 653 297 l 653 664 q 643 690 653 678 l 597 736 q 571 746 585 746 l 319 746 q 293 736 307 746 l 248 690 q 236 664 236 675 l 236 310 q 248 283 236 299 l 293 237 q 319 227 307 227 l 571 227 q 597 237 583 227 m 514 425 l 514 424 q 532 456 517 444 q 567 468 547 468 q 605 453 591 468 q 619 415 619 439 l 619 386 q 604 349 619 366 l 530 277 q 494 261 515 261 l 396 261 q 358 275 378 261 l 286 349 q 271 386 271 364 l 271 589 q 286 625 271 610 l 358 697 q 396 713 374 713 l 494 713 q 530 699 516 713 l 603 625 q 619 589 619 611 l 619 558 q 605 522 619 536 q 567 507 591 507 q 532 519 547 507 q 514 551 517 531 l 514 550 q 504 576 505 576 l 484 599 q 458 607 473 607 l 432 607 q 407 599 417 607 l 386 576 q 375 553 375 563 l 375 422 q 386 397 375 411 l 407 376 q 432 367 418 367 l 458 367 q 484 376 472 367 l 504 397 q 507 404 506 400 q 511 415 509 408 q 514 425 513 421 z "},"":{"ha":888,"x_min":132,"x_max":757,"o":"m 154 541 l 357 743 q 407 762 376 762 q 462 741 438 762 q 486 688 486 719 q 464 636 486 659 l 347 519 q 330 486 330 503 q 349 452 330 470 l 461 339 q 482 286 482 318 q 462 232 482 254 q 410 211 441 211 q 355 232 376 211 l 154 432 q 132 486 132 451 q 154 541 132 519 m 425 541 l 628 743 q 677 762 647 762 q 733 741 709 762 q 757 688 757 719 q 736 636 757 655 l 618 519 q 603 486 603 505 q 619 452 603 466 l 733 339 q 753 286 753 319 q 733 232 753 254 q 681 211 713 211 q 627 232 651 211 l 425 432 q 404 486 404 453 q 425 541 404 519 z "},"":{"ha":888,"x_min":131,"x_max":758,"o":"m 647 838 l 745 736 q 758 700 758 720 l 758 273 q 745 236 758 254 l 647 138 q 610 122 631 122 l 282 122 q 244 138 264 122 l 144 236 q 131 273 131 254 l 131 700 q 146 736 131 721 l 244 838 q 282 851 258 851 l 610 851 q 647 838 635 851 m 599 237 l 646 283 q 656 310 656 297 l 656 664 q 646 690 656 678 l 599 736 q 572 746 587 746 l 319 746 q 293 736 307 746 l 245 690 q 233 664 233 674 l 233 310 q 245 283 233 300 l 293 237 q 319 227 307 227 l 572 227 q 599 237 585 227 m 440 414 l 400 414 q 381 406 389 414 q 374 387 374 399 l 374 314 q 360 276 374 290 q 322 261 346 261 q 285 276 300 261 q 271 314 271 290 l 271 660 q 285 698 271 684 q 322 713 300 713 l 494 713 q 533 697 519 713 l 604 625 q 623 589 623 607 l 623 557 q 604 518 623 536 l 571 485 q 562 465 562 476 q 571 450 562 457 l 604 414 q 623 376 623 395 l 623 314 q 607 276 623 290 q 568 261 592 261 q 531 276 546 261 q 515 314 515 290 l 515 340 q 504 366 515 354 l 465 404 q 440 414 456 414 m 374 602 l 374 545 q 381 526 374 533 q 400 518 389 518 l 440 518 q 465 529 454 518 l 504 567 q 507 572 507 570 q 504 576 507 573 l 484 599 q 458 607 473 607 l 380 607 q 374 602 374 607 z "},"":{"ha":888,"x_min":243,"x_max":647,"o":"m 572 1107 l 318 1107 q 264 1128 286 1107 q 243 1181 243 1149 q 264 1235 243 1213 q 318 1257 286 1257 l 572 1257 q 626 1235 604 1257 q 647 1181 647 1213 q 626 1128 647 1149 q 572 1107 604 1107 z "},"":{"ha":888,"x_min":256,"x_max":636,"o":"m 256 732 l 256 831 q 272 871 256 850 l 355 954 q 397 972 374 972 l 494 972 q 538 954 522 972 l 536 954 l 618 871 q 636 831 636 854 l 636 732 q 618 692 636 708 l 536 608 q 494 591 517 591 l 397 591 q 355 607 376 591 l 273 692 q 256 732 256 707 m 415 831 l 397 812 q 386 782 386 801 q 397 750 386 762 l 415 733 q 446 722 424 722 q 476 733 465 722 l 494 750 q 505 782 505 761 q 494 812 505 802 l 476 831 q 446 840 467 840 q 415 831 422 840 z "},"":{"ha":888,"x_min":158,"x_max":732,"o":"m 567 558 l 627 558 q 679 537 659 558 q 700 485 700 517 q 679 431 700 452 q 627 410 659 410 l 567 410 q 533 396 547 410 q 519 363 519 382 l 519 301 q 498 248 519 269 q 444 227 476 227 q 391 248 412 227 q 370 301 370 269 l 370 363 q 356 396 370 382 q 322 410 342 410 l 262 410 q 209 431 231 410 q 187 485 187 453 q 209 537 187 517 q 262 558 230 558 l 322 558 q 356 572 342 558 q 370 606 370 586 l 370 667 q 391 720 370 699 q 444 742 412 742 q 498 720 476 742 q 519 667 519 699 l 519 606 q 533 572 519 586 q 567 558 547 558 m 232 150 l 657 150 q 710 129 689 150 q 732 77 732 109 q 710 22 732 44 q 657 0 689 0 l 232 0 q 179 22 200 0 q 158 77 158 44 q 179 129 158 109 q 232 150 200 150 z "},"":{"ha":888,"x_min":315,"x_max":575,"o":"m 553 1225 l 443 1116 q 390 1093 420 1093 q 337 1115 358 1093 q 315 1168 315 1136 q 338 1219 315 1200 l 447 1331 q 500 1353 469 1353 q 553 1331 532 1353 q 575 1278 575 1310 q 553 1225 575 1247 z "},"":{"ha":888,"x_min":131,"x_max":758,"o":"m 608 75 l 608 815 q 603 822 608 822 l 549 822 q 542 815 542 822 l 542 75 q 520 22 542 43 q 467 0 498 0 q 413 22 435 0 q 392 75 392 43 l 392 334 q 378 367 392 353 q 343 380 363 380 l 319 380 q 267 404 290 380 l 153 517 q 131 570 131 538 l 131 785 q 153 838 131 816 l 267 949 q 319 972 285 972 l 685 972 q 738 951 717 972 q 758 897 758 930 l 758 75 q 738 21 758 43 q 685 0 717 0 q 631 22 653 0 q 608 75 608 43 z "},"":{"ha":888,"x_min":336,"x_max":553,"o":"m 478 378 l 411 378 q 358 399 379 378 q 336 453 336 421 l 336 519 q 358 573 336 551 q 411 595 379 595 l 478 595 q 531 573 510 595 q 553 519 553 551 l 553 453 q 531 399 553 421 q 478 378 510 378 z "},"":{"ha":888,"x_min":314,"x_max":608,"o":"m 387 -45 l 387 68 q 405 108 387 92 q 446 125 422 125 q 486 108 469 125 q 503 68 503 92 l 503 -8 q 513 -33 503 -16 l 596 -113 q 608 -150 608 -129 l 608 -232 q 595 -268 608 -254 l 522 -339 q 486 -354 507 -354 l 404 -354 q 368 -339 381 -354 l 330 -301 q 314 -261 314 -285 q 331 -221 314 -237 q 371 -204 347 -204 q 412 -221 395 -204 l 419 -229 q 446 -240 433 -240 q 471 -229 457 -240 l 484 -216 q 494 -192 494 -203 q 484 -165 494 -179 l 407 -89 q 387 -45 387 -72 z "},"":{"ha":888,"x_min":132,"x_max":757,"o":"m 533 743 l 736 541 q 757 486 757 519 q 736 432 757 458 l 534 232 q 481 211 510 211 q 429 232 449 211 q 408 286 408 254 q 428 339 408 319 l 542 452 q 558 486 558 466 q 543 519 558 505 l 425 636 q 404 688 404 655 q 428 741 404 719 q 484 762 452 762 q 533 743 514 762 m 262 743 l 464 541 q 486 486 486 518 q 464 432 486 456 l 264 232 q 210 211 243 211 q 157 232 178 211 q 136 286 136 254 q 157 339 136 319 l 271 452 q 288 486 288 469 q 272 519 288 504 l 154 636 q 132 688 132 658 q 157 741 132 719 q 212 762 181 762 q 262 743 248 762 z "},"":{"ha":888,"x_min":131,"x_max":758,"o":"m 418 972 l 472 972 q 526 951 504 972 q 547 897 547 929 l 547 843 q 526 790 547 811 q 472 770 505 770 l 418 770 q 365 790 386 770 q 345 843 345 811 l 345 897 q 365 951 345 930 q 418 972 386 972 m 131 187 l 131 275 q 153 328 131 306 l 361 536 q 370 559 370 545 l 370 628 q 391 681 370 660 q 444 701 412 701 q 498 681 477 701 q 519 628 519 660 l 519 514 q 498 463 519 484 l 290 254 q 281 229 281 245 q 288 212 281 219 l 340 160 q 366 150 351 150 l 525 150 q 550 160 540 150 l 600 210 q 608 233 608 218 l 608 250 q 630 303 608 282 q 685 323 652 323 q 738 303 717 323 q 758 250 758 282 l 758 187 q 737 135 758 156 l 624 24 q 571 0 604 0 l 319 0 q 267 24 285 0 l 153 135 q 131 187 131 154 z "},"":{"ha":888,"x_min":131,"x_max":758,"o":"m 446 1116 l 335 1225 q 314 1278 314 1246 q 335 1332 314 1310 q 387 1353 355 1353 q 441 1331 419 1353 l 551 1219 q 574 1168 574 1197 q 552 1115 574 1136 q 498 1093 530 1093 q 446 1116 468 1093 m 758 753 l 758 75 q 737 22 758 43 q 684 0 715 0 q 628 22 651 0 q 606 75 606 43 l 606 332 q 592 365 606 351 q 559 379 579 379 l 329 379 q 296 366 309 379 q 283 332 283 352 l 283 75 q 261 22 283 43 q 207 0 239 0 q 153 22 175 0 q 131 75 131 43 l 131 753 q 153 806 131 784 l 297 949 q 349 972 317 972 l 542 972 q 593 950 570 972 l 736 806 q 758 753 758 783 m 606 579 l 606 710 q 597 733 606 725 l 519 810 q 496 819 510 819 l 395 819 q 370 810 379 819 l 293 733 q 283 710 283 724 l 283 579 q 296 545 283 559 q 329 532 309 532 l 559 532 q 592 546 579 532 q 606 579 606 559 z "},"":{"ha":888,"x_min":131,"x_max":758,"o":"m 551 1225 l 441 1116 q 389 1093 419 1093 q 335 1115 357 1093 q 314 1168 314 1136 q 336 1219 314 1200 l 446 1331 q 498 1353 468 1353 q 552 1331 530 1353 q 574 1278 574 1310 q 551 1225 574 1247 m 758 753 l 758 75 q 737 22 758 43 q 684 0 715 0 q 628 22 651 0 q 606 75 606 43 l 606 332 q 592 365 606 351 q 559 379 579 379 l 329 379 q 296 366 309 379 q 283 332 283 352 l 283 75 q 261 22 283 43 q 207 0 239 0 q 153 22 175 0 q 131 75 131 43 l 131 753 q 153 806 131 784 l 297 949 q 349 972 317 972 l 542 972 q 593 950 570 972 l 736 806 q 758 753 758 783 m 606 579 l 606 710 q 597 733 606 725 l 519 810 q 496 819 510 819 l 395 819 q 370 810 379 819 l 293 733 q 283 710 283 724 l 283 579 q 296 545 283 559 q 329 532 309 532 l 559 532 q 592 546 579 532 q 606 579 606 559 z "},"":{"ha":888,"x_min":131,"x_max":758,"o":"m 414 1161 l 364 1112 q 317 1093 351 1093 q 270 1113 289 1093 q 250 1160 250 1132 q 269 1208 250 1184 l 396 1332 q 443 1353 415 1353 q 490 1332 469 1353 l 615 1208 q 635 1160 635 1189 q 616 1112 635 1131 q 568 1093 597 1093 q 519 1112 538 1093 l 471 1161 q 443 1173 459 1173 q 414 1161 425 1173 m 758 753 l 758 75 q 737 22 758 43 q 684 0 715 0 q 628 22 651 0 q 606 75 606 43 l 606 332 q 592 365 606 351 q 559 379 579 379 l 329 379 q 296 366 309 379 q 283 332 283 352 l 283 75 q 261 22 283 43 q 207 0 239 0 q 153 22 175 0 q 131 75 131 43 l 131 753 q 153 806 131 784 l 297 949 q 349 972 317 972 l 542 972 q 593 950 570 972 l 736 806 q 758 753 758 783 m 606 579 l 606 710 q 597 733 606 725 l 519 810 q 496 819 510 819 l 395 819 q 370 810 379 819 l 293 733 q 283 710 283 724 l 283 579 q 296 545 283 559 q 329 532 309 532 l 559 532 q 592 546 579 532 q 606 579 606 559 z "},"":{"ha":888,"x_min":131,"x_max":758,"o":"m 355 1242 l 343 1227 l 343 1190 q 325 1144 343 1162 q 278 1125 306 1125 q 233 1144 252 1125 q 215 1190 215 1162 l 215 1258 q 232 1299 215 1280 l 286 1353 q 326 1369 304 1369 l 395 1369 q 436 1353 418 1369 l 492 1299 q 507 1258 507 1278 l 507 1234 l 519 1221 l 530 1221 l 543 1234 l 543 1272 q 561 1318 543 1300 q 607 1336 579 1336 q 653 1318 635 1336 q 671 1272 671 1300 l 671 1206 q 654 1165 671 1179 l 600 1111 q 558 1093 587 1093 l 492 1093 q 450 1111 464 1093 l 396 1165 q 379 1206 379 1180 l 379 1227 l 366 1242 l 355 1242 m 758 753 l 758 75 q 737 22 758 43 q 684 0 715 0 q 628 22 651 0 q 606 75 606 43 l 606 332 q 592 365 606 351 q 559 379 579 379 l 329 379 q 296 366 309 379 q 283 332 283 352 l 283 75 q 261 22 283 43 q 207 0 239 0 q 153 22 175 0 q 131 75 131 43 l 131 753 q 153 806 131 784 l 297 949 q 349 972 317 972 l 542 972 q 593 950 570 972 l 736 806 q 758 753 758 783 m 606 579 l 606 710 q 597 733 606 725 l 519 810 q 496 819 510 819 l 395 819 q 370 810 379 819 l 293 733 q 283 710 283 724 l 283 579 q 296 545 283 559 q 329 532 309 532 l 559 532 q 592 546 579 532 q 606 579 606 559 z "},"":{"ha":888,"x_min":131,"x_max":758,"o":"m 575 1107 l 549 1107 q 495 1128 517 1107 q 473 1181 473 1149 l 473 1208 q 495 1261 473 1240 q 549 1282 516 1282 l 575 1282 q 628 1261 607 1282 q 650 1208 650 1240 l 650 1181 q 628 1128 650 1149 q 575 1107 607 1107 m 339 1107 l 313 1107 q 259 1128 281 1107 q 237 1181 237 1149 l 237 1208 q 259 1261 237 1240 q 313 1282 280 1282 l 339 1282 q 392 1261 371 1282 q 414 1208 414 1240 l 414 1181 q 392 1128 414 1149 q 339 1107 371 1107 m 758 753 l 758 75 q 737 22 758 43 q 684 0 715 0 q 628 22 651 0 q 606 75 606 43 l 606 332 q 592 365 606 351 q 559 379 579 379 l 329 379 q 296 366 309 379 q 283 332 283 352 l 283 75 q 261 22 283 43 q 207 0 239 0 q 153 22 175 0 q 131 75 131 43 l 131 753 q 153 806 131 784 l 297 949 q 349 972 317 972 l 542 972 q 593 950 570 972 l 736 806 q 758 753 758 783 m 606 579 l 606 710 q 597 733 606 725 l 519 810 q 496 819 510 819 l 395 819 q 370 810 379 819 l 293 733 q 283 710 283 724 l 283 579 q 296 545 283 559 q 329 532 309 532 l 559 532 q 592 546 579 532 q 606 579 606 559 z "},"":{"ha":888,"x_min":131,"x_max":758,"o":"m 281 1161 l 281 1243 q 296 1279 281 1264 l 367 1353 q 404 1365 384 1365 l 485 1365 q 522 1352 507 1365 l 593 1279 q 607 1243 607 1265 l 607 1161 q 593 1124 607 1138 l 522 1054 q 485 1039 507 1039 l 404 1039 q 367 1053 382 1039 l 294 1124 q 281 1161 281 1141 m 418 1242 l 404 1226 q 395 1203 395 1217 q 404 1178 395 1187 l 418 1164 q 443 1154 427 1154 q 467 1164 457 1154 l 482 1178 q 492 1203 492 1187 q 482 1226 492 1217 l 467 1242 q 443 1251 457 1251 q 418 1242 427 1251 m 758 753 l 758 75 q 737 22 758 43 q 684 0 715 0 q 628 22 651 0 q 606 75 606 43 l 606 332 q 592 365 606 351 q 559 379 579 379 l 329 379 q 296 366 309 379 q 283 332 283 352 l 283 75 q 261 22 283 43 q 207 0 239 0 q 153 22 175 0 q 131 75 131 43 l 131 753 q 153 806 131 784 l 297 949 q 349 972 317 972 l 542 972 q 593 950 570 972 l 736 806 q 758 753 758 783 m 606 579 l 606 710 q 597 733 606 725 l 519 810 q 496 819 510 819 l 395 819 q 370 810 379 819 l 293 733 q 283 710 283 724 l 283 579 q 296 545 283 559 q 329 532 309 532 l 559 532 q 592 546 579 532 q 606 579 606 559 z "},"":{"ha":888,"x_min":103,"x_max":785,"o":"m 368 75 l 368 374 q 363 380 368 380 l 300 380 q 267 367 280 380 q 253 334 253 353 l 253 75 q 231 22 253 43 q 176 0 208 0 q 124 21 144 0 q 103 75 103 43 l 103 755 q 125 808 103 787 l 267 949 q 318 972 285 972 l 710 972 q 763 951 742 972 q 785 897 785 929 q 763 844 785 865 q 710 822 742 822 l 566 822 q 532 808 546 822 q 518 775 518 795 l 518 608 q 532 574 518 589 q 566 559 546 559 l 684 559 q 736 539 715 559 q 757 486 757 518 q 736 432 757 454 q 684 411 715 411 l 566 411 q 532 397 546 411 q 518 364 518 384 l 518 197 q 532 164 518 178 q 566 150 546 150 l 710 150 q 763 129 742 150 q 785 75 785 107 q 763 22 785 43 q 710 0 742 0 l 443 0 q 390 22 411 0 q 368 75 368 43 m 368 538 l 368 817 q 363 822 368 822 q 340 812 350 822 l 264 736 q 253 710 253 722 l 253 578 q 267 544 253 558 q 300 530 280 530 l 363 530 q 368 538 368 530 z "},"":{"ha":888,"x_min":132,"x_max":760,"o":"m 282 710 l 282 262 q 292 237 282 247 l 370 160 q 395 150 380 150 l 498 150 q 522 160 512 150 l 602 237 q 610 262 610 248 l 610 302 q 632 356 610 334 q 686 378 654 378 q 739 356 718 378 q 760 302 760 335 l 760 216 q 737 164 760 186 l 597 22 q 545 0 575 0 l 504 0 l 504 -8 q 514 -33 504 -16 l 597 -113 q 610 -150 610 -129 l 610 -232 q 596 -268 610 -254 l 524 -339 q 488 -354 509 -354 l 406 -354 q 370 -339 382 -354 l 332 -301 q 315 -261 315 -285 q 332 -221 315 -237 q 372 -204 349 -204 q 414 -221 397 -204 l 421 -229 q 447 -240 435 -240 q 472 -229 458 -240 l 485 -216 q 496 -192 496 -203 q 485 -165 496 -179 l 408 -89 q 389 -45 389 -72 l 389 0 l 349 0 q 294 24 318 0 l 154 164 q 132 216 132 186 l 132 755 q 154 808 132 787 l 294 949 q 349 972 318 972 l 545 972 q 597 950 575 972 l 737 808 q 760 755 760 786 l 760 669 q 739 616 760 637 q 686 595 718 595 q 632 616 654 595 q 610 669 610 637 l 610 710 q 602 734 610 724 l 522 812 q 498 822 513 822 l 395 822 q 370 812 379 822 l 292 734 q 282 710 282 725 z "},"":{"ha":888,"x_min":131,"x_max":758,"o":"m 446 1116 l 335 1225 q 314 1278 314 1246 q 335 1332 314 1310 q 387 1353 355 1353 q 441 1331 419 1353 l 551 1219 q 574 1168 574 1197 q 552 1115 574 1136 q 498 1093 530 1093 q 446 1116 468 1093 m 131 77 l 131 896 q 153 950 131 928 q 207 972 175 972 l 685 972 q 738 950 717 972 q 758 896 758 928 q 738 841 758 863 q 685 819 717 819 l 330 819 q 297 806 311 819 q 283 772 283 792 l 283 608 q 297 574 283 588 q 330 559 311 559 l 593 559 q 647 539 625 559 q 668 486 668 518 q 646 433 668 454 q 593 411 625 411 l 330 411 q 297 397 311 411 q 283 363 283 382 l 283 200 q 297 166 283 180 q 330 153 311 153 l 685 153 q 738 131 717 153 q 758 77 758 109 q 738 22 758 44 q 685 0 717 0 l 207 0 q 153 22 175 0 q 131 77 131 45 z "},"":{"ha":888,"x_min":131,"x_max":758,"o":"m 551 1225 l 441 1116 q 389 1093 419 1093 q 335 1115 357 1093 q 314 1168 314 1136 q 336 1219 314 1200 l 446 1331 q 498 1353 468 1353 q 552 1331 530 1353 q 574 1278 574 1310 q 551 1225 574 1247 m 131 77 l 131 896 q 153 950 131 928 q 207 972 175 972 l 685 972 q 738 950 717 972 q 758 896 758 928 q 738 841 758 863 q 685 819 717 819 l 330 819 q 297 806 311 819 q 283 772 283 792 l 283 608 q 297 574 283 588 q 330 559 311 559 l 593 559 q 647 539 625 559 q 668 486 668 518 q 646 433 668 454 q 593 411 625 411 l 330 411 q 297 397 311 411 q 283 363 283 382 l 283 200 q 297 166 283 180 q 330 153 311 153 l 685 153 q 738 131 717 153 q 758 77 758 109 q 738 22 758 44 q 685 0 717 0 l 207 0 q 153 22 175 0 q 131 77 131 45 z "},"":{"ha":888,"x_min":131,"x_max":758,"o":"m 415 1161 l 366 1112 q 318 1093 353 1093 q 271 1113 290 1093 q 252 1160 252 1132 q 271 1208 252 1184 l 397 1332 q 444 1353 416 1353 q 492 1332 471 1353 l 616 1208 q 636 1160 636 1189 q 617 1112 636 1131 q 570 1093 599 1093 q 521 1112 540 1093 l 472 1161 q 444 1173 460 1173 q 415 1161 427 1173 m 131 77 l 131 896 q 153 950 131 928 q 207 972 175 972 l 685 972 q 738 950 717 972 q 758 896 758 928 q 738 841 758 863 q 685 819 717 819 l 330 819 q 297 806 311 819 q 283 772 283 792 l 283 608 q 297 574 283 588 q 330 559 311 559 l 593 559 q 647 539 625 559 q 668 486 668 518 q 646 433 668 454 q 593 411 625 411 l 330 411 q 297 397 311 411 q 283 363 283 382 l 283 200 q 297 166 283 180 q 330 153 311 153 l 685 153 q 738 131 717 153 q 758 77 758 109 q 738 22 758 44 q 685 0 717 0 l 207 0 q 153 22 175 0 q 131 77 131 45 z "},"":{"ha":888,"x_min":131,"x_max":758,"o":"m 575 1107 l 549 1107 q 495 1128 517 1107 q 473 1181 473 1149 l 473 1208 q 495 1261 473 1240 q 549 1282 516 1282 l 575 1282 q 628 1261 607 1282 q 650 1208 650 1240 l 650 1181 q 628 1128 650 1149 q 575 1107 607 1107 m 339 1107 l 313 1107 q 259 1128 281 1107 q 237 1181 237 1149 l 237 1208 q 259 1261 237 1240 q 313 1282 280 1282 l 339 1282 q 392 1261 371 1282 q 414 1208 414 1240 l 414 1181 q 392 1128 414 1149 q 339 1107 371 1107 m 131 77 l 131 896 q 153 950 131 928 q 207 972 175 972 l 685 972 q 738 950 717 972 q 758 896 758 928 q 738 841 758 863 q 685 819 717 819 l 330 819 q 297 806 311 819 q 283 772 283 792 l 283 608 q 297 574 283 588 q 330 559 311 559 l 593 559 q 647 539 625 559 q 668 486 668 518 q 646 433 668 454 q 593 411 625 411 l 330 411 q 297 397 311 411 q 283 363 283 382 l 283 200 q 297 166 283 180 q 330 153 311 153 l 685 153 q 738 131 717 153 q 758 77 758 109 q 738 22 758 44 q 685 0 717 0 l 207 0 q 153 22 175 0 q 131 77 131 45 z "},"":{"ha":888,"x_min":191,"x_max":699,"o":"m 446 1116 l 335 1225 q 314 1278 314 1246 q 335 1332 314 1310 q 387 1353 355 1353 q 441 1331 419 1353 l 551 1219 q 574 1168 574 1197 q 552 1115 574 1136 q 498 1093 530 1093 q 446 1116 468 1093 m 625 0 l 265 0 q 212 22 233 0 q 191 75 191 43 q 212 129 191 107 q 265 150 233 150 l 321 150 q 354 164 340 150 q 368 197 368 178 l 368 775 q 354 808 368 795 q 321 822 340 822 l 265 822 q 212 844 233 822 q 191 897 191 865 q 212 951 191 929 q 265 972 233 972 l 625 972 q 678 951 657 972 q 699 897 699 930 q 678 843 699 865 q 625 822 657 822 l 568 822 q 535 808 549 822 q 521 775 521 795 l 521 197 q 535 164 521 178 q 568 150 549 150 l 625 150 q 678 129 657 150 q 699 75 699 107 q 678 21 699 43 q 625 0 657 0 z "},"":{"ha":888,"x_min":191,"x_max":699,"o":"m 551 1225 l 441 1116 q 389 1093 419 1093 q 335 1115 357 1093 q 314 1168 314 1136 q 336 1219 314 1200 l 446 1331 q 498 1353 468 1353 q 552 1331 530 1353 q 574 1278 574 1310 q 551 1225 574 1247 m 625 0 l 265 0 q 212 22 233 0 q 191 75 191 43 q 212 129 191 107 q 265 150 233 150 l 321 150 q 354 164 340 150 q 368 197 368 178 l 368 775 q 354 808 368 795 q 321 822 340 822 l 265 822 q 212 844 233 822 q 191 897 191 865 q 212 951 191 929 q 265 972 233 972 l 625 972 q 678 951 657 972 q 699 897 699 930 q 678 843 699 865 q 625 822 657 822 l 568 822 q 535 808 549 822 q 521 775 521 795 l 521 197 q 535 164 521 178 q 568 150 549 150 l 625 150 q 678 129 657 150 q 699 75 699 107 q 678 21 699 43 q 625 0 657 0 z "},"":{"ha":888,"x_min":191,"x_max":699,"o":"m 415 1161 l 366 1112 q 318 1093 353 1093 q 271 1113 290 1093 q 252 1160 252 1132 q 271 1208 252 1184 l 397 1332 q 444 1353 416 1353 q 492 1332 471 1353 l 616 1208 q 636 1160 636 1189 q 617 1112 636 1131 q 570 1093 599 1093 q 521 1112 540 1093 l 472 1161 q 444 1173 460 1173 q 415 1161 427 1173 m 625 0 l 265 0 q 212 22 233 0 q 191 75 191 43 q 212 129 191 107 q 265 150 233 150 l 321 150 q 354 164 340 150 q 368 197 368 178 l 368 775 q 354 808 368 795 q 321 822 340 822 l 265 822 q 212 844 233 822 q 191 897 191 865 q 212 951 191 929 q 265 972 233 972 l 625 972 q 678 951 657 972 q 699 897 699 930 q 678 843 699 865 q 625 822 657 822 l 568 822 q 535 808 549 822 q 521 775 521 795 l 521 197 q 535 164 521 178 q 568 150 549 150 l 625 150 q 678 129 657 150 q 699 75 699 107 q 678 21 699 43 q 625 0 657 0 z "},"":{"ha":888,"x_min":193,"x_max":699,"o":"m 578 1107 l 551 1107 q 498 1128 519 1107 q 476 1181 476 1149 l 476 1208 q 497 1261 476 1240 q 551 1282 519 1282 l 578 1282 q 632 1261 610 1282 q 653 1208 653 1240 l 653 1181 q 631 1128 653 1149 q 578 1107 610 1107 m 342 1107 l 315 1107 q 262 1128 283 1107 q 240 1181 240 1149 l 240 1208 q 261 1261 240 1240 q 315 1282 283 1282 l 342 1282 q 395 1261 374 1282 q 416 1208 416 1240 l 416 1181 q 395 1128 416 1149 q 342 1107 374 1107 m 625 0 l 268 0 q 215 22 236 0 q 193 75 193 43 q 215 129 193 107 q 268 150 236 150 l 323 150 q 357 164 343 150 q 371 197 371 178 l 371 775 q 357 808 371 795 q 323 822 343 822 l 268 822 q 215 844 236 822 q 193 897 193 865 q 215 951 193 929 q 268 972 236 972 l 625 972 q 678 951 657 972 q 699 897 699 930 q 678 843 699 865 q 625 822 657 822 l 568 822 q 535 808 549 822 q 521 775 521 795 l 521 197 q 535 164 521 178 q 568 150 549 150 l 625 150 q 678 129 657 150 q 699 75 699 107 q 678 21 699 43 q 625 0 657 0 z "},"":{"ha":888,"x_min":36,"x_max":758,"o":"m 131 568 l 131 897 q 152 951 131 929 q 205 972 174 972 l 543 972 q 596 950 574 972 l 736 808 q 758 755 758 786 l 758 216 q 736 164 758 186 l 596 22 q 543 0 574 0 l 205 0 q 152 22 174 0 q 131 75 131 43 l 131 406 q 125 412 131 412 l 111 412 q 58 434 79 412 q 36 488 36 456 q 57 540 36 519 q 111 561 79 561 l 125 561 q 131 568 131 561 m 281 406 l 281 197 q 294 164 281 178 q 328 150 308 150 l 497 150 q 521 160 511 150 l 600 237 q 608 262 608 245 l 608 710 q 600 734 608 726 l 521 812 q 497 822 511 822 l 328 822 q 294 808 308 822 q 281 775 281 795 l 281 568 q 288 561 281 561 l 475 561 q 529 540 507 561 q 550 488 550 519 q 528 434 550 456 q 475 412 507 412 l 288 412 q 281 406 281 412 z "},"":{"ha":888,"x_min":131,"x_max":758,"o":"m 357 1242 l 345 1227 l 345 1190 q 326 1144 345 1162 q 279 1125 307 1125 q 235 1144 253 1125 q 216 1190 216 1162 l 216 1258 q 233 1299 216 1280 l 288 1353 q 328 1369 306 1369 l 396 1369 q 437 1353 419 1369 l 493 1299 q 509 1258 509 1278 l 509 1234 l 521 1221 l 532 1221 l 545 1234 l 545 1272 q 563 1318 545 1300 q 608 1336 581 1336 q 654 1318 636 1336 q 672 1272 672 1300 l 672 1206 q 656 1165 672 1179 l 602 1111 q 559 1093 588 1093 l 493 1093 q 452 1111 465 1093 l 397 1165 q 380 1206 380 1180 l 380 1227 l 367 1242 l 357 1242 m 275 935 l 596 374 q 603 367 601 367 q 606 376 606 367 l 606 897 q 628 951 606 929 q 684 972 651 972 q 737 951 715 972 q 758 897 758 929 l 758 75 q 737 22 758 43 q 684 0 715 0 q 615 37 641 0 l 293 603 q 286 610 291 610 q 283 600 283 610 l 283 75 q 261 22 283 43 q 207 0 239 0 q 153 22 175 0 q 131 75 131 43 l 131 897 q 153 951 131 929 q 207 972 175 972 q 247 962 228 972 q 275 935 267 951 z "},"":{"ha":888,"x_min":131,"x_max":758,"o":"m 446 1116 l 335 1225 q 314 1278 314 1246 q 335 1332 314 1310 q 387 1353 355 1353 q 441 1331 419 1353 l 551 1219 q 574 1168 574 1197 q 552 1115 574 1136 q 498 1093 530 1093 q 446 1116 468 1093 m 621 949 l 737 835 q 758 782 758 814 l 758 191 q 737 138 758 159 l 621 24 q 567 0 600 0 l 322 0 q 269 24 288 0 l 153 138 q 131 191 131 159 l 131 782 q 153 835 131 813 l 269 949 q 322 972 288 972 l 567 972 q 621 949 600 972 m 549 163 l 597 212 q 606 236 606 222 l 606 736 q 597 760 606 749 l 549 810 q 524 819 539 819 l 367 819 q 342 810 351 819 l 293 760 q 283 736 283 750 l 283 236 q 293 212 283 222 l 342 163 q 367 153 352 153 l 524 153 q 549 163 538 153 z "},"":{"ha":888,"x_min":131,"x_max":758,"o":"m 551 1225 l 441 1116 q 389 1093 419 1093 q 335 1115 357 1093 q 314 1168 314 1136 q 336 1219 314 1200 l 446 1331 q 498 1353 468 1353 q 552 1331 530 1353 q 574 1278 574 1310 q 551 1225 574 1247 m 621 949 l 737 835 q 758 782 758 814 l 758 191 q 737 138 758 159 l 621 24 q 567 0 600 0 l 322 0 q 269 24 288 0 l 153 138 q 131 191 131 159 l 131 782 q 153 835 131 813 l 269 949 q 322 972 288 972 l 567 972 q 621 949 600 972 m 549 163 l 597 212 q 606 236 606 222 l 606 736 q 597 760 606 749 l 549 810 q 524 819 539 819 l 367 819 q 342 810 351 819 l 293 760 q 283 736 283 750 l 283 236 q 293 212 283 222 l 342 163 q 367 153 352 153 l 524 153 q 549 163 538 153 z "},"":{"ha":888,"x_min":131,"x_max":758,"o":"m 415 1161 l 366 1112 q 318 1093 353 1093 q 271 1113 290 1093 q 252 1160 252 1132 q 271 1208 252 1184 l 397 1332 q 444 1353 416 1353 q 492 1332 471 1353 l 616 1208 q 636 1160 636 1189 q 617 1112 636 1131 q 570 1093 599 1093 q 521 1112 540 1093 l 472 1161 q 444 1173 460 1173 q 415 1161 427 1173 m 621 949 l 737 835 q 758 782 758 814 l 758 191 q 737 138 758 159 l 621 24 q 567 0 600 0 l 322 0 q 269 24 288 0 l 153 138 q 131 191 131 159 l 131 782 q 153 835 131 813 l 269 949 q 322 972 288 972 l 567 972 q 621 949 600 972 m 549 163 l 597 212 q 606 236 606 222 l 606 736 q 597 760 606 749 l 549 810 q 524 819 539 819 l 367 819 q 342 810 351 819 l 293 760 q 283 736 283 750 l 283 236 q 293 212 283 222 l 342 163 q 367 153 352 153 l 524 153 q 549 163 538 153 z "},"":{"ha":888,"x_min":131,"x_max":758,"o":"m 357 1242 l 345 1227 l 345 1190 q 326 1144 345 1162 q 279 1125 307 1125 q 235 1144 253 1125 q 216 1190 216 1162 l 216 1258 q 233 1299 216 1280 l 288 1353 q 328 1369 306 1369 l 396 1369 q 437 1353 419 1369 l 493 1299 q 509 1258 509 1278 l 509 1234 l 521 1221 l 532 1221 l 545 1234 l 545 1272 q 563 1318 545 1300 q 608 1336 581 1336 q 654 1318 636 1336 q 672 1272 672 1300 l 672 1206 q 656 1165 672 1179 l 602 1111 q 559 1093 588 1093 l 493 1093 q 452 1111 465 1093 l 397 1165 q 380 1206 380 1180 l 380 1227 l 367 1242 l 357 1242 m 621 949 l 737 835 q 758 782 758 814 l 758 191 q 737 138 758 159 l 621 24 q 567 0 600 0 l 322 0 q 269 24 288 0 l 153 138 q 131 191 131 159 l 131 782 q 153 835 131 813 l 269 949 q 322 972 288 972 l 567 972 q 621 949 600 972 m 549 163 l 597 212 q 606 236 606 222 l 606 736 q 597 760 606 749 l 549 810 q 524 819 539 819 l 367 819 q 342 810 351 819 l 293 760 q 283 736 283 750 l 283 236 q 293 212 283 222 l 342 163 q 367 153 352 153 l 524 153 q 549 163 538 153 z "},"":{"ha":888,"x_min":131,"x_max":758,"o":"m 575 1107 l 549 1107 q 495 1128 517 1107 q 473 1181 473 1149 l 473 1208 q 495 1261 473 1240 q 549 1282 516 1282 l 575 1282 q 628 1261 607 1282 q 650 1208 650 1240 l 650 1181 q 628 1128 650 1149 q 575 1107 607 1107 m 339 1107 l 313 1107 q 259 1128 281 1107 q 237 1181 237 1149 l 237 1208 q 259 1261 237 1240 q 313 1282 280 1282 l 339 1282 q 392 1261 371 1282 q 414 1208 414 1240 l 414 1181 q 392 1128 414 1149 q 339 1107 371 1107 m 621 949 l 737 835 q 758 782 758 814 l 758 191 q 737 138 758 159 l 621 24 q 567 0 600 0 l 322 0 q 269 24 288 0 l 153 138 q 131 191 131 159 l 131 782 q 153 835 131 813 l 269 949 q 322 972 288 972 l 567 972 q 621 949 600 972 m 549 163 l 597 212 q 606 236 606 222 l 606 736 q 597 760 606 749 l 549 810 q 524 819 539 819 l 367 819 q 342 810 351 819 l 293 760 q 283 736 283 750 l 283 236 q 293 212 283 222 l 342 163 q 367 153 352 153 l 524 153 q 549 163 538 153 z "},"":{"ha":888,"x_min":187,"x_max":701,"o":"m 585 453 l 679 358 q 701 306 701 336 l 701 304 q 679 252 701 275 q 627 229 656 229 q 572 253 596 229 l 478 347 q 446 363 463 363 q 412 347 428 363 l 317 252 q 264 228 293 228 q 210 252 233 228 q 187 306 187 276 q 210 357 187 334 l 306 453 q 319 486 319 467 q 306 519 319 506 l 210 615 q 187 667 187 637 q 210 721 187 697 q 264 745 233 745 q 317 721 293 745 l 412 625 q 446 611 427 611 q 478 625 464 611 l 574 721 q 627 745 597 745 l 628 745 q 679 721 656 745 q 701 668 701 697 q 679 615 701 637 l 585 519 q 571 486 571 506 q 585 453 571 467 z "},"":{"ha":888,"x_min":40,"x_max":850,"o":"m 718 865 l 722 869 q 777 890 743 890 q 829 869 808 890 q 850 817 850 848 q 829 764 850 784 l 771 704 q 760 679 760 692 l 760 189 q 737 135 760 159 l 624 24 q 571 0 604 0 l 321 0 q 268 24 286 0 l 182 107 q 178 110 179 110 q 174 107 176 110 l 170 103 q 115 82 149 82 q 61 103 83 82 q 40 155 40 123 q 62 210 40 187 l 121 268 q 132 293 132 279 l 132 785 q 154 838 132 816 l 268 949 q 321 972 286 972 l 571 972 q 624 949 604 972 l 708 865 q 714 863 711 863 q 718 865 715 863 m 599 764 l 551 811 q 525 822 538 822 l 367 822 q 340 811 354 822 l 292 764 q 281 739 281 750 l 281 440 q 285 433 281 433 q 290 436 288 433 l 599 745 q 603 754 603 749 q 599 764 603 760 m 293 207 l 340 161 q 367 150 355 150 l 525 150 q 551 161 537 150 l 600 208 q 610 233 610 224 l 610 530 q 606 538 610 538 q 600 534 604 538 l 293 227 q 289 216 289 222 q 293 207 289 211 z "},"":{"ha":888,"x_min":131,"x_max":758,"o":"m 446 1116 l 335 1225 q 314 1278 314 1246 q 335 1332 314 1310 q 387 1353 355 1353 q 441 1331 419 1353 l 551 1219 q 574 1168 574 1197 q 552 1115 574 1136 q 498 1093 530 1093 q 446 1116 468 1093 m 283 900 l 283 236 q 293 212 283 222 l 342 163 q 367 153 352 153 l 524 153 q 549 163 538 153 l 597 212 q 606 236 606 220 l 606 900 q 628 954 606 932 q 684 975 651 975 q 737 954 715 975 q 758 900 758 932 l 758 191 q 737 138 758 159 l 621 24 q 567 0 600 0 l 322 0 q 269 24 288 0 l 153 138 q 131 191 131 159 l 131 900 q 153 954 131 932 q 207 975 175 975 q 261 954 239 975 q 283 900 283 932 z "},"":{"ha":888,"x_min":131,"x_max":758,"o":"m 551 1225 l 441 1116 q 389 1093 419 1093 q 335 1115 357 1093 q 314 1168 314 1136 q 336 1219 314 1200 l 446 1331 q 498 1353 468 1353 q 552 1331 530 1353 q 574 1278 574 1310 q 551 1225 574 1247 m 283 900 l 283 236 q 293 212 283 222 l 342 163 q 367 153 352 153 l 524 153 q 549 163 538 153 l 597 212 q 606 236 606 220 l 606 900 q 628 954 606 932 q 684 975 651 975 q 737 954 715 975 q 758 900 758 932 l 758 191 q 737 138 758 159 l 621 24 q 567 0 600 0 l 322 0 q 269 24 288 0 l 153 138 q 131 191 131 159 l 131 900 q 153 954 131 932 q 207 975 175 975 q 261 954 239 975 q 283 900 283 932 z "},"":{"ha":888,"x_min":131,"x_max":758,"o":"m 415 1161 l 366 1112 q 318 1093 353 1093 q 271 1113 290 1093 q 252 1160 252 1132 q 271 1208 252 1184 l 397 1332 q 444 1353 416 1353 q 492 1332 471 1353 l 616 1208 q 636 1160 636 1189 q 617 1112 636 1131 q 570 1093 599 1093 q 521 1112 540 1093 l 472 1161 q 444 1173 460 1173 q 415 1161 427 1173 m 283 900 l 283 236 q 293 212 283 222 l 342 163 q 367 153 352 153 l 524 153 q 549 163 538 153 l 597 212 q 606 236 606 220 l 606 900 q 628 954 606 932 q 684 975 651 975 q 737 954 715 975 q 758 900 758 932 l 758 191 q 737 138 758 159 l 621 24 q 567 0 600 0 l 322 0 q 269 24 288 0 l 153 138 q 131 191 131 159 l 131 900 q 153 954 131 932 q 207 975 175 975 q 261 954 239 975 q 283 900 283 932 z "},"":{"ha":888,"x_min":131,"x_max":758,"o":"m 575 1107 l 549 1107 q 495 1128 517 1107 q 473 1181 473 1149 l 473 1208 q 495 1261 473 1240 q 549 1282 516 1282 l 575 1282 q 628 1261 607 1282 q 650 1208 650 1240 l 650 1181 q 628 1128 650 1149 q 575 1107 607 1107 m 339 1107 l 313 1107 q 259 1128 281 1107 q 237 1181 237 1149 l 237 1208 q 259 1261 237 1240 q 313 1282 280 1282 l 339 1282 q 392 1261 371 1282 q 414 1208 414 1240 l 414 1181 q 392 1128 414 1149 q 339 1107 371 1107 m 283 900 l 283 236 q 293 212 283 222 l 342 163 q 367 153 352 153 l 524 153 q 549 163 538 153 l 597 212 q 606 236 606 220 l 606 900 q 628 954 606 932 q 684 975 651 975 q 737 954 715 975 q 758 900 758 932 l 758 191 q 737 138 758 159 l 621 24 q 567 0 600 0 l 322 0 q 269 24 288 0 l 153 138 q 131 191 131 159 l 131 900 q 153 954 131 932 q 207 975 175 975 q 261 954 239 975 q 283 900 283 932 z "},"":{"ha":888,"x_min":131,"x_max":758,"o":"m 551 1225 l 441 1116 q 389 1093 419 1093 q 335 1115 357 1093 q 314 1168 314 1136 q 336 1219 314 1200 l 446 1331 q 498 1353 468 1353 q 552 1331 530 1353 q 574 1278 574 1310 q 551 1225 574 1247 m 358 410 l 154 615 q 131 669 131 638 l 131 897 q 153 951 131 929 q 207 972 175 972 q 261 951 239 972 q 283 897 283 929 l 283 715 q 293 692 283 701 l 410 570 q 443 557 422 557 q 478 570 463 557 l 597 692 q 606 715 606 700 l 606 897 q 628 951 606 929 q 684 972 651 972 q 737 951 715 972 q 758 897 758 929 l 758 669 q 736 615 758 635 l 529 410 q 519 385 519 400 l 519 75 q 498 21 519 43 q 443 0 476 0 q 389 22 411 0 q 367 75 367 43 l 367 385 q 358 410 367 401 z "},"":{"ha":888,"x_min":131,"x_max":758,"o":"m 131 75 l 131 897 q 152 951 131 929 q 205 972 174 972 q 259 951 237 972 q 281 897 281 929 l 281 885 q 294 851 281 865 q 328 838 308 838 l 543 838 q 596 815 574 838 l 736 673 q 758 621 758 651 l 758 351 q 736 298 758 321 l 596 157 q 543 135 574 135 l 328 135 q 294 121 308 135 q 281 87 281 107 l 281 75 q 259 22 281 43 q 205 0 237 0 q 152 22 174 0 q 131 75 131 43 m 608 397 l 608 575 q 600 600 608 592 l 521 677 q 497 688 511 688 l 328 688 q 294 674 308 688 q 281 640 281 660 l 281 332 q 294 298 281 312 q 328 285 308 285 l 497 285 q 521 294 511 285 l 600 372 q 608 397 608 380 z "},"":{"ha":888,"x_min":135,"x_max":755,"o":"m 283 742 l 283 -25 q 262 -78 283 -57 q 208 -98 241 -98 q 156 -78 178 -98 q 135 -25 135 -57 l 135 786 q 157 839 135 817 l 268 949 q 321 972 288 972 l 532 972 q 583 949 563 972 l 696 839 q 717 786 717 818 l 717 631 q 696 579 717 604 l 668 553 q 656 519 656 538 q 668 486 656 500 l 734 421 q 755 368 755 397 l 755 187 q 734 134 755 158 l 623 24 q 570 0 602 0 l 400 0 q 347 21 368 0 q 326 74 326 42 q 347 127 326 106 q 400 149 368 149 l 525 149 q 550 160 536 149 l 597 205 q 607 231 607 221 l 607 323 q 597 349 607 333 l 479 467 q 457 519 457 491 q 479 571 457 549 l 558 652 q 568 676 568 664 l 568 742 q 558 766 568 754 l 511 812 q 486 823 498 823 l 367 823 q 340 812 354 823 l 294 766 q 283 742 283 753 z "},"":{"ha":888,"x_min":131,"x_max":758,"o":"m 758 753 l 758 75 q 737 22 758 43 q 684 0 715 0 q 628 22 651 0 q 606 75 606 43 l 606 332 q 592 365 606 351 q 559 379 579 379 l 329 379 q 296 366 309 379 q 283 332 283 352 l 283 75 q 261 22 283 43 q 207 0 239 0 q 153 22 175 0 q 131 75 131 43 l 131 753 q 153 806 131 784 l 297 949 q 349 972 317 972 l 542 972 q 593 950 570 972 l 736 806 q 758 753 758 783 m 606 579 l 606 710 q 597 733 606 725 l 519 810 q 496 819 510 819 l 395 819 q 370 810 379 819 l 293 733 q 283 710 283 724 l 283 579 q 296 545 283 559 q 329 532 309 532 l 559 532 q 592 546 579 532 q 606 579 606 559 m 446 1116 l 335 1225 q 314 1278 314 1246 q 335 1332 314 1310 q 387 1353 355 1353 q 441 1331 419 1353 l 551 1219 q 574 1168 574 1197 q 552 1115 574 1136 q 498 1093 530 1093 q 446 1116 468 1093 z "},"":{"ha":888,"x_min":131,"x_max":758,"o":"m 758 753 l 758 75 q 737 22 758 43 q 684 0 715 0 q 628 22 651 0 q 606 75 606 43 l 606 332 q 592 365 606 351 q 559 379 579 379 l 329 379 q 296 366 309 379 q 283 332 283 352 l 283 75 q 261 22 283 43 q 207 0 239 0 q 153 22 175 0 q 131 75 131 43 l 131 753 q 153 806 131 784 l 297 949 q 349 972 317 972 l 542 972 q 593 950 570 972 l 736 806 q 758 753 758 783 m 606 579 l 606 710 q 597 733 606 725 l 519 810 q 496 819 510 819 l 395 819 q 370 810 379 819 l 293 733 q 283 710 283 724 l 283 579 q 296 545 283 559 q 329 532 309 532 l 559 532 q 592 546 579 532 q 606 579 606 559 m 551 1225 l 441 1116 q 389 1093 419 1093 q 335 1115 357 1093 q 314 1168 314 1136 q 336 1219 314 1200 l 446 1331 q 498 1353 468 1353 q 552 1331 530 1353 q 574 1278 574 1310 q 551 1225 574 1247 z "},"":{"ha":888,"x_min":131,"x_max":758,"o":"m 758 753 l 758 75 q 737 22 758 43 q 684 0 715 0 q 628 22 651 0 q 606 75 606 43 l 606 332 q 592 365 606 351 q 559 379 579 379 l 329 379 q 296 366 309 379 q 283 332 283 352 l 283 75 q 261 22 283 43 q 207 0 239 0 q 153 22 175 0 q 131 75 131 43 l 131 753 q 153 806 131 784 l 297 949 q 349 972 317 972 l 542 972 q 593 950 570 972 l 736 806 q 758 753 758 783 m 606 579 l 606 710 q 597 733 606 725 l 519 810 q 496 819 510 819 l 395 819 q 370 810 379 819 l 293 733 q 283 710 283 724 l 283 579 q 296 545 283 559 q 329 532 309 532 l 559 532 q 592 546 579 532 q 606 579 606 559 m 415 1161 l 366 1112 q 318 1093 353 1093 q 271 1113 290 1093 q 252 1160 252 1132 q 271 1208 252 1184 l 397 1332 q 444 1353 416 1353 q 492 1332 471 1353 l 616 1208 q 636 1160 636 1189 q 617 1112 636 1131 q 570 1093 599 1093 q 521 1112 540 1093 l 472 1161 q 444 1173 460 1173 q 415 1161 427 1173 z "},"":{"ha":888,"x_min":131,"x_max":758,"o":"m 758 753 l 758 75 q 737 22 758 43 q 684 0 715 0 q 628 22 651 0 q 606 75 606 43 l 606 332 q 592 365 606 351 q 559 379 579 379 l 329 379 q 296 366 309 379 q 283 332 283 352 l 283 75 q 261 22 283 43 q 207 0 239 0 q 153 22 175 0 q 131 75 131 43 l 131 753 q 153 806 131 784 l 297 949 q 349 972 317 972 l 542 972 q 593 950 570 972 l 736 806 q 758 753 758 783 m 606 579 l 606 710 q 597 733 606 725 l 519 810 q 496 819 510 819 l 395 819 q 370 810 379 819 l 293 733 q 283 710 283 724 l 283 579 q 296 545 283 559 q 329 532 309 532 l 559 532 q 592 546 579 532 q 606 579 606 559 m 357 1242 l 345 1227 l 345 1190 q 326 1144 345 1162 q 279 1125 307 1125 q 235 1144 253 1125 q 216 1190 216 1162 l 216 1258 q 233 1299 216 1280 l 288 1353 q 328 1369 306 1369 l 396 1369 q 437 1353 419 1369 l 493 1299 q 509 1258 509 1278 l 509 1234 l 521 1221 l 532 1221 l 545 1234 l 545 1272 q 563 1318 545 1300 q 608 1336 581 1336 q 654 1318 636 1336 q 672 1272 672 1300 l 672 1206 q 656 1165 672 1179 l 602 1111 q 559 1093 588 1093 l 493 1093 q 452 1111 465 1093 l 397 1165 q 380 1206 380 1180 l 380 1227 l 367 1242 l 357 1242 z "},"":{"ha":888,"x_min":131,"x_max":758,"o":"m 758 753 l 758 75 q 737 22 758 43 q 684 0 715 0 q 628 22 651 0 q 606 75 606 43 l 606 332 q 592 365 606 351 q 559 379 579 379 l 329 379 q 296 366 309 379 q 283 332 283 352 l 283 75 q 261 22 283 43 q 207 0 239 0 q 153 22 175 0 q 131 75 131 43 l 131 753 q 153 806 131 784 l 297 949 q 349 972 317 972 l 542 972 q 593 950 570 972 l 736 806 q 758 753 758 783 m 606 579 l 606 710 q 597 733 606 725 l 519 810 q 496 819 510 819 l 395 819 q 370 810 379 819 l 293 733 q 283 710 283 724 l 283 579 q 296 545 283 559 q 329 532 309 532 l 559 532 q 592 546 579 532 q 606 579 606 559 m 575 1107 l 549 1107 q 495 1128 517 1107 q 473 1181 473 1149 l 473 1208 q 495 1261 473 1240 q 549 1282 516 1282 l 575 1282 q 628 1261 607 1282 q 650 1208 650 1240 l 650 1181 q 628 1128 650 1149 q 575 1107 607 1107 m 339 1107 l 313 1107 q 259 1128 281 1107 q 237 1181 237 1149 l 237 1208 q 259 1261 237 1240 q 313 1282 280 1282 l 339 1282 q 392 1261 371 1282 q 414 1208 414 1240 l 414 1181 q 392 1128 414 1149 q 339 1107 371 1107 z "},"":{"ha":888,"x_min":131,"x_max":758,"o":"m 758 753 l 758 75 q 737 22 758 43 q 684 0 715 0 q 628 22 651 0 q 606 75 606 43 l 606 332 q 592 365 606 351 q 559 379 579 379 l 329 379 q 296 366 309 379 q 283 332 283 352 l 283 75 q 261 22 283 43 q 207 0 239 0 q 153 22 175 0 q 131 75 131 43 l 131 753 q 153 806 131 784 l 297 949 q 349 972 317 972 l 542 972 q 593 950 570 972 l 736 806 q 758 753 758 783 m 606 579 l 606 710 q 597 733 606 725 l 519 810 q 496 819 510 819 l 395 819 q 370 810 379 819 l 293 733 q 283 710 283 724 l 283 579 q 296 545 283 559 q 329 532 309 532 l 559 532 q 592 546 579 532 q 606 579 606 559 m 281 1161 l 281 1243 q 296 1279 281 1264 l 367 1353 q 404 1365 384 1365 l 485 1365 q 522 1352 507 1365 l 593 1279 q 607 1243 607 1265 l 607 1161 q 593 1124 607 1138 l 522 1054 q 485 1039 507 1039 l 404 1039 q 367 1053 382 1039 l 294 1124 q 281 1161 281 1141 m 418 1242 l 404 1226 q 395 1203 395 1217 q 404 1178 395 1187 l 418 1164 q 443 1154 427 1154 q 467 1164 457 1154 l 482 1178 q 492 1203 492 1187 q 482 1226 492 1217 l 467 1242 q 443 1251 457 1251 q 418 1242 427 1251 z "},"":{"ha":888,"x_min":103,"x_max":785,"o":"m 368 75 l 368 374 q 363 380 368 380 l 300 380 q 267 367 280 380 q 253 334 253 353 l 253 75 q 231 22 253 43 q 176 0 208 0 q 124 21 144 0 q 103 75 103 43 l 103 755 q 125 808 103 787 l 267 949 q 318 972 285 972 l 710 972 q 763 951 742 972 q 785 897 785 929 q 763 844 785 865 q 710 822 742 822 l 566 822 q 532 808 546 822 q 518 775 518 795 l 518 608 q 532 574 518 589 q 566 559 546 559 l 684 559 q 736 539 715 559 q 757 486 757 518 q 736 432 757 454 q 684 411 715 411 l 566 411 q 532 397 546 411 q 518 364 518 384 l 518 197 q 532 164 518 178 q 566 150 546 150 l 710 150 q 763 129 742 150 q 785 75 785 107 q 763 22 785 43 q 710 0 742 0 l 443 0 q 390 22 411 0 q 368 75 368 43 m 368 538 l 368 817 q 363 822 368 822 q 340 812 350 822 l 264 736 q 253 710 253 722 l 253 578 q 267 544 253 558 q 300 530 280 530 l 363 530 q 368 538 368 530 z "},"":{"ha":888,"x_min":132,"x_max":760,"o":"m 282 710 l 282 262 q 292 237 282 247 l 370 160 q 395 150 380 150 l 498 150 q 522 160 512 150 l 602 237 q 610 262 610 248 l 610 302 q 632 356 610 334 q 686 378 654 378 q 739 356 718 378 q 760 302 760 335 l 760 216 q 737 164 760 186 l 597 22 q 545 0 575 0 l 504 0 l 504 -8 q 514 -33 504 -16 l 597 -113 q 610 -150 610 -129 l 610 -232 q 596 -268 610 -254 l 524 -339 q 488 -354 509 -354 l 406 -354 q 370 -339 382 -354 l 332 -301 q 315 -261 315 -285 q 332 -221 315 -237 q 372 -204 349 -204 q 414 -221 397 -204 l 421 -229 q 447 -240 435 -240 q 472 -229 458 -240 l 485 -216 q 496 -192 496 -203 q 485 -165 496 -179 l 408 -89 q 389 -45 389 -72 l 389 0 l 349 0 q 294 24 318 0 l 154 164 q 132 216 132 186 l 132 755 q 154 808 132 787 l 294 949 q 349 972 318 972 l 545 972 q 597 950 575 972 l 737 808 q 760 755 760 786 l 760 669 q 739 616 760 637 q 686 595 718 595 q 632 616 654 595 q 610 669 610 637 l 610 710 q 602 734 610 724 l 522 812 q 498 822 513 822 l 395 822 q 370 812 379 822 l 292 734 q 282 710 282 725 z "},"":{"ha":888,"x_min":131,"x_max":758,"o":"m 131 77 l 131 896 q 153 950 131 928 q 207 972 175 972 l 685 972 q 738 950 717 972 q 758 896 758 928 q 738 841 758 863 q 685 819 717 819 l 330 819 q 297 806 311 819 q 283 772 283 792 l 283 608 q 297 574 283 588 q 330 559 311 559 l 593 559 q 647 539 625 559 q 668 486 668 518 q 646 433 668 454 q 593 411 625 411 l 330 411 q 297 397 311 411 q 283 363 283 382 l 283 200 q 297 166 283 180 q 330 153 311 153 l 685 153 q 738 131 717 153 q 758 77 758 109 q 738 22 758 44 q 685 0 717 0 l 207 0 q 153 22 175 0 q 131 77 131 45 m 446 1116 l 335 1225 q 314 1278 314 1246 q 335 1332 314 1310 q 387 1353 355 1353 q 441 1331 419 1353 l 551 1219 q 574 1168 574 1197 q 552 1115 574 1136 q 498 1093 530 1093 q 446 1116 468 1093 z "},"":{"ha":888,"x_min":131,"x_max":758,"o":"m 131 77 l 131 896 q 153 950 131 928 q 207 972 175 972 l 685 972 q 738 950 717 972 q 758 896 758 928 q 738 841 758 863 q 685 819 717 819 l 330 819 q 297 806 311 819 q 283 772 283 792 l 283 608 q 297 574 283 588 q 330 559 311 559 l 593 559 q 647 539 625 559 q 668 486 668 518 q 646 433 668 454 q 593 411 625 411 l 330 411 q 297 397 311 411 q 283 363 283 382 l 283 200 q 297 166 283 180 q 330 153 311 153 l 685 153 q 738 131 717 153 q 758 77 758 109 q 738 22 758 44 q 685 0 717 0 l 207 0 q 153 22 175 0 q 131 77 131 45 m 551 1225 l 441 1116 q 389 1093 419 1093 q 335 1115 357 1093 q 314 1168 314 1136 q 336 1219 314 1200 l 446 1331 q 498 1353 468 1353 q 552 1331 530 1353 q 574 1278 574 1310 q 551 1225 574 1247 z "},"":{"ha":888,"x_min":131,"x_max":758,"o":"m 131 77 l 131 896 q 153 950 131 928 q 207 972 175 972 l 685 972 q 738 950 717 972 q 758 896 758 928 q 738 841 758 863 q 685 819 717 819 l 330 819 q 297 806 311 819 q 283 772 283 792 l 283 608 q 297 574 283 588 q 330 559 311 559 l 593 559 q 647 539 625 559 q 668 486 668 518 q 646 433 668 454 q 593 411 625 411 l 330 411 q 297 397 311 411 q 283 363 283 382 l 283 200 q 297 166 283 180 q 330 153 311 153 l 685 153 q 738 131 717 153 q 758 77 758 109 q 738 22 758 44 q 685 0 717 0 l 207 0 q 153 22 175 0 q 131 77 131 45 m 415 1161 l 366 1112 q 318 1093 353 1093 q 271 1113 290 1093 q 252 1160 252 1132 q 271 1208 252 1184 l 397 1332 q 444 1353 416 1353 q 492 1332 471 1353 l 616 1208 q 636 1160 636 1189 q 617 1112 636 1131 q 570 1093 599 1093 q 521 1112 540 1093 l 472 1161 q 444 1173 460 1173 q 415 1161 427 1173 z "},"":{"ha":888,"x_min":131,"x_max":758,"o":"m 131 77 l 131 896 q 153 950 131 928 q 207 972 175 972 l 685 972 q 738 950 717 972 q 758 896 758 928 q 738 841 758 863 q 685 819 717 819 l 330 819 q 297 806 311 819 q 283 772 283 792 l 283 608 q 297 574 283 588 q 330 559 311 559 l 593 559 q 647 539 625 559 q 668 486 668 518 q 646 433 668 454 q 593 411 625 411 l 330 411 q 297 397 311 411 q 283 363 283 382 l 283 200 q 297 166 283 180 q 330 153 311 153 l 685 153 q 738 131 717 153 q 758 77 758 109 q 738 22 758 44 q 685 0 717 0 l 207 0 q 153 22 175 0 q 131 77 131 45 m 575 1107 l 549 1107 q 495 1128 517 1107 q 473 1181 473 1149 l 473 1208 q 495 1261 473 1240 q 549 1282 516 1282 l 575 1282 q 628 1261 607 1282 q 650 1208 650 1240 l 650 1181 q 628 1128 650 1149 q 575 1107 607 1107 m 339 1107 l 313 1107 q 259 1128 281 1107 q 237 1181 237 1149 l 237 1208 q 259 1261 237 1240 q 313 1282 280 1282 l 339 1282 q 392 1261 371 1282 q 414 1208 414 1240 l 414 1181 q 392 1128 414 1149 q 339 1107 371 1107 z "},"":{"ha":888,"x_min":192,"x_max":692,"o":"m 446 1116 l 335 1225 q 314 1278 314 1246 q 335 1332 314 1310 q 387 1353 355 1353 q 441 1331 419 1353 l 551 1219 q 574 1168 574 1197 q 552 1115 574 1136 q 498 1093 530 1093 q 446 1116 468 1093 m 618 0 l 264 0 q 213 21 233 0 q 192 74 192 42 q 213 127 192 106 q 264 149 233 149 l 321 149 q 354 162 340 149 q 367 196 367 176 l 367 765 q 354 799 367 785 q 321 812 340 812 l 264 812 q 213 834 234 812 q 192 888 192 856 q 213 940 192 920 q 264 961 233 961 l 618 961 q 671 940 650 961 q 692 888 692 920 q 671 834 692 856 q 618 812 650 812 l 562 812 q 529 799 543 812 q 515 765 515 785 l 515 196 q 529 162 515 176 q 562 149 543 149 l 618 149 q 671 127 650 149 q 692 74 692 106 q 671 21 692 42 q 618 0 650 0 z "},"":{"ha":888,"x_min":192,"x_max":692,"o":"m 551 1225 l 441 1116 q 389 1093 419 1093 q 335 1115 357 1093 q 314 1168 314 1136 q 336 1219 314 1200 l 446 1331 q 498 1353 468 1353 q 552 1331 530 1353 q 574 1278 574 1310 q 551 1225 574 1247 m 618 0 l 264 0 q 213 21 233 0 q 192 74 192 42 q 213 127 192 106 q 264 149 233 149 l 321 149 q 354 162 340 149 q 367 196 367 176 l 367 765 q 354 799 367 785 q 321 812 340 812 l 264 812 q 213 834 234 812 q 192 888 192 856 q 213 940 192 920 q 264 961 233 961 l 618 961 q 671 940 650 961 q 692 888 692 920 q 671 834 692 856 q 618 812 650 812 l 562 812 q 529 799 543 812 q 515 765 515 785 l 515 196 q 529 162 515 176 q 562 149 543 149 l 618 149 q 671 127 650 149 q 692 74 692 106 q 671 21 692 42 q 618 0 650 0 z "},"":{"ha":888,"x_min":192,"x_max":692,"o":"m 415 1161 l 366 1112 q 318 1093 353 1093 q 271 1113 290 1093 q 252 1160 252 1132 q 271 1208 252 1184 l 397 1332 q 444 1353 416 1353 q 492 1332 471 1353 l 616 1208 q 636 1160 636 1189 q 617 1112 636 1131 q 570 1093 599 1093 q 521 1112 540 1093 l 472 1161 q 444 1173 460 1173 q 415 1161 427 1173 m 618 0 l 264 0 q 213 21 233 0 q 192 74 192 42 q 213 127 192 106 q 264 149 233 149 l 321 149 q 354 162 340 149 q 367 196 367 176 l 367 765 q 354 799 367 785 q 321 812 340 812 l 264 812 q 213 834 234 812 q 192 888 192 856 q 213 940 192 920 q 264 961 233 961 l 618 961 q 671 940 650 961 q 692 888 692 920 q 671 834 692 856 q 618 812 650 812 l 562 812 q 529 799 543 812 q 515 765 515 785 l 515 196 q 529 162 515 176 q 562 149 543 149 l 618 149 q 671 127 650 149 q 692 74 692 106 q 671 21 692 42 q 618 0 650 0 z "},"":{"ha":888,"x_min":192,"x_max":692,"o":"m 575 1107 l 549 1107 q 495 1128 517 1107 q 473 1181 473 1149 l 473 1208 q 495 1261 473 1240 q 549 1282 516 1282 l 575 1282 q 628 1261 607 1282 q 650 1208 650 1240 l 650 1181 q 628 1128 650 1149 q 575 1107 607 1107 m 339 1107 l 313 1107 q 259 1128 281 1107 q 237 1181 237 1149 l 237 1208 q 259 1261 237 1240 q 313 1282 280 1282 l 339 1282 q 392 1261 371 1282 q 414 1208 414 1240 l 414 1181 q 392 1128 414 1149 q 339 1107 371 1107 m 618 0 l 264 0 q 213 21 233 0 q 192 74 192 42 q 213 127 192 106 q 264 149 233 149 l 321 149 q 354 162 340 149 q 367 196 367 176 l 367 765 q 354 799 367 785 q 321 812 340 812 l 264 812 q 213 834 234 812 q 192 888 192 856 q 213 940 192 920 q 264 961 233 961 l 618 961 q 671 940 650 961 q 692 888 692 920 q 671 834 692 856 q 618 812 650 812 l 562 812 q 529 799 543 812 q 515 765 515 785 l 515 196 q 529 162 515 176 q 562 149 543 149 l 618 149 q 671 127 650 149 q 692 74 692 106 q 671 21 692 42 q 618 0 650 0 z "},"":{"ha":888,"x_min":36,"x_max":758,"o":"m 131 568 l 131 897 q 152 951 131 929 q 205 972 174 972 l 543 972 q 596 950 574 972 l 736 808 q 758 755 758 786 l 758 216 q 736 164 758 186 l 596 22 q 543 0 574 0 l 205 0 q 152 22 174 0 q 131 75 131 43 l 131 406 q 125 412 131 412 l 111 412 q 58 434 79 412 q 36 488 36 456 q 57 540 36 519 q 111 561 79 561 l 125 561 q 131 568 131 561 m 281 406 l 281 197 q 294 164 281 178 q 328 150 308 150 l 497 150 q 521 160 511 150 l 600 237 q 608 262 608 245 l 608 710 q 600 734 608 726 l 521 812 q 497 822 511 822 l 328 822 q 294 808 308 822 q 281 775 281 795 l 281 568 q 288 561 281 561 l 475 561 q 529 540 507 561 q 550 488 550 519 q 528 434 550 456 q 475 412 507 412 l 288 412 q 281 406 281 412 z "},"":{"ha":888,"x_min":131,"x_max":758,"o":"m 275 935 l 596 374 q 603 367 601 367 q 606 376 606 367 l 606 897 q 628 951 606 929 q 684 972 651 972 q 737 951 715 972 q 758 897 758 929 l 758 75 q 737 22 758 43 q 684 0 715 0 q 615 37 641 0 l 293 603 q 286 610 291 610 q 283 600 283 610 l 283 75 q 261 22 283 43 q 207 0 239 0 q 153 22 175 0 q 131 75 131 43 l 131 897 q 153 951 131 929 q 207 972 175 972 q 247 962 228 972 q 275 935 267 951 m 357 1242 l 345 1227 l 345 1190 q 326 1144 345 1162 q 279 1125 307 1125 q 235 1144 253 1125 q 216 1190 216 1162 l 216 1258 q 233 1299 216 1280 l 288 1353 q 328 1369 306 1369 l 396 1369 q 437 1353 419 1369 l 493 1299 q 509 1258 509 1278 l 509 1234 l 521 1221 l 532 1221 l 545 1234 l 545 1272 q 563 1318 545 1300 q 608 1336 581 1336 q 654 1318 636 1336 q 672 1272 672 1300 l 672 1206 q 656 1165 672 1179 l 602 1111 q 559 1093 588 1093 l 493 1093 q 452 1111 465 1093 l 397 1165 q 380 1206 380 1180 l 380 1227 l 367 1242 l 357 1242 z "},"":{"ha":888,"x_min":131,"x_max":758,"o":"m 621 949 l 737 835 q 758 782 758 814 l 758 191 q 737 138 758 159 l 621 24 q 567 0 600 0 l 322 0 q 269 24 288 0 l 153 138 q 131 191 131 159 l 131 782 q 153 835 131 813 l 269 949 q 322 972 288 972 l 567 972 q 621 949 600 972 m 549 163 l 597 212 q 606 236 606 222 l 606 736 q 597 760 606 749 l 549 810 q 524 819 539 819 l 367 819 q 342 810 351 819 l 293 760 q 283 736 283 750 l 283 236 q 293 212 283 222 l 342 163 q 367 153 352 153 l 524 153 q 549 163 538 153 m 446 1116 l 335 1225 q 314 1278 314 1246 q 335 1332 314 1310 q 387 1353 355 1353 q 441 1331 419 1353 l 551 1219 q 574 1168 574 1197 q 552 1115 574 1136 q 498 1093 530 1093 q 446 1116 468 1093 z "},"":{"ha":888,"x_min":131,"x_max":758,"o":"m 621 949 l 737 835 q 758 782 758 814 l 758 191 q 737 138 758 159 l 621 24 q 567 0 600 0 l 322 0 q 269 24 288 0 l 153 138 q 131 191 131 159 l 131 782 q 153 835 131 813 l 269 949 q 322 972 288 972 l 567 972 q 621 949 600 972 m 549 163 l 597 212 q 606 236 606 222 l 606 736 q 597 760 606 749 l 549 810 q 524 819 539 819 l 367 819 q 342 810 351 819 l 293 760 q 283 736 283 750 l 283 236 q 293 212 283 222 l 342 163 q 367 153 352 153 l 524 153 q 549 163 538 153 m 551 1225 l 441 1116 q 389 1093 419 1093 q 335 1115 357 1093 q 314 1168 314 1136 q 336 1219 314 1200 l 446 1331 q 498 1353 468 1353 q 552 1331 530 1353 q 574 1278 574 1310 q 551 1225 574 1247 z "},"":{"ha":888,"x_min":131,"x_max":758,"o":"m 621 949 l 737 835 q 758 782 758 814 l 758 191 q 737 138 758 159 l 621 24 q 567 0 600 0 l 322 0 q 269 24 288 0 l 153 138 q 131 191 131 159 l 131 782 q 153 835 131 813 l 269 949 q 322 972 288 972 l 567 972 q 621 949 600 972 m 549 163 l 597 212 q 606 236 606 222 l 606 736 q 597 760 606 749 l 549 810 q 524 819 539 819 l 367 819 q 342 810 351 819 l 293 760 q 283 736 283 750 l 283 236 q 293 212 283 222 l 342 163 q 367 153 352 153 l 524 153 q 549 163 538 153 m 415 1161 l 366 1112 q 318 1093 353 1093 q 271 1113 290 1093 q 252 1160 252 1132 q 271 1208 252 1184 l 397 1332 q 444 1353 416 1353 q 492 1332 471 1353 l 616 1208 q 636 1160 636 1189 q 617 1112 636 1131 q 570 1093 599 1093 q 521 1112 540 1093 l 472 1161 q 444 1173 460 1173 q 415 1161 427 1173 z "},"":{"ha":888,"x_min":131,"x_max":758,"o":"m 621 949 l 737 835 q 758 782 758 814 l 758 191 q 737 138 758 159 l 621 24 q 567 0 600 0 l 322 0 q 269 24 288 0 l 153 138 q 131 191 131 159 l 131 782 q 153 835 131 813 l 269 949 q 322 972 288 972 l 567 972 q 621 949 600 972 m 549 163 l 597 212 q 606 236 606 222 l 606 736 q 597 760 606 749 l 549 810 q 524 819 539 819 l 367 819 q 342 810 351 819 l 293 760 q 283 736 283 750 l 283 236 q 293 212 283 222 l 342 163 q 367 153 352 153 l 524 153 q 549 163 538 153 m 357 1242 l 345 1227 l 345 1190 q 326 1144 345 1162 q 279 1125 307 1125 q 235 1144 253 1125 q 216 1190 216 1162 l 216 1258 q 233 1299 216 1280 l 288 1353 q 328 1369 306 1369 l 396 1369 q 437 1353 419 1369 l 493 1299 q 509 1258 509 1278 l 509 1234 l 521 1221 l 532 1221 l 545 1234 l 545 1272 q 563 1318 545 1300 q 608 1336 581 1336 q 654 1318 636 1336 q 672 1272 672 1300 l 672 1206 q 656 1165 672 1179 l 602 1111 q 559 1093 588 1093 l 493 1093 q 452 1111 465 1093 l 397 1165 q 380 1206 380 1180 l 380 1227 l 367 1242 l 357 1242 z "},"":{"ha":888,"x_min":131,"x_max":758,"o":"m 621 949 l 737 835 q 758 782 758 814 l 758 191 q 737 138 758 159 l 621 24 q 567 0 600 0 l 322 0 q 269 24 288 0 l 153 138 q 131 191 131 159 l 131 782 q 153 835 131 813 l 269 949 q 322 972 288 972 l 567 972 q 621 949 600 972 m 549 163 l 597 212 q 606 236 606 222 l 606 736 q 597 760 606 749 l 549 810 q 524 819 539 819 l 367 819 q 342 810 351 819 l 293 760 q 283 736 283 750 l 283 236 q 293 212 283 222 l 342 163 q 367 153 352 153 l 524 153 q 549 163 538 153 m 575 1107 l 549 1107 q 495 1128 517 1107 q 473 1181 473 1149 l 473 1208 q 495 1261 473 1240 q 549 1282 516 1282 l 575 1282 q 628 1261 607 1282 q 650 1208 650 1240 l 650 1181 q 628 1128 650 1149 q 575 1107 607 1107 m 339 1107 l 313 1107 q 259 1128 281 1107 q 237 1181 237 1149 l 237 1208 q 259 1261 237 1240 q 313 1282 280 1282 l 339 1282 q 392 1261 371 1282 q 414 1208 414 1240 l 414 1181 q 392 1128 414 1149 q 339 1107 371 1107 z "},"":{"ha":888,"x_min":158,"x_max":732,"o":"m 471 614 l 416 614 q 364 635 385 614 q 343 689 343 656 l 343 743 q 364 796 343 775 q 416 817 385 817 l 471 817 q 525 796 503 817 q 546 743 546 775 l 546 689 q 524 635 546 657 q 471 614 503 614 m 232 561 l 657 561 q 710 540 689 561 q 732 488 732 519 q 710 434 732 456 q 657 412 689 412 l 232 412 q 179 434 200 412 q 158 488 158 456 q 179 540 158 519 q 232 561 200 561 m 471 155 l 416 155 q 364 176 385 155 q 343 229 343 197 l 343 283 q 364 337 343 315 q 416 358 385 358 l 471 358 q 524 337 503 358 q 546 283 546 315 l 546 229 q 524 176 546 197 q 471 155 503 155 z "},"":{"ha":888,"x_min":40,"x_max":850,"o":"m 718 865 l 722 869 q 777 890 743 890 q 829 869 808 890 q 850 817 850 848 q 829 764 850 784 l 771 704 q 760 679 760 692 l 760 189 q 737 135 760 159 l 624 24 q 571 0 604 0 l 321 0 q 268 24 286 0 l 182 107 q 178 110 179 110 q 174 107 176 110 l 170 103 q 115 82 149 82 q 61 103 83 82 q 40 155 40 123 q 62 210 40 187 l 121 268 q 132 293 132 279 l 132 785 q 154 838 132 816 l 268 949 q 321 972 286 972 l 571 972 q 624 949 604 972 l 708 865 q 714 863 711 863 q 718 865 715 863 m 599 764 l 551 811 q 525 822 538 822 l 367 822 q 340 811 354 822 l 292 764 q 281 739 281 750 l 281 440 q 285 433 281 433 q 290 436 288 433 l 599 745 q 603 754 603 749 q 599 764 603 760 m 293 207 l 340 161 q 367 150 355 150 l 525 150 q 551 161 537 150 l 600 208 q 610 233 610 224 l 610 530 q 606 538 610 538 q 600 534 604 538 l 293 227 q 289 216 289 222 q 293 207 289 211 z "},"":{"ha":888,"x_min":131,"x_max":758,"o":"m 283 900 l 283 236 q 293 212 283 222 l 342 163 q 367 153 352 153 l 524 153 q 549 163 538 153 l 597 212 q 606 236 606 220 l 606 900 q 628 954 606 932 q 684 975 651 975 q 737 954 715 975 q 758 900 758 932 l 758 191 q 737 138 758 159 l 621 24 q 567 0 600 0 l 322 0 q 269 24 288 0 l 153 138 q 131 191 131 159 l 131 900 q 153 954 131 932 q 207 975 175 975 q 261 954 239 975 q 283 900 283 932 m 446 1116 l 335 1225 q 314 1278 314 1246 q 335 1332 314 1310 q 387 1353 355 1353 q 441 1331 419 1353 l 551 1219 q 574 1168 574 1197 q 552 1115 574 1136 q 498 1093 530 1093 q 446 1116 468 1093 z "},"":{"ha":888,"x_min":131,"x_max":758,"o":"m 283 900 l 283 236 q 293 212 283 222 l 342 163 q 367 153 352 153 l 524 153 q 549 163 538 153 l 597 212 q 606 236 606 220 l 606 900 q 628 954 606 932 q 684 975 651 975 q 737 954 715 975 q 758 900 758 932 l 758 191 q 737 138 758 159 l 621 24 q 567 0 600 0 l 322 0 q 269 24 288 0 l 153 138 q 131 191 131 159 l 131 900 q 153 954 131 932 q 207 975 175 975 q 261 954 239 975 q 283 900 283 932 m 551 1225 l 441 1116 q 389 1093 419 1093 q 335 1115 357 1093 q 314 1168 314 1136 q 336 1219 314 1200 l 446 1331 q 498 1353 468 1353 q 552 1331 530 1353 q 574 1278 574 1310 q 551 1225 574 1247 z "},"":{"ha":888,"x_min":131,"x_max":758,"o":"m 283 900 l 283 236 q 293 212 283 222 l 342 163 q 367 153 352 153 l 524 153 q 549 163 538 153 l 597 212 q 606 236 606 220 l 606 900 q 628 954 606 932 q 684 975 651 975 q 737 954 715 975 q 758 900 758 932 l 758 191 q 737 138 758 159 l 621 24 q 567 0 600 0 l 322 0 q 269 24 288 0 l 153 138 q 131 191 131 159 l 131 900 q 153 954 131 932 q 207 975 175 975 q 261 954 239 975 q 283 900 283 932 m 415 1161 l 366 1112 q 318 1093 353 1093 q 271 1113 290 1093 q 252 1160 252 1132 q 271 1208 252 1184 l 397 1332 q 444 1353 416 1353 q 492 1332 471 1353 l 616 1208 q 636 1160 636 1189 q 617 1112 636 1131 q 570 1093 599 1093 q 521 1112 540 1093 l 472 1161 q 444 1173 460 1173 q 415 1161 427 1173 z "},"":{"ha":888,"x_min":131,"x_max":758,"o":"m 283 900 l 283 236 q 293 212 283 222 l 342 163 q 367 153 352 153 l 524 153 q 549 163 538 153 l 597 212 q 606 236 606 220 l 606 900 q 628 954 606 932 q 684 975 651 975 q 737 954 715 975 q 758 900 758 932 l 758 191 q 737 138 758 159 l 621 24 q 567 0 600 0 l 322 0 q 269 24 288 0 l 153 138 q 131 191 131 159 l 131 900 q 153 954 131 932 q 207 975 175 975 q 261 954 239 975 q 283 900 283 932 m 575 1107 l 549 1107 q 495 1128 517 1107 q 473 1181 473 1149 l 473 1208 q 495 1261 473 1240 q 549 1282 516 1282 l 575 1282 q 628 1261 607 1282 q 650 1208 650 1240 l 650 1181 q 628 1128 650 1149 q 575 1107 607 1107 m 339 1107 l 313 1107 q 259 1128 281 1107 q 237 1181 237 1149 l 237 1208 q 259 1261 237 1240 q 313 1282 280 1282 l 339 1282 q 392 1261 371 1282 q 414 1208 414 1240 l 414 1181 q 392 1128 414 1149 q 339 1107 371 1107 z "},"":{"ha":888,"x_min":131,"x_max":758,"o":"m 358 410 l 154 615 q 131 669 131 638 l 131 897 q 153 951 131 929 q 207 972 175 972 q 261 951 239 972 q 283 897 283 929 l 283 715 q 293 692 283 701 l 410 570 q 443 557 422 557 q 478 570 463 557 l 597 692 q 606 715 606 700 l 606 897 q 628 951 606 929 q 684 972 651 972 q 737 951 715 972 q 758 897 758 929 l 758 669 q 736 615 758 635 l 529 410 q 519 385 519 400 l 519 75 q 498 21 519 43 q 443 0 476 0 q 389 22 411 0 q 367 75 367 43 l 367 385 q 358 410 367 401 m 551 1225 l 441 1116 q 389 1093 419 1093 q 335 1115 357 1093 q 314 1168 314 1136 q 336 1219 314 1200 l 446 1331 q 498 1353 468 1353 q 552 1331 530 1353 q 574 1278 574 1310 q 551 1225 574 1247 z "},"":{"ha":888,"x_min":135,"x_max":755,"o":"m 135 -25 l 135 986 q 156 1039 135 1018 q 208 1060 178 1060 q 262 1039 240 1060 q 283 986 283 1018 l 283 873 q 297 841 283 854 q 330 828 311 828 l 542 828 q 595 806 572 828 l 733 665 q 755 614 755 648 l 755 347 q 733 296 755 313 l 595 155 q 542 134 573 134 l 330 134 q 297 120 311 134 q 283 87 283 107 l 283 -25 q 262 -78 283 -57 q 208 -98 241 -98 q 156 -78 178 -98 q 135 -25 135 -57 m 607 393 l 607 568 q 599 593 607 579 l 521 669 q 497 679 509 679 l 330 679 q 297 665 311 679 q 283 632 283 652 l 283 329 q 297 296 283 309 q 330 282 311 282 l 497 282 q 521 292 509 282 l 599 368 q 607 393 607 382 z "},"":{"ha":888,"x_min":131,"x_max":758,"o":"m 358 410 l 154 615 q 131 669 131 638 l 131 897 q 153 951 131 929 q 207 972 175 972 q 261 951 239 972 q 283 897 283 929 l 283 715 q 293 692 283 701 l 410 570 q 443 557 422 557 q 478 570 463 557 l 597 692 q 606 715 606 700 l 606 897 q 628 951 606 929 q 684 972 651 972 q 737 951 715 972 q 758 897 758 929 l 758 669 q 736 615 758 635 l 529 410 q 519 385 519 400 l 519 75 q 498 21 519 43 q 443 0 476 0 q 389 22 411 0 q 367 75 367 43 l 367 385 q 358 410 367 401 m 575 1107 l 549 1107 q 495 1128 517 1107 q 473 1181 473 1149 l 473 1208 q 495 1261 473 1240 q 549 1282 516 1282 l 575 1282 q 628 1261 607 1282 q 650 1208 650 1240 l 650 1181 q 628 1128 650 1149 q 575 1107 607 1107 m 339 1107 l 313 1107 q 259 1128 281 1107 q 237 1181 237 1149 l 237 1208 q 259 1261 237 1240 q 313 1282 280 1282 l 339 1282 q 392 1261 371 1282 q 414 1208 414 1240 l 414 1181 q 392 1128 414 1149 q 339 1107 371 1107 z "},"":{"ha":888,"x_min":131,"x_max":758,"o":"m 571 1107 l 317 1107 q 263 1128 285 1107 q 241 1181 241 1149 q 263 1235 241 1213 q 317 1257 285 1257 l 571 1257 q 624 1235 603 1257 q 646 1181 646 1213 q 624 1128 646 1149 q 571 1107 603 1107 m 758 753 l 758 75 q 737 22 758 43 q 684 0 715 0 q 628 22 651 0 q 606 75 606 43 l 606 332 q 592 365 606 351 q 559 379 579 379 l 329 379 q 296 366 309 379 q 283 332 283 352 l 283 75 q 261 22 283 43 q 207 0 239 0 q 153 22 175 0 q 131 75 131 43 l 131 753 q 153 806 131 784 l 297 949 q 349 972 317 972 l 542 972 q 593 950 570 972 l 736 806 q 758 753 758 783 m 606 579 l 606 710 q 597 733 606 725 l 519 810 q 496 819 510 819 l 395 819 q 370 810 379 819 l 293 733 q 283 710 283 724 l 283 579 q 296 545 283 559 q 329 532 309 532 l 559 532 q 592 546 579 532 q 606 579 606 559 z "},"":{"ha":888,"x_min":131,"x_max":758,"o":"m 758 753 l 758 75 q 737 22 758 43 q 684 0 715 0 q 628 22 651 0 q 606 75 606 43 l 606 332 q 592 365 606 351 q 559 379 579 379 l 329 379 q 296 366 309 379 q 283 332 283 352 l 283 75 q 261 22 283 43 q 207 0 239 0 q 153 22 175 0 q 131 75 131 43 l 131 753 q 153 806 131 784 l 297 949 q 349 972 317 972 l 542 972 q 593 950 570 972 l 736 806 q 758 753 758 783 m 606 579 l 606 710 q 597 733 606 725 l 519 810 q 496 819 510 819 l 395 819 q 370 810 379 819 l 293 733 q 283 710 283 724 l 283 579 q 296 545 283 559 q 329 532 309 532 l 559 532 q 592 546 579 532 q 606 579 606 559 m 571 1107 l 317 1107 q 263 1128 285 1107 q 241 1181 241 1149 q 263 1235 241 1213 q 317 1257 285 1257 l 571 1257 q 624 1235 603 1257 q 646 1181 646 1213 q 624 1128 646 1149 q 571 1107 603 1107 z "},"":{"ha":888,"x_min":131,"x_max":758,"o":"m 385 1289 l 385 1275 q 395 1251 385 1261 l 415 1229 q 440 1219 425 1219 l 447 1219 q 471 1229 461 1219 l 493 1251 q 503 1275 503 1261 l 503 1289 q 520 1334 503 1316 q 566 1353 538 1353 q 611 1334 593 1353 q 629 1289 629 1316 l 629 1232 q 612 1192 629 1208 l 532 1109 q 490 1093 515 1093 l 397 1093 q 355 1109 370 1093 l 273 1192 q 258 1232 258 1211 l 258 1289 q 276 1334 258 1316 q 321 1353 294 1353 q 367 1334 349 1353 q 385 1289 385 1316 m 758 753 l 758 75 q 737 22 758 43 q 684 0 715 0 q 628 22 651 0 q 606 75 606 43 l 606 332 q 592 365 606 351 q 559 379 579 379 l 329 379 q 296 366 309 379 q 283 332 283 352 l 283 75 q 261 22 283 43 q 207 0 239 0 q 153 22 175 0 q 131 75 131 43 l 131 753 q 153 806 131 784 l 297 949 q 349 972 317 972 l 542 972 q 593 950 570 972 l 736 806 q 758 753 758 783 m 606 579 l 606 710 q 597 733 606 725 l 519 810 q 496 819 510 819 l 395 819 q 370 810 379 819 l 293 733 q 283 710 283 724 l 283 579 q 296 545 283 559 q 329 532 309 532 l 559 532 q 592 546 579 532 q 606 579 606 559 z "},"":{"ha":888,"x_min":131,"x_max":758,"o":"m 758 753 l 758 75 q 737 22 758 43 q 684 0 715 0 q 628 22 651 0 q 606 75 606 43 l 606 332 q 592 365 606 351 q 559 379 579 379 l 329 379 q 296 366 309 379 q 283 332 283 352 l 283 75 q 261 22 283 43 q 207 0 239 0 q 153 22 175 0 q 131 75 131 43 l 131 753 q 153 806 131 784 l 297 949 q 349 972 317 972 l 542 972 q 593 950 570 972 l 736 806 q 758 753 758 783 m 606 579 l 606 710 q 597 733 606 725 l 519 810 q 496 819 510 819 l 395 819 q 370 810 379 819 l 293 733 q 283 710 283 724 l 283 579 q 296 545 283 559 q 329 532 309 532 l 559 532 q 592 546 579 532 q 606 579 606 559 m 385 1289 l 385 1275 q 395 1251 385 1261 l 415 1229 q 440 1219 425 1219 l 447 1219 q 471 1229 461 1219 l 493 1251 q 503 1275 503 1261 l 503 1289 q 520 1334 503 1316 q 566 1353 538 1353 q 611 1334 593 1353 q 629 1289 629 1316 l 629 1232 q 612 1192 629 1208 l 532 1109 q 490 1093 515 1093 l 397 1093 q 355 1109 370 1093 l 273 1192 q 258 1232 258 1211 l 258 1289 q 276 1334 258 1316 q 321 1353 294 1353 q 367 1334 349 1353 q 385 1289 385 1316 z "},"":{"ha":888,"x_min":131,"x_max":833,"o":"m 760 755 l 760 -45 q 741 -89 760 -72 l 664 -165 q 653 -192 653 -179 q 664 -216 653 -203 l 675 -229 q 701 -240 688 -240 q 726 -229 713 -240 l 734 -221 q 778 -204 751 -204 q 818 -221 802 -204 q 833 -261 833 -237 q 815 -301 833 -287 l 779 -339 q 743 -354 764 -354 l 661 -354 q 624 -339 639 -354 l 553 -268 q 538 -232 538 -253 l 538 -150 q 551 -113 538 -130 l 633 -33 q 644 -8 644 -20 l 644 11 q 608 75 608 35 l 608 334 q 594 367 608 353 q 561 380 581 380 l 328 380 q 294 367 308 380 q 281 334 281 353 l 281 75 q 259 22 281 43 q 205 0 237 0 q 152 22 174 0 q 131 75 131 43 l 131 755 q 153 808 131 787 l 294 949 q 347 972 318 972 l 543 972 q 596 950 574 972 l 736 808 q 760 755 760 785 m 608 578 l 608 710 q 600 734 608 724 l 521 812 q 497 822 511 822 l 393 822 q 368 812 378 822 l 290 734 q 281 710 281 725 l 281 578 q 294 544 281 558 q 328 530 308 530 l 561 530 q 594 544 581 530 q 608 578 608 558 z "},"":{"ha":888,"x_min":131,"x_max":833,"o":"m 760 755 l 760 -45 q 741 -89 760 -72 l 664 -165 q 653 -192 653 -179 q 664 -216 653 -203 l 675 -229 q 701 -240 688 -240 q 726 -229 713 -240 l 734 -221 q 778 -204 751 -204 q 818 -221 802 -204 q 833 -261 833 -237 q 815 -301 833 -287 l 779 -339 q 743 -354 764 -354 l 661 -354 q 624 -339 639 -354 l 553 -268 q 538 -232 538 -253 l 538 -150 q 551 -113 538 -130 l 633 -33 q 644 -8 644 -20 l 644 11 q 608 75 608 35 l 608 334 q 594 367 608 353 q 561 380 581 380 l 328 380 q 294 367 308 380 q 281 334 281 353 l 281 75 q 259 22 281 43 q 205 0 237 0 q 152 22 174 0 q 131 75 131 43 l 131 755 q 153 808 131 787 l 294 949 q 347 972 318 972 l 543 972 q 596 950 574 972 l 736 808 q 760 755 760 785 m 608 578 l 608 710 q 600 734 608 724 l 521 812 q 497 822 511 822 l 393 822 q 368 812 378 822 l 290 734 q 281 710 281 725 l 281 578 q 294 544 281 558 q 328 530 308 530 l 561 530 q 594 544 581 530 q 608 578 608 558 z "},"":{"ha":888,"x_min":131,"x_max":758,"o":"m 551 1225 l 441 1116 q 389 1093 419 1093 q 335 1115 357 1093 q 314 1168 314 1136 q 336 1219 314 1200 l 446 1331 q 498 1353 468 1353 q 552 1331 530 1353 q 574 1278 574 1310 q 551 1225 574 1247 m 283 708 l 283 264 q 293 239 283 248 l 371 163 q 396 153 381 153 l 497 153 q 521 163 511 153 l 600 239 q 608 264 608 245 l 608 304 q 630 358 608 336 q 685 379 652 379 q 738 358 717 379 q 758 304 758 336 l 758 220 q 736 167 758 189 l 596 22 q 543 0 574 0 l 350 0 q 296 24 319 0 l 153 167 q 131 220 131 189 l 131 753 q 153 806 131 784 l 296 949 q 350 972 319 972 l 543 972 q 596 950 574 972 l 736 806 q 758 753 758 783 l 758 668 q 738 614 758 635 q 685 593 717 593 q 631 614 653 593 q 608 668 608 636 l 608 708 q 600 733 608 727 l 521 810 q 497 819 511 819 l 396 819 q 371 810 380 819 l 293 733 q 283 708 283 724 z "},"":{"ha":888,"x_min":131,"x_max":758,"o":"m 283 708 l 283 264 q 293 239 283 248 l 371 163 q 396 153 381 153 l 497 153 q 521 163 511 153 l 600 239 q 608 264 608 245 l 608 304 q 630 358 608 336 q 685 379 652 379 q 738 358 717 379 q 758 304 758 336 l 758 220 q 736 167 758 189 l 596 22 q 543 0 574 0 l 350 0 q 296 24 319 0 l 153 167 q 131 220 131 189 l 131 753 q 153 806 131 784 l 296 949 q 350 972 319 972 l 543 972 q 596 950 574 972 l 736 806 q 758 753 758 783 l 758 668 q 738 614 758 635 q 685 593 717 593 q 631 614 653 593 q 608 668 608 636 l 608 708 q 600 733 608 727 l 521 810 q 497 819 511 819 l 396 819 q 371 810 380 819 l 293 733 q 283 708 283 724 m 551 1225 l 441 1116 q 389 1093 419 1093 q 335 1115 357 1093 q 314 1168 314 1136 q 336 1219 314 1200 l 446 1331 q 498 1353 468 1353 q 552 1331 530 1353 q 574 1278 574 1310 q 551 1225 574 1247 z "},"":{"ha":888,"x_min":131,"x_max":758,"o":"m 415 1161 l 366 1112 q 318 1093 353 1093 q 271 1113 290 1093 q 252 1160 252 1132 q 271 1208 252 1184 l 397 1332 q 444 1353 416 1353 q 492 1332 471 1353 l 616 1208 q 636 1160 636 1189 q 617 1112 636 1131 q 570 1093 599 1093 q 521 1112 540 1093 l 472 1161 q 444 1173 460 1173 q 415 1161 427 1173 m 283 708 l 283 264 q 293 239 283 248 l 371 163 q 396 153 381 153 l 497 153 q 521 163 511 153 l 600 239 q 608 264 608 245 l 608 304 q 630 358 608 336 q 685 379 652 379 q 738 358 717 379 q 758 304 758 336 l 758 220 q 736 167 758 189 l 596 22 q 543 0 574 0 l 350 0 q 296 24 319 0 l 153 167 q 131 220 131 189 l 131 753 q 153 806 131 784 l 296 949 q 350 972 319 972 l 543 972 q 596 950 574 972 l 736 806 q 758 753 758 783 l 758 668 q 738 614 758 635 q 685 593 717 593 q 631 614 653 593 q 608 668 608 636 l 608 708 q 600 733 608 727 l 521 810 q 497 819 511 819 l 396 819 q 371 810 380 819 l 293 733 q 283 708 283 724 z "},"":{"ha":888,"x_min":131,"x_max":758,"o":"m 283 708 l 283 264 q 293 239 283 248 l 371 163 q 396 153 381 153 l 497 153 q 521 163 511 153 l 600 239 q 608 264 608 245 l 608 304 q 630 358 608 336 q 685 379 652 379 q 738 358 717 379 q 758 304 758 336 l 758 220 q 736 167 758 189 l 596 22 q 543 0 574 0 l 350 0 q 296 24 319 0 l 153 167 q 131 220 131 189 l 131 753 q 153 806 131 784 l 296 949 q 350 972 319 972 l 543 972 q 596 950 574 972 l 736 806 q 758 753 758 783 l 758 668 q 738 614 758 635 q 685 593 717 593 q 631 614 653 593 q 608 668 608 636 l 608 708 q 600 733 608 727 l 521 810 q 497 819 511 819 l 396 819 q 371 810 380 819 l 293 733 q 283 708 283 724 m 415 1161 l 366 1112 q 318 1093 353 1093 q 271 1113 290 1093 q 252 1160 252 1132 q 271 1208 252 1184 l 397 1332 q 444 1353 416 1353 q 492 1332 471 1353 l 616 1208 q 636 1160 636 1189 q 617 1112 636 1131 q 570 1093 599 1093 q 521 1112 540 1093 l 472 1161 q 444 1173 460 1173 q 415 1161 427 1173 z "},"":{"ha":888,"x_min":131,"x_max":758,"o":"m 464 1114 l 424 1114 q 371 1135 392 1114 q 350 1187 350 1156 l 350 1227 q 371 1281 350 1259 q 424 1303 392 1303 l 464 1303 q 517 1281 496 1303 q 539 1227 539 1259 l 539 1187 q 517 1135 539 1156 q 464 1114 496 1114 m 283 708 l 283 264 q 293 239 283 248 l 371 163 q 396 153 381 153 l 497 153 q 521 163 511 153 l 600 239 q 608 264 608 245 l 608 304 q 630 358 608 336 q 685 379 652 379 q 738 358 717 379 q 758 304 758 336 l 758 220 q 736 167 758 189 l 596 22 q 543 0 574 0 l 350 0 q 296 24 319 0 l 153 167 q 131 220 131 189 l 131 753 q 153 806 131 784 l 296 949 q 350 972 319 972 l 543 972 q 596 950 574 972 l 736 806 q 758 753 758 783 l 758 668 q 738 614 758 635 q 685 593 717 593 q 631 614 653 593 q 608 668 608 636 l 608 708 q 600 733 608 727 l 521 810 q 497 819 511 819 l 396 819 q 371 810 380 819 l 293 733 q 283 708 283 724 z "},"":{"ha":888,"x_min":131,"x_max":758,"o":"m 283 708 l 283 264 q 293 239 283 248 l 371 163 q 396 153 381 153 l 497 153 q 521 163 511 153 l 600 239 q 608 264 608 245 l 608 304 q 630 358 608 336 q 685 379 652 379 q 738 358 717 379 q 758 304 758 336 l 758 220 q 736 167 758 189 l 596 22 q 543 0 574 0 l 350 0 q 296 24 319 0 l 153 167 q 131 220 131 189 l 131 753 q 153 806 131 784 l 296 949 q 350 972 319 972 l 543 972 q 596 950 574 972 l 736 806 q 758 753 758 783 l 758 668 q 738 614 758 635 q 685 593 717 593 q 631 614 653 593 q 608 668 608 636 l 608 708 q 600 733 608 727 l 521 810 q 497 819 511 819 l 396 819 q 371 810 380 819 l 293 733 q 283 708 283 724 m 464 1114 l 424 1114 q 371 1135 392 1114 q 350 1187 350 1156 l 350 1227 q 371 1281 350 1259 q 424 1303 392 1303 l 464 1303 q 517 1281 496 1303 q 539 1227 539 1259 l 539 1187 q 517 1135 539 1156 q 464 1114 496 1114 z "},"":{"ha":888,"x_min":131,"x_max":758,"o":"m 366 1332 l 414 1283 q 444 1271 426 1271 q 472 1283 460 1271 l 521 1332 q 568 1353 542 1353 q 616 1333 596 1353 q 636 1284 636 1312 q 618 1238 636 1261 l 492 1112 q 444 1093 473 1093 q 396 1112 415 1093 l 271 1238 q 252 1284 252 1262 q 272 1332 252 1311 q 318 1353 292 1353 q 366 1332 347 1353 m 283 708 l 283 264 q 293 239 283 248 l 371 163 q 396 153 381 153 l 497 153 q 521 163 511 153 l 600 239 q 608 264 608 245 l 608 304 q 630 358 608 336 q 685 379 652 379 q 738 358 717 379 q 758 304 758 336 l 758 220 q 736 167 758 189 l 596 22 q 543 0 574 0 l 350 0 q 296 24 319 0 l 153 167 q 131 220 131 189 l 131 753 q 153 806 131 784 l 296 949 q 350 972 319 972 l 543 972 q 596 950 574 972 l 736 806 q 758 753 758 783 l 758 668 q 738 614 758 635 q 685 593 717 593 q 631 614 653 593 q 608 668 608 636 l 608 708 q 600 733 608 727 l 521 810 q 497 819 511 819 l 396 819 q 371 810 380 819 l 293 733 q 283 708 283 724 z "},"":{"ha":888,"x_min":131,"x_max":758,"o":"m 283 708 l 283 264 q 293 239 283 248 l 371 163 q 396 153 381 153 l 497 153 q 521 163 511 153 l 600 239 q 608 264 608 245 l 608 304 q 630 358 608 336 q 685 379 652 379 q 738 358 717 379 q 758 304 758 336 l 758 220 q 736 167 758 189 l 596 22 q 543 0 574 0 l 350 0 q 296 24 319 0 l 153 167 q 131 220 131 189 l 131 753 q 153 806 131 784 l 296 949 q 350 972 319 972 l 543 972 q 596 950 574 972 l 736 806 q 758 753 758 783 l 758 668 q 738 614 758 635 q 685 593 717 593 q 631 614 653 593 q 608 668 608 636 l 608 708 q 600 733 608 727 l 521 810 q 497 819 511 819 l 396 819 q 371 810 380 819 l 293 733 q 283 708 283 724 m 366 1332 l 414 1283 q 444 1271 426 1271 q 472 1283 460 1271 l 521 1332 q 568 1353 542 1353 q 616 1333 596 1353 q 636 1284 636 1312 q 618 1238 636 1261 l 492 1112 q 444 1093 473 1093 q 396 1112 415 1093 l 271 1238 q 252 1284 252 1262 q 272 1332 252 1311 q 318 1353 292 1353 q 366 1332 347 1353 z "},"":{"ha":888,"x_min":131,"x_max":758,"o":"m 366 1332 l 414 1283 q 444 1271 426 1271 q 472 1283 460 1271 l 521 1332 q 568 1353 542 1353 q 616 1333 596 1353 q 636 1284 636 1312 q 618 1238 636 1261 l 492 1112 q 444 1093 473 1093 q 396 1112 415 1093 l 271 1238 q 252 1284 252 1262 q 272 1332 252 1311 q 318 1353 292 1353 q 366 1332 347 1353 m 593 950 l 736 806 q 758 753 758 783 l 758 220 q 736 167 758 189 l 593 22 q 542 0 570 0 l 207 0 q 153 22 175 0 q 131 77 131 45 l 131 896 q 153 950 131 928 q 207 972 175 972 l 542 972 q 593 950 570 972 m 519 163 l 597 239 q 606 264 606 249 l 606 708 q 597 733 606 723 l 519 810 q 496 819 510 819 l 329 819 q 296 806 309 819 q 283 772 283 792 l 283 200 q 296 166 283 180 q 329 153 309 153 l 496 153 q 519 163 509 153 z "},"":{"ha":888,"x_min":131,"x_max":758,"o":"m 368 1317 l 416 1268 q 446 1257 433 1257 q 473 1268 462 1257 l 522 1317 q 568 1336 541 1336 q 615 1317 596 1336 q 635 1270 635 1297 q 618 1223 635 1242 l 493 1099 q 446 1080 475 1080 q 399 1099 415 1080 l 275 1223 q 256 1270 256 1243 q 275 1317 256 1297 q 322 1336 294 1336 q 368 1317 349 1336 m 593 950 l 736 806 q 758 753 758 783 l 758 220 q 736 167 758 189 l 593 22 q 542 0 570 0 l 207 0 q 153 22 175 0 q 131 77 131 45 l 131 896 q 153 950 131 928 q 207 972 175 972 l 542 972 q 593 950 570 972 m 519 163 l 597 239 q 606 264 606 249 l 606 708 q 597 733 606 723 l 519 810 q 496 819 510 819 l 329 819 q 296 806 309 819 q 283 772 283 792 l 283 200 q 296 166 283 180 q 329 153 309 153 l 496 153 q 519 163 509 153 z "},"":{"ha":888,"x_min":36,"x_max":758,"o":"m 131 568 l 131 897 q 152 951 131 929 q 205 972 174 972 l 543 972 q 596 950 574 972 l 736 808 q 758 755 758 786 l 758 216 q 736 164 758 186 l 596 22 q 543 0 574 0 l 205 0 q 152 22 174 0 q 131 75 131 43 l 131 406 q 125 412 131 412 l 111 412 q 58 434 79 412 q 36 488 36 456 q 57 540 36 519 q 111 561 79 561 l 125 561 q 131 568 131 561 m 281 406 l 281 197 q 294 164 281 178 q 328 150 308 150 l 497 150 q 521 160 511 150 l 600 237 q 608 262 608 245 l 608 710 q 600 734 608 726 l 521 812 q 497 822 511 822 l 328 822 q 294 808 308 822 q 281 775 281 795 l 281 568 q 288 561 281 561 l 475 561 q 529 540 507 561 q 550 488 550 519 q 528 434 550 456 q 475 412 507 412 l 288 412 q 281 406 281 412 z "},"":{"ha":888,"x_min":36,"x_max":758,"o":"m 131 568 l 131 897 q 152 951 131 929 q 205 972 174 972 l 543 972 q 596 950 574 972 l 736 808 q 758 755 758 786 l 758 216 q 736 164 758 186 l 596 22 q 543 0 574 0 l 205 0 q 152 22 174 0 q 131 75 131 43 l 131 406 q 125 412 131 412 l 111 412 q 58 434 79 412 q 36 488 36 456 q 57 540 36 519 q 111 561 79 561 l 125 561 q 131 568 131 561 m 281 406 l 281 197 q 294 164 281 178 q 328 150 308 150 l 497 150 q 521 160 511 150 l 600 237 q 608 262 608 245 l 608 710 q 600 734 608 726 l 521 812 q 497 822 511 822 l 328 822 q 294 808 308 822 q 281 775 281 795 l 281 568 q 288 561 281 561 l 475 561 q 529 540 507 561 q 550 488 550 519 q 528 434 550 456 q 475 412 507 412 l 288 412 q 281 406 281 412 z "},"":{"ha":888,"x_min":131,"x_max":758,"o":"m 571 1107 l 317 1107 q 263 1128 285 1107 q 241 1181 241 1149 q 263 1235 241 1213 q 317 1257 285 1257 l 571 1257 q 624 1235 603 1257 q 646 1181 646 1213 q 624 1128 646 1149 q 571 1107 603 1107 m 131 77 l 131 896 q 153 950 131 928 q 207 972 175 972 l 685 972 q 738 950 717 972 q 758 896 758 928 q 738 841 758 863 q 685 819 717 819 l 330 819 q 297 806 311 819 q 283 772 283 792 l 283 608 q 297 574 283 588 q 330 559 311 559 l 593 559 q 647 539 625 559 q 668 486 668 518 q 646 433 668 454 q 593 411 625 411 l 330 411 q 297 397 311 411 q 283 363 283 382 l 283 200 q 297 166 283 180 q 330 153 311 153 l 685 153 q 738 131 717 153 q 758 77 758 109 q 738 22 758 44 q 685 0 717 0 l 207 0 q 153 22 175 0 q 131 77 131 45 z "},"":{"ha":888,"x_min":131,"x_max":758,"o":"m 131 77 l 131 896 q 153 950 131 928 q 207 972 175 972 l 685 972 q 738 950 717 972 q 758 896 758 928 q 738 841 758 863 q 685 819 717 819 l 330 819 q 297 806 311 819 q 283 772 283 792 l 283 608 q 297 574 283 588 q 330 559 311 559 l 593 559 q 647 539 625 559 q 668 486 668 518 q 646 433 668 454 q 593 411 625 411 l 330 411 q 297 397 311 411 q 283 363 283 382 l 283 200 q 297 166 283 180 q 330 153 311 153 l 685 153 q 738 131 717 153 q 758 77 758 109 q 738 22 758 44 q 685 0 717 0 l 207 0 q 153 22 175 0 q 131 77 131 45 m 571 1107 l 317 1107 q 263 1128 285 1107 q 241 1181 241 1149 q 263 1235 241 1213 q 317 1257 285 1257 l 571 1257 q 624 1235 603 1257 q 646 1181 646 1213 q 624 1128 646 1149 q 571 1107 603 1107 z "},"":{"ha":888,"x_min":131,"x_max":758,"o":"m 385 1289 l 385 1275 q 395 1251 385 1261 l 415 1229 q 440 1219 425 1219 l 447 1219 q 471 1229 461 1219 l 493 1251 q 503 1275 503 1261 l 503 1289 q 520 1334 503 1316 q 566 1353 538 1353 q 611 1334 593 1353 q 629 1289 629 1316 l 629 1232 q 612 1192 629 1208 l 532 1109 q 490 1093 515 1093 l 397 1093 q 355 1109 370 1093 l 273 1192 q 258 1232 258 1211 l 258 1289 q 276 1334 258 1316 q 321 1353 294 1353 q 367 1334 349 1353 q 385 1289 385 1316 m 131 77 l 131 896 q 153 950 131 928 q 207 972 175 972 l 685 972 q 738 950 717 972 q 758 896 758 928 q 738 841 758 863 q 685 819 717 819 l 330 819 q 297 806 311 819 q 283 772 283 792 l 283 608 q 297 574 283 588 q 330 559 311 559 l 593 559 q 647 539 625 559 q 668 486 668 518 q 646 433 668 454 q 593 411 625 411 l 330 411 q 297 397 311 411 q 283 363 283 382 l 283 200 q 297 166 283 180 q 330 153 311 153 l 685 153 q 738 131 717 153 q 758 77 758 109 q 738 22 758 44 q 685 0 717 0 l 207 0 q 153 22 175 0 q 131 77 131 45 z "},"":{"ha":888,"x_min":131,"x_max":758,"o":"m 131 77 l 131 896 q 153 950 131 928 q 207 972 175 972 l 685 972 q 738 950 717 972 q 758 896 758 928 q 738 841 758 863 q 685 819 717 819 l 330 819 q 297 806 311 819 q 283 772 283 792 l 283 608 q 297 574 283 588 q 330 559 311 559 l 593 559 q 647 539 625 559 q 668 486 668 518 q 646 433 668 454 q 593 411 625 411 l 330 411 q 297 397 311 411 q 283 363 283 382 l 283 200 q 297 166 283 180 q 330 153 311 153 l 685 153 q 738 131 717 153 q 758 77 758 109 q 738 22 758 44 q 685 0 717 0 l 207 0 q 153 22 175 0 q 131 77 131 45 m 385 1289 l 385 1275 q 395 1251 385 1261 l 415 1229 q 440 1219 425 1219 l 447 1219 q 471 1229 461 1219 l 493 1251 q 503 1275 503 1261 l 503 1289 q 520 1334 503 1316 q 566 1353 538 1353 q 611 1334 593 1353 q 629 1289 629 1316 l 629 1232 q 612 1192 629 1208 l 532 1109 q 490 1093 515 1093 l 397 1093 q 355 1109 370 1093 l 273 1192 q 258 1232 258 1211 l 258 1289 q 276 1334 258 1316 q 321 1353 294 1353 q 367 1334 349 1353 q 385 1289 385 1316 z "},"":{"ha":888,"x_min":131,"x_max":758,"o":"m 464 1114 l 424 1114 q 371 1135 392 1114 q 350 1187 350 1156 l 350 1227 q 371 1281 350 1259 q 424 1303 392 1303 l 464 1303 q 517 1281 496 1303 q 539 1227 539 1259 l 539 1187 q 517 1135 539 1156 q 464 1114 496 1114 m 131 77 l 131 896 q 153 950 131 928 q 207 972 175 972 l 685 972 q 738 950 717 972 q 758 896 758 928 q 738 841 758 863 q 685 819 717 819 l 330 819 q 297 806 311 819 q 283 772 283 792 l 283 608 q 297 574 283 588 q 330 559 311 559 l 593 559 q 647 539 625 559 q 668 486 668 518 q 646 433 668 454 q 593 411 625 411 l 330 411 q 297 397 311 411 q 283 363 283 382 l 283 200 q 297 166 283 180 q 330 153 311 153 l 685 153 q 738 131 717 153 q 758 77 758 109 q 738 22 758 44 q 685 0 717 0 l 207 0 q 153 22 175 0 q 131 77 131 45 z "},"":{"ha":888,"x_min":131,"x_max":758,"o":"m 131 77 l 131 896 q 153 950 131 928 q 207 972 175 972 l 685 972 q 738 950 717 972 q 758 896 758 928 q 738 841 758 863 q 685 819 717 819 l 330 819 q 297 806 311 819 q 283 772 283 792 l 283 608 q 297 574 283 588 q 330 559 311 559 l 593 559 q 647 539 625 559 q 668 486 668 518 q 646 433 668 454 q 593 411 625 411 l 330 411 q 297 397 311 411 q 283 363 283 382 l 283 200 q 297 166 283 180 q 330 153 311 153 l 685 153 q 738 131 717 153 q 758 77 758 109 q 738 22 758 44 q 685 0 717 0 l 207 0 q 153 22 175 0 q 131 77 131 45 m 464 1114 l 424 1114 q 371 1135 392 1114 q 350 1187 350 1156 l 350 1227 q 371 1281 350 1259 q 424 1303 392 1303 l 464 1303 q 517 1281 496 1303 q 539 1227 539 1259 l 539 1187 q 517 1135 539 1156 q 464 1114 496 1114 z "},"":{"ha":888,"x_min":131,"x_max":833,"o":"m 131 75 l 131 897 q 152 951 131 929 q 205 972 174 972 l 685 972 q 738 951 717 972 q 758 897 758 930 q 738 843 758 865 q 685 822 717 822 l 328 822 q 294 808 308 822 q 281 775 281 795 l 281 608 q 294 574 281 588 q 328 559 308 559 l 593 559 q 647 539 625 559 q 668 486 668 518 q 646 433 668 454 q 593 411 625 411 l 328 411 q 294 397 308 411 q 281 363 281 382 l 281 197 q 294 164 281 178 q 328 150 308 150 l 685 150 q 734 131 713 150 q 758 82 755 111 q 760 68 760 79 l 760 -45 q 741 -89 760 -72 l 664 -165 q 653 -192 653 -179 q 664 -216 653 -203 l 675 -229 q 701 -240 688 -240 q 726 -229 713 -240 l 734 -221 q 778 -204 751 -204 q 818 -221 802 -204 q 833 -261 833 -237 q 815 -301 833 -287 l 779 -339 q 743 -354 764 -354 l 661 -354 q 624 -339 639 -354 l 553 -268 q 538 -232 538 -253 l 538 -150 q 551 -113 538 -130 l 633 -33 q 644 -8 644 -20 l 644 0 l 205 0 q 152 22 174 0 q 131 75 131 43 z "},"":{"ha":888,"x_min":131,"x_max":833,"o":"m 131 75 l 131 897 q 152 951 131 929 q 205 972 174 972 l 685 972 q 738 951 717 972 q 758 897 758 930 q 738 843 758 865 q 685 822 717 822 l 328 822 q 294 808 308 822 q 281 775 281 795 l 281 608 q 294 574 281 588 q 328 559 308 559 l 593 559 q 647 539 625 559 q 668 486 668 518 q 646 433 668 454 q 593 411 625 411 l 328 411 q 294 397 308 411 q 281 363 281 382 l 281 197 q 294 164 281 178 q 328 150 308 150 l 685 150 q 734 131 713 150 q 758 82 755 111 q 760 68 760 79 l 760 -45 q 741 -89 760 -72 l 664 -165 q 653 -192 653 -179 q 664 -216 653 -203 l 675 -229 q 701 -240 688 -240 q 726 -229 713 -240 l 734 -221 q 778 -204 751 -204 q 818 -221 802 -204 q 833 -261 833 -237 q 815 -301 833 -287 l 779 -339 q 743 -354 764 -354 l 661 -354 q 624 -339 639 -354 l 553 -268 q 538 -232 538 -253 l 538 -150 q 551 -113 538 -130 l 633 -33 q 644 -8 644 -20 l 644 0 l 205 0 q 152 22 174 0 q 131 75 131 43 z "},"":{"ha":888,"x_min":131,"x_max":758,"o":"m 366 1332 l 414 1283 q 444 1271 426 1271 q 472 1283 460 1271 l 521 1332 q 568 1353 542 1353 q 616 1333 596 1353 q 636 1284 636 1312 q 618 1238 636 1261 l 492 1112 q 444 1093 473 1093 q 396 1112 415 1093 l 271 1238 q 252 1284 252 1262 q 272 1332 252 1311 q 318 1353 292 1353 q 366 1332 347 1353 m 131 77 l 131 896 q 153 950 131 928 q 207 972 175 972 l 685 972 q 738 950 717 972 q 758 896 758 928 q 738 841 758 863 q 685 819 717 819 l 330 819 q 297 806 311 819 q 283 772 283 792 l 283 608 q 297 574 283 588 q 330 559 311 559 l 593 559 q 647 539 625 559 q 668 486 668 518 q 646 433 668 454 q 593 411 625 411 l 330 411 q 297 397 311 411 q 283 363 283 382 l 283 200 q 297 166 283 180 q 330 153 311 153 l 685 153 q 738 131 717 153 q 758 77 758 109 q 738 22 758 44 q 685 0 717 0 l 207 0 q 153 22 175 0 q 131 77 131 45 z "},"":{"ha":888,"x_min":131,"x_max":758,"o":"m 131 77 l 131 896 q 153 950 131 928 q 207 972 175 972 l 685 972 q 738 950 717 972 q 758 896 758 928 q 738 841 758 863 q 685 819 717 819 l 330 819 q 297 806 311 819 q 283 772 283 792 l 283 608 q 297 574 283 588 q 330 559 311 559 l 593 559 q 647 539 625 559 q 668 486 668 518 q 646 433 668 454 q 593 411 625 411 l 330 411 q 297 397 311 411 q 283 363 283 382 l 283 200 q 297 166 283 180 q 330 153 311 153 l 685 153 q 738 131 717 153 q 758 77 758 109 q 738 22 758 44 q 685 0 717 0 l 207 0 q 153 22 175 0 q 131 77 131 45 m 366 1332 l 414 1283 q 444 1271 426 1271 q 472 1283 460 1271 l 521 1332 q 568 1353 542 1353 q 616 1333 596 1353 q 636 1284 636 1312 q 618 1238 636 1261 l 492 1112 q 444 1093 473 1093 q 396 1112 415 1093 l 271 1238 q 252 1284 252 1262 q 272 1332 252 1311 q 318 1353 292 1353 q 366 1332 347 1353 z "},"":{"ha":888,"x_min":131,"x_max":758,"o":"m 415 1161 l 366 1112 q 318 1093 353 1093 q 271 1113 290 1093 q 252 1160 252 1132 q 271 1208 252 1184 l 397 1332 q 444 1353 416 1353 q 492 1332 471 1353 l 616 1208 q 636 1160 636 1189 q 617 1112 636 1131 q 570 1093 599 1093 q 521 1112 540 1093 l 472 1161 q 444 1173 460 1173 q 415 1161 427 1173 m 606 721 l 606 737 q 597 760 606 749 l 549 810 q 524 819 539 819 l 367 819 q 342 810 351 819 l 293 760 q 283 737 283 750 l 283 235 q 293 212 283 222 l 342 163 q 367 153 352 153 l 524 153 q 549 163 538 153 l 597 212 q 606 235 606 222 l 606 364 q 592 397 606 384 q 559 411 579 411 l 481 411 q 428 433 450 411 q 406 486 406 454 q 428 538 406 517 q 481 559 450 559 l 684 559 q 737 539 715 559 q 758 486 758 518 l 758 192 q 737 138 758 162 l 621 24 q 567 0 600 0 l 322 0 q 269 24 288 0 l 153 138 q 131 192 131 159 l 131 782 q 153 835 131 813 l 269 949 q 322 972 288 972 l 567 972 q 621 949 600 972 l 737 835 q 758 782 758 814 l 758 721 q 737 668 758 689 q 684 647 715 647 q 628 668 651 647 q 606 721 606 689 z "},"":{"ha":888,"x_min":131,"x_max":758,"o":"m 606 721 l 606 737 q 597 760 606 749 l 549 810 q 524 819 539 819 l 367 819 q 342 810 351 819 l 293 760 q 283 737 283 750 l 283 235 q 293 212 283 222 l 342 163 q 367 153 352 153 l 524 153 q 549 163 538 153 l 597 212 q 606 235 606 222 l 606 364 q 592 397 606 384 q 559 411 579 411 l 481 411 q 428 433 450 411 q 406 486 406 454 q 428 538 406 517 q 481 559 450 559 l 684 559 q 737 539 715 559 q 758 486 758 518 l 758 192 q 737 138 758 162 l 621 24 q 567 0 600 0 l 322 0 q 269 24 288 0 l 153 138 q 131 192 131 159 l 131 782 q 153 835 131 813 l 269 949 q 322 972 288 972 l 567 972 q 621 949 600 972 l 737 835 q 758 782 758 814 l 758 721 q 737 668 758 689 q 684 647 715 647 q 628 668 651 647 q 606 721 606 689 m 415 1161 l 366 1112 q 318 1093 353 1093 q 271 1113 290 1093 q 252 1160 252 1132 q 271 1208 252 1184 l 397 1332 q 444 1353 416 1353 q 492 1332 471 1353 l 616 1208 q 636 1160 636 1189 q 617 1112 636 1131 q 570 1093 599 1093 q 521 1112 540 1093 l 472 1161 q 444 1173 460 1173 q 415 1161 427 1173 z "},"":{"ha":888,"x_min":131,"x_max":758,"o":"m 385 1289 l 385 1275 q 395 1251 385 1261 l 415 1229 q 440 1219 425 1219 l 447 1219 q 471 1229 461 1219 l 493 1251 q 503 1275 503 1261 l 503 1289 q 520 1334 503 1316 q 566 1353 538 1353 q 611 1334 593 1353 q 629 1289 629 1316 l 629 1232 q 612 1192 629 1208 l 532 1109 q 490 1093 515 1093 l 397 1093 q 355 1109 370 1093 l 273 1192 q 258 1232 258 1211 l 258 1289 q 276 1334 258 1316 q 321 1353 294 1353 q 367 1334 349 1353 q 385 1289 385 1316 m 606 721 l 606 737 q 597 760 606 749 l 549 810 q 524 819 539 819 l 367 819 q 342 810 351 819 l 293 760 q 283 737 283 750 l 283 235 q 293 212 283 222 l 342 163 q 367 153 352 153 l 524 153 q 549 163 538 153 l 597 212 q 606 235 606 222 l 606 364 q 592 397 606 384 q 559 411 579 411 l 481 411 q 428 433 450 411 q 406 486 406 454 q 428 538 406 517 q 481 559 450 559 l 684 559 q 737 539 715 559 q 758 486 758 518 l 758 192 q 737 138 758 162 l 621 24 q 567 0 600 0 l 322 0 q 269 24 288 0 l 153 138 q 131 192 131 159 l 131 782 q 153 835 131 813 l 269 949 q 322 972 288 972 l 567 972 q 621 949 600 972 l 737 835 q 758 782 758 814 l 758 721 q 737 668 758 689 q 684 647 715 647 q 628 668 651 647 q 606 721 606 689 z "},"":{"ha":888,"x_min":131,"x_max":758,"o":"m 606 721 l 606 737 q 597 760 606 749 l 549 810 q 524 819 539 819 l 367 819 q 342 810 351 819 l 293 760 q 283 737 283 750 l 283 235 q 293 212 283 222 l 342 163 q 367 153 352 153 l 524 153 q 549 163 538 153 l 597 212 q 606 235 606 222 l 606 364 q 592 397 606 384 q 559 411 579 411 l 481 411 q 428 433 450 411 q 406 486 406 454 q 428 538 406 517 q 481 559 450 559 l 684 559 q 737 539 715 559 q 758 486 758 518 l 758 192 q 737 138 758 162 l 621 24 q 567 0 600 0 l 322 0 q 269 24 288 0 l 153 138 q 131 192 131 159 l 131 782 q 153 835 131 813 l 269 949 q 322 972 288 972 l 567 972 q 621 949 600 972 l 737 835 q 758 782 758 814 l 758 721 q 737 668 758 689 q 684 647 715 647 q 628 668 651 647 q 606 721 606 689 m 385 1289 l 385 1275 q 395 1251 385 1261 l 415 1229 q 440 1219 425 1219 l 447 1219 q 471 1229 461 1219 l 493 1251 q 503 1275 503 1261 l 503 1289 q 520 1334 503 1316 q 566 1353 538 1353 q 611 1334 593 1353 q 629 1289 629 1316 l 629 1232 q 612 1192 629 1208 l 532 1109 q 490 1093 515 1093 l 397 1093 q 355 1109 370 1093 l 273 1192 q 258 1232 258 1211 l 258 1289 q 276 1334 258 1316 q 321 1353 294 1353 q 367 1334 349 1353 q 385 1289 385 1316 z "},"":{"ha":888,"x_min":131,"x_max":758,"o":"m 464 1114 l 424 1114 q 371 1135 392 1114 q 350 1187 350 1156 l 350 1227 q 371 1281 350 1259 q 424 1303 392 1303 l 464 1303 q 517 1281 496 1303 q 539 1227 539 1259 l 539 1187 q 517 1135 539 1156 q 464 1114 496 1114 m 606 721 l 606 737 q 597 760 606 749 l 549 810 q 524 819 539 819 l 367 819 q 342 810 351 819 l 293 760 q 283 737 283 750 l 283 235 q 293 212 283 222 l 342 163 q 367 153 352 153 l 524 153 q 549 163 538 153 l 597 212 q 606 235 606 222 l 606 364 q 592 397 606 384 q 559 411 579 411 l 481 411 q 428 433 450 411 q 406 486 406 454 q 428 538 406 517 q 481 559 450 559 l 684 559 q 737 539 715 559 q 758 486 758 518 l 758 192 q 737 138 758 162 l 621 24 q 567 0 600 0 l 322 0 q 269 24 288 0 l 153 138 q 131 192 131 159 l 131 782 q 153 835 131 813 l 269 949 q 322 972 288 972 l 567 972 q 621 949 600 972 l 737 835 q 758 782 758 814 l 758 721 q 737 668 758 689 q 684 647 715 647 q 628 668 651 647 q 606 721 606 689 z "},"":{"ha":888,"x_min":131,"x_max":758,"o":"m 606 721 l 606 737 q 597 760 606 749 l 549 810 q 524 819 539 819 l 367 819 q 342 810 351 819 l 293 760 q 283 737 283 750 l 283 235 q 293 212 283 222 l 342 163 q 367 153 352 153 l 524 153 q 549 163 538 153 l 597 212 q 606 235 606 222 l 606 364 q 592 397 606 384 q 559 411 579 411 l 481 411 q 428 433 450 411 q 406 486 406 454 q 428 538 406 517 q 481 559 450 559 l 684 559 q 737 539 715 559 q 758 486 758 518 l 758 192 q 737 138 758 162 l 621 24 q 567 0 600 0 l 322 0 q 269 24 288 0 l 153 138 q 131 192 131 159 l 131 782 q 153 835 131 813 l 269 949 q 322 972 288 972 l 567 972 q 621 949 600 972 l 737 835 q 758 782 758 814 l 758 721 q 737 668 758 689 q 684 647 715 647 q 628 668 651 647 q 606 721 606 689 m 464 1114 l 424 1114 q 371 1135 392 1114 q 350 1187 350 1156 l 350 1227 q 371 1281 350 1259 q 424 1303 392 1303 l 464 1303 q 517 1281 496 1303 q 539 1227 539 1259 l 539 1187 q 517 1135 539 1156 q 464 1114 496 1114 z "},"":{"ha":888,"x_min":131,"x_max":758,"o":"m 606 721 l 606 737 q 597 760 606 749 l 549 810 q 524 819 539 819 l 367 819 q 342 810 351 819 l 293 760 q 283 737 283 750 l 283 235 q 293 212 283 222 l 342 163 q 367 153 352 153 l 524 153 q 549 163 538 153 l 597 212 q 606 235 606 222 l 606 364 q 592 397 606 384 q 559 411 579 411 l 481 411 q 428 433 450 411 q 406 486 406 454 q 428 538 406 517 q 481 559 450 559 l 684 559 q 737 539 715 559 q 758 486 758 518 l 758 192 q 737 138 758 162 l 621 24 q 567 0 600 0 l 322 0 q 269 24 288 0 l 153 138 q 131 192 131 159 l 131 782 q 153 835 131 813 l 269 949 q 322 972 288 972 l 567 972 q 621 949 600 972 l 737 835 q 758 782 758 814 l 758 721 q 737 668 758 689 q 684 647 715 647 q 628 668 651 647 q 606 721 606 689 m 551 -222 l 441 -334 q 389 -354 418 -354 q 336 -332 359 -354 q 314 -281 314 -311 q 336 -228 314 -250 l 446 -117 q 498 -96 467 -96 q 551 -118 528 -96 q 574 -170 574 -140 q 551 -222 574 -200 z "},"":{"ha":888,"x_min":131,"x_max":758,"o":"m 606 721 l 606 737 q 597 760 606 749 l 549 810 q 524 819 539 819 l 367 819 q 342 810 351 819 l 293 760 q 283 737 283 750 l 283 235 q 293 212 283 222 l 342 163 q 367 153 352 153 l 524 153 q 549 163 538 153 l 597 212 q 606 235 606 222 l 606 364 q 592 397 606 384 q 559 411 579 411 l 481 411 q 428 433 450 411 q 406 486 406 454 q 428 538 406 517 q 481 559 450 559 l 684 559 q 737 539 715 559 q 758 486 758 518 l 758 192 q 737 138 758 162 l 621 24 q 567 0 600 0 l 322 0 q 269 24 288 0 l 153 138 q 131 192 131 159 l 131 782 q 153 835 131 813 l 269 949 q 322 972 288 972 l 567 972 q 621 949 600 972 l 737 835 q 758 782 758 814 l 758 721 q 737 668 758 689 q 684 647 715 647 q 628 668 651 647 q 606 721 606 689 m 550 -220 l 441 -329 q 390 -350 420 -350 q 338 -328 360 -350 q 315 -277 315 -307 q 338 -225 315 -248 l 446 -115 q 498 -94 470 -94 q 550 -116 528 -94 q 572 -168 572 -138 q 550 -220 572 -200 z "},"":{"ha":888,"x_min":131,"x_max":758,"o":"m 415 1161 l 366 1112 q 318 1093 353 1093 q 271 1113 290 1093 q 252 1160 252 1132 q 271 1208 252 1184 l 397 1332 q 444 1353 416 1353 q 492 1332 471 1353 l 616 1208 q 636 1160 636 1189 q 617 1112 636 1131 q 570 1093 599 1093 q 521 1112 540 1093 l 472 1161 q 444 1173 460 1173 q 415 1161 427 1173 m 758 897 l 758 75 q 737 22 758 43 q 684 0 715 0 q 628 22 650 0 q 606 75 606 43 l 606 364 q 592 398 606 385 q 559 412 579 412 l 329 412 q 296 398 309 412 q 283 364 283 385 l 283 75 q 261 22 283 43 q 207 0 239 0 q 153 22 175 0 q 131 75 131 43 l 131 897 q 153 951 131 929 q 207 972 175 972 q 261 951 239 972 q 283 897 283 929 l 283 608 q 296 574 283 588 q 329 559 309 559 l 559 559 q 592 574 579 559 q 606 608 606 588 l 606 897 q 628 951 606 929 q 684 972 650 972 q 737 951 715 972 q 758 897 758 929 z "},"":{"ha":888,"x_min":131,"x_max":758,"o":"m 758 897 l 758 75 q 737 22 758 43 q 684 0 715 0 q 628 22 650 0 q 606 75 606 43 l 606 364 q 592 398 606 385 q 559 412 579 412 l 329 412 q 296 398 309 412 q 283 364 283 385 l 283 75 q 261 22 283 43 q 207 0 239 0 q 153 22 175 0 q 131 75 131 43 l 131 897 q 153 951 131 929 q 207 972 175 972 q 261 951 239 972 q 283 897 283 929 l 283 608 q 296 574 283 588 q 329 559 309 559 l 559 559 q 592 574 579 559 q 606 608 606 588 l 606 897 q 628 951 606 929 q 684 972 650 972 q 737 951 715 972 q 758 897 758 929 m 415 1161 l 366 1112 q 318 1093 353 1093 q 271 1113 290 1093 q 252 1160 252 1132 q 271 1208 252 1184 l 397 1332 q 444 1353 416 1353 q 492 1332 471 1353 l 616 1208 q 636 1160 636 1189 q 617 1112 636 1131 q 570 1093 599 1093 q 521 1112 540 1093 l 472 1161 q 444 1173 460 1173 q 415 1161 427 1173 z "},"":{"ha":888,"x_min":37,"x_max":852,"o":"m 610 832 l 610 897 q 632 951 610 929 q 686 972 654 972 q 739 951 718 972 q 760 897 760 930 l 760 832 q 766 825 760 825 l 779 825 q 832 804 811 825 q 852 750 852 783 q 832 696 852 718 q 779 675 811 675 l 766 675 q 760 668 760 675 l 760 74 q 739 20 760 41 q 686 -1 718 -1 q 632 20 654 -1 q 610 74 610 42 l 610 363 q 596 397 610 382 q 562 411 582 411 l 329 411 q 296 397 309 411 q 282 363 282 382 l 282 74 q 260 20 282 42 q 207 -1 239 -1 q 154 20 175 -1 q 132 74 132 42 l 132 668 q 126 675 132 675 l 113 675 q 59 696 81 675 q 37 750 37 718 q 59 804 37 782 q 113 825 81 825 l 126 825 q 132 832 132 825 l 132 897 q 154 951 132 929 q 207 972 175 972 q 260 951 239 972 q 282 897 282 929 l 282 832 q 289 825 282 825 l 604 825 q 610 832 610 825 m 282 668 l 282 608 q 296 574 282 588 q 329 559 309 559 l 562 559 q 596 574 582 559 q 610 608 610 589 l 610 668 q 604 675 610 675 l 289 675 q 282 668 282 675 z "},"":{"ha":888,"x_min":37,"x_max":843,"o":"m 603 822 l 603 888 q 624 940 603 920 q 677 961 646 961 q 730 940 709 961 q 751 888 751 920 l 751 822 q 758 815 751 815 l 770 815 q 822 794 802 815 q 843 742 843 774 q 822 688 843 709 q 770 667 802 667 l 758 667 q 751 661 751 667 l 751 72 q 730 19 751 40 q 677 -1 709 -1 q 624 19 646 -1 q 603 72 603 40 l 603 358 q 590 392 603 378 q 557 406 576 406 l 326 406 q 293 392 307 406 q 279 358 279 378 l 279 72 q 258 19 279 40 q 204 -1 237 -1 q 152 19 174 -1 q 131 72 131 40 l 131 661 q 125 667 131 667 l 111 667 q 58 688 79 667 q 37 742 37 710 q 58 794 37 774 q 111 815 79 815 l 125 815 q 131 822 131 815 l 131 888 q 152 940 131 920 q 204 961 174 961 q 258 940 237 961 q 279 888 279 920 l 279 822 q 286 815 279 815 l 597 815 q 603 822 603 815 m 279 661 l 279 602 q 293 568 279 582 q 326 554 307 554 l 557 554 q 590 568 576 554 q 603 602 603 582 l 603 661 q 597 667 603 667 l 286 667 q 279 661 279 667 z "},"":{"ha":888,"x_min":191,"x_max":699,"o":"m 357 1242 l 345 1227 l 345 1190 q 326 1144 345 1162 q 279 1125 307 1125 q 235 1144 253 1125 q 216 1190 216 1162 l 216 1258 q 233 1299 216 1280 l 288 1353 q 328 1369 306 1369 l 396 1369 q 437 1353 419 1369 l 493 1299 q 509 1258 509 1278 l 509 1234 l 521 1221 l 532 1221 l 545 1234 l 545 1272 q 563 1318 545 1300 q 608 1336 581 1336 q 654 1318 636 1336 q 672 1272 672 1300 l 672 1206 q 656 1165 672 1179 l 602 1111 q 559 1093 588 1093 l 493 1093 q 452 1111 465 1093 l 397 1165 q 380 1206 380 1180 l 380 1227 l 367 1242 l 357 1242 m 625 0 l 265 0 q 212 22 233 0 q 191 75 191 43 q 212 129 191 107 q 265 150 233 150 l 321 150 q 354 164 340 150 q 368 197 368 178 l 368 775 q 354 808 368 795 q 321 822 340 822 l 265 822 q 212 844 233 822 q 191 897 191 865 q 212 951 191 929 q 265 972 233 972 l 625 972 q 678 951 657 972 q 699 897 699 930 q 678 843 699 865 q 625 822 657 822 l 568 822 q 535 808 549 822 q 521 775 521 795 l 521 197 q 535 164 521 178 q 568 150 549 150 l 625 150 q 678 129 657 150 q 699 75 699 107 q 678 21 699 43 q 625 0 657 0 z "},"":{"ha":888,"x_min":192,"x_max":692,"o":"m 357 1242 l 345 1227 l 345 1190 q 326 1144 345 1162 q 279 1125 307 1125 q 235 1144 253 1125 q 216 1190 216 1162 l 216 1258 q 233 1299 216 1280 l 288 1353 q 328 1369 306 1369 l 396 1369 q 437 1353 419 1369 l 493 1299 q 509 1258 509 1278 l 509 1234 l 521 1221 l 532 1221 l 545 1234 l 545 1272 q 563 1318 545 1300 q 608 1336 581 1336 q 654 1318 636 1336 q 672 1272 672 1300 l 672 1206 q 656 1165 672 1179 l 602 1111 q 559 1093 588 1093 l 493 1093 q 452 1111 465 1093 l 397 1165 q 380 1206 380 1180 l 380 1227 l 367 1242 l 357 1242 m 618 0 l 264 0 q 213 21 233 0 q 192 74 192 42 q 213 127 192 106 q 264 149 233 149 l 321 149 q 354 162 340 149 q 367 196 367 176 l 367 765 q 354 799 367 785 q 321 812 340 812 l 264 812 q 213 834 234 812 q 192 888 192 856 q 213 940 192 920 q 264 961 233 961 l 618 961 q 671 940 650 961 q 692 888 692 920 q 671 834 692 856 q 618 812 650 812 l 562 812 q 529 799 543 812 q 515 765 515 785 l 515 196 q 529 162 515 176 q 562 149 543 149 l 618 149 q 671 127 650 149 q 692 74 692 106 q 671 21 692 42 q 618 0 650 0 z "},"":{"ha":888,"x_min":191,"x_max":699,"o":"m 571 1107 l 317 1107 q 263 1128 285 1107 q 241 1181 241 1149 q 263 1235 241 1213 q 317 1257 285 1257 l 571 1257 q 624 1235 603 1257 q 646 1181 646 1213 q 624 1128 646 1149 q 571 1107 603 1107 m 625 0 l 265 0 q 212 22 233 0 q 191 75 191 43 q 212 129 191 107 q 265 150 233 150 l 321 150 q 354 164 340 150 q 368 197 368 178 l 368 775 q 354 808 368 795 q 321 822 340 822 l 265 822 q 212 844 233 822 q 191 897 191 865 q 212 951 191 929 q 265 972 233 972 l 625 972 q 678 951 657 972 q 699 897 699 930 q 678 843 699 865 q 625 822 657 822 l 568 822 q 535 808 549 822 q 521 775 521 795 l 521 197 q 535 164 521 178 q 568 150 549 150 l 625 150 q 678 129 657 150 q 699 75 699 107 q 678 21 699 43 q 625 0 657 0 z "},"":{"ha":888,"x_min":192,"x_max":692,"o":"m 571 1107 l 317 1107 q 263 1128 285 1107 q 241 1181 241 1149 q 263 1235 241 1213 q 317 1257 285 1257 l 571 1257 q 624 1235 603 1257 q 646 1181 646 1213 q 624 1128 646 1149 q 571 1107 603 1107 m 618 0 l 264 0 q 213 21 233 0 q 192 74 192 42 q 213 127 192 106 q 264 149 233 149 l 321 149 q 354 162 340 149 q 367 196 367 176 l 367 765 q 354 799 367 785 q 321 812 340 812 l 264 812 q 213 834 234 812 q 192 888 192 856 q 213 940 192 920 q 264 961 233 961 l 618 961 q 671 940 650 961 q 692 888 692 920 q 671 834 692 856 q 618 812 650 812 l 562 812 q 529 799 543 812 q 515 765 515 785 l 515 196 q 529 162 515 176 q 562 149 543 149 l 618 149 q 671 127 650 149 q 692 74 692 106 q 671 21 692 42 q 618 0 650 0 z "},"":{"ha":888,"x_min":192,"x_max":697,"o":"m 386 1289 l 386 1275 q 396 1251 386 1261 l 416 1229 q 441 1219 426 1219 l 449 1219 q 472 1229 463 1219 l 494 1251 q 504 1275 504 1261 l 504 1289 q 522 1334 504 1316 q 567 1353 540 1353 q 613 1334 595 1353 q 631 1289 631 1316 l 631 1232 q 614 1192 631 1208 l 533 1109 q 492 1093 517 1093 l 399 1093 q 357 1109 371 1093 l 275 1192 q 260 1232 260 1212 l 260 1289 q 277 1334 260 1316 q 322 1353 295 1353 q 368 1334 350 1353 q 386 1289 386 1316 m 624 0 l 267 0 q 213 22 235 0 q 192 75 192 43 q 213 129 192 107 q 267 150 235 150 l 322 150 q 356 164 342 150 q 370 197 370 178 l 370 775 q 356 808 370 795 q 322 822 342 822 l 267 822 q 213 844 235 822 q 192 897 192 865 q 213 951 192 929 q 267 972 235 972 l 624 972 q 676 951 656 972 q 697 897 697 930 q 676 843 697 865 q 624 822 656 822 l 567 822 q 533 808 547 822 q 519 775 519 795 l 519 197 q 533 164 519 178 q 567 150 547 150 l 624 150 q 676 129 656 150 q 697 75 697 107 q 676 21 697 43 q 624 0 656 0 z "},"":{"ha":888,"x_min":192,"x_max":697,"o":"m 386 1289 l 386 1275 q 396 1251 386 1261 l 416 1229 q 441 1219 426 1219 l 449 1219 q 472 1229 463 1219 l 494 1251 q 504 1275 504 1261 l 504 1289 q 522 1334 504 1316 q 567 1353 540 1353 q 613 1334 595 1353 q 631 1289 631 1316 l 631 1232 q 614 1192 631 1208 l 533 1109 q 492 1093 517 1093 l 399 1093 q 357 1109 371 1093 l 275 1192 q 260 1232 260 1212 l 260 1289 q 277 1334 260 1316 q 322 1353 295 1353 q 368 1334 350 1353 q 386 1289 386 1316 m 624 0 l 267 0 q 213 22 235 0 q 192 75 192 43 q 213 129 192 107 q 267 150 235 150 l 322 150 q 356 164 342 150 q 370 197 370 178 l 370 775 q 356 808 370 795 q 322 822 342 822 l 267 822 q 213 844 235 822 q 192 897 192 865 q 213 951 192 929 q 267 972 235 972 l 624 972 q 676 951 656 972 q 697 897 697 930 q 676 843 697 865 q 624 822 656 822 l 567 822 q 533 808 547 822 q 519 775 519 795 l 519 197 q 533 164 519 178 q 567 150 547 150 l 624 150 q 676 129 656 150 q 697 75 697 107 q 676 21 697 43 q 624 0 656 0 z "},"":{"ha":888,"x_min":193,"x_max":699,"o":"m 625 0 l 504 0 l 504 -46 q 485 -90 504 -73 l 408 -167 q 397 -193 397 -180 q 408 -218 397 -205 l 419 -231 q 446 -241 433 -241 q 471 -231 457 -241 l 479 -222 q 522 -205 496 -205 q 562 -222 546 -205 q 578 -262 578 -239 q 559 -302 578 -288 l 524 -340 q 488 -355 509 -355 l 406 -355 q 368 -340 383 -355 l 297 -269 q 282 -233 282 -254 l 282 -151 q 296 -114 282 -132 l 378 -35 q 389 -9 389 -21 l 389 0 l 268 0 q 215 22 236 0 q 193 75 193 43 q 215 129 193 107 q 268 150 236 150 l 323 150 q 357 164 343 150 q 371 197 371 178 l 371 775 q 357 808 371 795 q 323 822 343 822 l 268 822 q 215 844 236 822 q 193 897 193 865 q 215 951 193 929 q 268 972 236 972 l 625 972 q 678 951 657 972 q 699 897 699 930 q 678 843 699 865 q 625 822 657 822 l 568 822 q 535 808 549 822 q 521 775 521 795 l 521 197 q 535 164 521 178 q 568 150 549 150 l 625 150 q 678 129 657 150 q 699 75 699 107 q 678 21 699 43 q 625 0 657 0 z "},"":{"ha":888,"x_min":193,"x_max":699,"o":"m 625 0 l 504 0 l 504 -46 q 485 -90 504 -73 l 408 -167 q 397 -193 397 -180 q 408 -218 397 -205 l 419 -231 q 446 -241 433 -241 q 471 -231 457 -241 l 479 -222 q 522 -205 496 -205 q 562 -222 546 -205 q 578 -262 578 -239 q 559 -302 578 -288 l 524 -340 q 488 -355 509 -355 l 406 -355 q 368 -340 383 -355 l 297 -269 q 282 -233 282 -254 l 282 -151 q 296 -114 282 -132 l 378 -35 q 389 -9 389 -21 l 389 0 l 268 0 q 215 22 236 0 q 193 75 193 43 q 215 129 193 107 q 268 150 236 150 l 323 150 q 357 164 343 150 q 371 197 371 178 l 371 775 q 357 808 371 795 q 323 822 343 822 l 268 822 q 215 844 236 822 q 193 897 193 865 q 215 951 193 929 q 268 972 236 972 l 625 972 q 678 951 657 972 q 699 897 699 930 q 678 843 699 865 q 625 822 657 822 l 568 822 q 535 808 549 822 q 521 775 521 795 l 521 197 q 535 164 521 178 q 568 150 549 150 l 625 150 q 678 129 657 150 q 699 75 699 107 q 678 21 699 43 q 625 0 657 0 z "},"":{"ha":888,"x_min":191,"x_max":699,"o":"m 464 1114 l 424 1114 q 371 1135 392 1114 q 350 1187 350 1156 l 350 1227 q 371 1281 350 1259 q 424 1303 392 1303 l 464 1303 q 517 1281 496 1303 q 539 1227 539 1259 l 539 1187 q 517 1135 539 1156 q 464 1114 496 1114 m 625 0 l 265 0 q 212 22 233 0 q 191 75 191 43 q 212 129 191 107 q 265 150 233 150 l 321 150 q 354 164 340 150 q 368 197 368 178 l 368 775 q 354 808 368 795 q 321 822 340 822 l 265 822 q 212 844 233 822 q 191 897 191 865 q 212 951 191 929 q 265 972 233 972 l 625 972 q 678 951 657 972 q 699 897 699 930 q 678 843 699 865 q 625 822 657 822 l 568 822 q 535 808 549 822 q 521 775 521 795 l 521 197 q 535 164 521 178 q 568 150 549 150 l 625 150 q 678 129 657 150 q 699 75 699 107 q 678 21 699 43 q 625 0 657 0 z "},"":{"ha":888,"x_min":191,"x_max":699,"o":"m 625 0 l 265 0 q 212 22 233 0 q 191 75 191 43 q 212 129 191 107 q 265 150 233 150 l 321 150 q 354 164 340 150 q 368 197 368 178 l 368 775 q 354 808 368 795 q 321 822 340 822 l 265 822 q 212 844 233 822 q 191 897 191 865 q 212 951 191 929 q 265 972 233 972 l 625 972 q 678 951 657 972 q 699 897 699 930 q 678 843 699 865 q 625 822 657 822 l 568 822 q 535 808 549 822 q 521 775 521 795 l 521 197 q 535 164 521 178 q 568 150 549 150 l 625 150 q 678 129 657 150 q 699 75 699 107 q 678 21 699 43 q 625 0 657 0 z "},"":{"ha":888,"x_min":131,"x_max":758,"o":"m 415 1161 l 366 1112 q 318 1093 353 1093 q 271 1113 290 1093 q 252 1160 252 1132 q 271 1208 252 1184 l 397 1332 q 444 1353 416 1353 q 492 1332 471 1353 l 616 1208 q 636 1160 636 1189 q 617 1112 636 1131 q 570 1093 599 1093 q 521 1112 540 1093 l 472 1161 q 444 1173 460 1173 q 415 1161 427 1173 m 606 236 l 606 772 q 592 806 606 792 q 559 819 579 819 l 444 819 q 393 842 414 819 q 371 896 371 864 q 393 950 371 928 q 444 972 414 972 l 684 972 q 737 950 715 972 q 758 896 758 928 l 758 192 q 737 138 758 162 l 621 24 q 568 0 600 0 l 322 0 q 269 24 288 0 l 153 138 q 131 192 131 159 l 131 306 q 153 358 131 338 q 207 378 174 378 q 261 358 239 378 q 283 306 283 338 l 283 236 q 293 212 283 222 l 342 163 q 367 153 352 153 l 524 153 q 549 163 538 153 l 597 212 q 606 236 606 222 z "},"":{"ha":888,"x_min":131,"x_max":751,"o":"m 415 1161 l 366 1112 q 318 1093 353 1093 q 271 1113 290 1093 q 252 1160 252 1132 q 271 1208 252 1184 l 397 1332 q 444 1353 416 1353 q 492 1332 471 1353 l 616 1208 q 636 1160 636 1189 q 617 1112 636 1131 q 570 1093 599 1093 q 521 1112 540 1093 l 472 1161 q 444 1173 460 1173 q 415 1161 427 1173 m 603 231 l 603 765 q 590 799 603 785 q 557 812 576 812 l 440 812 q 388 834 408 812 q 367 888 367 855 q 388 940 367 920 q 440 961 408 961 l 677 961 q 730 940 709 961 q 751 888 751 920 l 751 187 q 730 134 751 158 l 618 24 q 566 0 597 0 l 317 0 q 264 24 284 0 l 153 134 q 131 187 131 155 l 131 298 q 152 352 131 330 q 204 374 174 374 q 258 352 236 374 q 279 298 279 330 l 279 231 q 289 207 279 218 l 338 158 q 363 149 349 149 l 521 149 q 545 158 533 149 l 595 207 q 603 231 603 220 z "},"":{"ha":888,"x_min":131,"x_max":758,"o":"m 393 412 l 329 412 q 296 398 309 412 q 283 364 283 385 l 283 75 q 261 22 283 43 q 207 0 239 0 q 153 22 175 0 q 131 75 131 43 l 131 897 q 153 951 131 929 q 207 972 175 972 q 261 951 239 972 q 283 897 283 929 l 283 608 q 296 574 283 588 q 329 559 309 559 l 393 559 q 415 570 409 559 l 597 753 q 606 778 606 763 l 606 897 q 628 951 606 929 q 684 972 651 972 q 737 951 715 972 q 758 897 758 929 l 758 732 q 737 679 758 703 l 575 519 q 561 486 561 503 q 575 453 561 469 l 737 293 q 758 240 758 269 l 758 75 q 737 22 758 43 q 684 0 715 0 q 628 22 651 0 q 606 75 606 43 l 606 195 q 597 220 606 210 l 415 403 q 393 412 410 412 m 551 -222 l 441 -334 q 389 -354 418 -354 q 336 -332 359 -354 q 314 -281 314 -311 q 336 -228 314 -250 l 446 -117 q 498 -96 467 -96 q 551 -118 528 -96 q 574 -170 574 -140 q 551 -222 574 -200 z "},"":{"ha":888,"x_min":131,"x_max":758,"o":"m 393 412 l 329 412 q 296 398 309 412 q 283 364 283 385 l 283 75 q 261 22 283 43 q 207 0 239 0 q 153 22 175 0 q 131 75 131 43 l 131 897 q 153 951 131 929 q 207 972 175 972 q 261 951 239 972 q 283 897 283 929 l 283 608 q 296 574 283 588 q 329 559 309 559 l 393 559 q 415 570 409 559 l 597 753 q 606 778 606 763 l 606 897 q 628 951 606 929 q 684 972 651 972 q 737 951 715 972 q 758 897 758 929 l 758 732 q 737 679 758 703 l 575 519 q 561 486 561 503 q 575 453 561 469 l 737 293 q 758 240 758 269 l 758 75 q 737 22 758 43 q 684 0 715 0 q 628 22 651 0 q 606 75 606 43 l 606 195 q 597 220 606 210 l 415 403 q 393 412 410 412 m 551 -222 l 441 -334 q 389 -354 418 -354 q 336 -332 359 -354 q 314 -281 314 -311 q 336 -228 314 -250 l 446 -117 q 498 -96 467 -96 q 551 -118 528 -96 q 574 -170 574 -140 q 551 -222 574 -200 z "},"":{"ha":888,"x_min":131,"x_max":758,"o":"m 393 412 l 329 412 q 296 398 309 412 q 283 364 283 385 l 283 75 q 261 22 283 43 q 207 0 239 0 q 153 22 175 0 q 131 75 131 43 l 131 897 q 153 951 131 929 q 207 972 175 972 q 261 951 239 972 q 283 897 283 929 l 283 608 q 296 574 283 588 q 329 559 309 559 l 393 559 q 415 570 409 559 l 597 753 q 606 778 606 763 l 606 897 q 628 951 606 929 q 684 972 651 972 q 737 951 715 972 q 758 897 758 929 l 758 732 q 737 679 758 703 l 575 519 q 561 486 561 503 q 575 453 561 469 l 737 293 q 758 240 758 269 l 758 75 q 737 22 758 43 q 684 0 715 0 q 628 22 651 0 q 606 75 606 43 l 606 195 q 597 220 606 210 l 415 403 q 393 412 410 412 z "},"":{"ha":888,"x_min":131,"x_max":758,"o":"m 551 1225 l 441 1116 q 389 1093 419 1093 q 335 1115 357 1093 q 314 1168 314 1136 q 336 1219 314 1200 l 446 1331 q 498 1353 468 1353 q 552 1331 530 1353 q 574 1278 574 1310 q 551 1225 574 1247 m 283 897 l 283 200 q 297 166 283 180 q 330 153 311 153 l 685 153 q 738 131 717 153 q 758 77 758 109 q 738 22 758 44 q 685 0 717 0 l 207 0 q 153 22 175 0 q 131 77 131 45 l 131 897 q 153 951 131 929 q 207 972 175 972 q 261 951 239 972 q 283 897 283 929 z "},"":{"ha":888,"x_min":131,"x_max":758,"o":"m 283 897 l 283 200 q 297 166 283 180 q 330 153 311 153 l 685 153 q 738 131 717 153 q 758 77 758 109 q 738 22 758 44 q 685 0 717 0 l 207 0 q 153 22 175 0 q 131 77 131 45 l 131 897 q 153 951 131 929 q 207 972 175 972 q 261 951 239 972 q 283 897 283 929 m 551 1225 l 441 1116 q 389 1093 419 1093 q 335 1115 357 1093 q 314 1168 314 1136 q 336 1219 314 1200 l 446 1331 q 498 1353 468 1353 q 552 1331 530 1353 q 574 1278 574 1310 q 551 1225 574 1247 z "},"":{"ha":888,"x_min":131,"x_max":758,"o":"m 283 897 l 283 200 q 297 166 283 180 q 330 153 311 153 l 685 153 q 738 131 717 153 q 758 77 758 109 q 738 22 758 44 q 685 0 717 0 l 207 0 q 153 22 175 0 q 131 77 131 45 l 131 897 q 153 951 131 929 q 207 972 175 972 q 261 951 239 972 q 283 897 283 929 m 551 -222 l 441 -334 q 389 -354 418 -354 q 336 -332 359 -354 q 314 -281 314 -311 q 336 -228 314 -250 l 446 -117 q 498 -96 467 -96 q 551 -118 528 -96 q 574 -170 574 -140 q 551 -222 574 -200 z "},"":{"ha":888,"x_min":131,"x_max":758,"o":"m 283 897 l 283 200 q 297 166 283 180 q 330 153 311 153 l 685 153 q 738 131 717 153 q 758 77 758 109 q 738 22 758 44 q 685 0 717 0 l 207 0 q 153 22 175 0 q 131 77 131 45 l 131 897 q 153 951 131 929 q 207 972 175 972 q 261 951 239 972 q 283 897 283 929 m 551 -222 l 441 -334 q 389 -354 418 -354 q 336 -332 359 -354 q 314 -281 314 -311 q 336 -228 314 -250 l 446 -117 q 498 -96 467 -96 q 551 -118 528 -96 q 574 -170 574 -140 q 551 -222 574 -200 z "},"":{"ha":888,"x_min":131,"x_max":758,"o":"m 368 1317 l 416 1268 q 446 1257 433 1257 q 473 1268 462 1257 l 522 1317 q 568 1336 541 1336 q 615 1317 596 1336 q 635 1270 635 1297 q 618 1223 635 1242 l 493 1099 q 446 1080 475 1080 q 399 1099 415 1080 l 275 1223 q 256 1270 256 1243 q 275 1317 256 1297 q 322 1336 294 1336 q 368 1317 349 1336 m 283 897 l 283 200 q 297 166 283 180 q 330 153 311 153 l 685 153 q 738 131 717 153 q 758 77 758 109 q 738 22 758 44 q 685 0 717 0 l 207 0 q 153 22 175 0 q 131 77 131 45 l 131 897 q 153 951 131 929 q 207 972 175 972 q 261 951 239 972 q 283 897 283 929 z "},"":{"ha":888,"x_min":131,"x_max":758,"o":"m 368 1317 l 416 1268 q 446 1257 433 1257 q 473 1268 462 1257 l 522 1317 q 568 1336 541 1336 q 615 1317 596 1336 q 635 1270 635 1297 q 618 1223 635 1242 l 493 1099 q 446 1080 475 1080 q 399 1099 415 1080 l 275 1223 q 256 1270 256 1243 q 275 1317 256 1297 q 322 1336 294 1336 q 368 1317 349 1336 m 283 897 l 283 200 q 297 166 283 180 q 330 153 311 153 l 685 153 q 738 131 717 153 q 758 77 758 109 q 738 22 758 44 q 685 0 717 0 l 207 0 q 153 22 175 0 q 131 77 131 45 l 131 897 q 153 951 131 929 q 207 972 175 972 q 261 951 239 972 q 283 897 283 929 z "},"":{"ha":888,"x_min":131,"x_max":758,"o":"m 281 897 l 281 197 q 294 164 281 178 q 328 150 308 150 l 685 150 q 738 129 717 150 q 758 75 758 107 q 738 21 758 43 q 685 0 717 0 l 205 0 q 152 22 174 0 q 131 75 131 43 l 131 897 q 152 951 131 929 q 205 972 174 972 q 259 951 237 972 q 281 897 281 929 m 545 385 l 490 385 q 437 406 458 385 q 415 460 415 428 l 415 513 q 437 566 415 545 q 490 587 458 587 l 545 587 q 597 566 576 587 q 618 513 618 545 l 618 460 q 597 406 618 427 q 545 385 576 385 z "},"":{"ha":888,"x_min":131,"x_max":758,"o":"m 281 897 l 281 197 q 294 164 281 178 q 328 150 308 150 l 685 150 q 738 129 717 150 q 758 75 758 107 q 738 21 758 43 q 685 0 717 0 l 205 0 q 152 22 174 0 q 131 75 131 43 l 131 897 q 152 951 131 929 q 205 972 174 972 q 259 951 237 972 q 281 897 281 929 m 545 385 l 490 385 q 437 406 458 385 q 415 460 415 428 l 415 513 q 437 566 415 545 q 490 587 458 587 l 545 587 q 597 566 576 587 q 618 513 618 545 l 618 460 q 597 406 618 427 q 545 385 576 385 z "},"":{"ha":888,"x_min":36,"x_max":758,"o":"m 131 75 l 131 262 q 115 261 127 261 q 60 282 84 261 q 36 336 36 304 q 58 387 36 365 l 121 450 q 131 475 131 463 l 131 897 q 152 951 131 929 q 205 972 174 972 q 259 951 237 972 q 281 897 281 929 l 281 611 l 359 689 q 411 711 382 711 q 464 688 442 711 q 486 635 486 665 q 464 583 486 606 l 292 411 q 281 385 281 397 l 281 197 q 294 164 281 178 q 328 150 308 150 l 685 150 q 738 129 717 150 q 758 75 758 107 q 738 21 758 43 q 685 0 717 0 l 205 0 q 152 22 174 0 q 131 75 131 43 z "},"":{"ha":888,"x_min":36,"x_max":758,"o":"m 131 75 l 131 262 q 115 261 127 261 q 60 282 84 261 q 36 336 36 304 q 58 387 36 365 l 121 450 q 131 475 131 463 l 131 897 q 152 951 131 929 q 205 972 174 972 q 259 951 237 972 q 281 897 281 929 l 281 611 l 359 689 q 411 711 382 711 q 464 688 442 711 q 486 635 486 665 q 464 583 486 606 l 292 411 q 281 385 281 397 l 281 197 q 294 164 281 178 q 328 150 308 150 l 685 150 q 738 129 717 150 q 758 75 758 107 q 738 21 758 43 q 685 0 717 0 l 205 0 q 152 22 174 0 q 131 75 131 43 z "},"":{"ha":888,"x_min":131,"x_max":758,"o":"m 551 1225 l 441 1116 q 389 1093 419 1093 q 335 1115 357 1093 q 314 1168 314 1136 q 336 1219 314 1200 l 446 1331 q 498 1353 468 1353 q 552 1331 530 1353 q 574 1278 574 1310 q 551 1225 574 1247 m 275 935 l 596 374 q 603 367 601 367 q 606 376 606 367 l 606 897 q 628 951 606 929 q 684 972 651 972 q 737 951 715 972 q 758 897 758 929 l 758 75 q 737 22 758 43 q 684 0 715 0 q 615 37 641 0 l 293 603 q 286 610 291 610 q 283 600 283 610 l 283 75 q 261 22 283 43 q 207 0 239 0 q 153 22 175 0 q 131 75 131 43 l 131 897 q 153 951 131 929 q 207 972 175 972 q 247 962 228 972 q 275 935 267 951 z "},"":{"ha":888,"x_min":131,"x_max":758,"o":"m 275 935 l 596 374 q 603 367 601 367 q 606 376 606 367 l 606 897 q 628 951 606 929 q 684 972 651 972 q 737 951 715 972 q 758 897 758 929 l 758 75 q 737 22 758 43 q 684 0 715 0 q 615 37 641 0 l 293 603 q 286 610 291 610 q 283 600 283 610 l 283 75 q 261 22 283 43 q 207 0 239 0 q 153 22 175 0 q 131 75 131 43 l 131 897 q 153 951 131 929 q 207 972 175 972 q 247 962 228 972 q 275 935 267 951 m 551 1225 l 441 1116 q 389 1093 419 1093 q 335 1115 357 1093 q 314 1168 314 1136 q 336 1219 314 1200 l 446 1331 q 498 1353 468 1353 q 552 1331 530 1353 q 574 1278 574 1310 q 551 1225 574 1247 z "},"":{"ha":888,"x_min":131,"x_max":758,"o":"m 275 935 l 596 374 q 603 367 601 367 q 606 376 606 367 l 606 897 q 628 951 606 929 q 684 972 651 972 q 737 951 715 972 q 758 897 758 929 l 758 75 q 737 22 758 43 q 684 0 715 0 q 615 37 641 0 l 293 603 q 286 610 291 610 q 283 600 283 610 l 283 75 q 261 22 283 43 q 207 0 239 0 q 153 22 175 0 q 131 75 131 43 l 131 897 q 153 951 131 929 q 207 972 175 972 q 247 962 228 972 q 275 935 267 951 m 551 -222 l 441 -334 q 389 -354 418 -354 q 336 -332 359 -354 q 314 -281 314 -311 q 336 -228 314 -250 l 446 -117 q 498 -96 467 -96 q 551 -118 528 -96 q 574 -170 574 -140 q 551 -222 574 -200 z "},"":{"ha":888,"x_min":131,"x_max":758,"o":"m 275 935 l 596 374 q 603 367 601 367 q 606 376 606 367 l 606 897 q 628 951 606 929 q 684 972 651 972 q 737 951 715 972 q 758 897 758 929 l 758 75 q 737 22 758 43 q 684 0 715 0 q 615 37 641 0 l 293 603 q 286 610 291 610 q 283 600 283 610 l 283 75 q 261 22 283 43 q 207 0 239 0 q 153 22 175 0 q 131 75 131 43 l 131 897 q 153 951 131 929 q 207 972 175 972 q 247 962 228 972 q 275 935 267 951 m 551 -222 l 441 -334 q 389 -354 418 -354 q 336 -332 359 -354 q 314 -281 314 -311 q 336 -228 314 -250 l 446 -117 q 498 -96 467 -96 q 551 -118 528 -96 q 574 -170 574 -140 q 551 -222 574 -200 z "},"":{"ha":888,"x_min":131,"x_max":758,"o":"m 366 1332 l 414 1283 q 444 1271 426 1271 q 472 1283 460 1271 l 521 1332 q 568 1353 542 1353 q 616 1333 596 1353 q 636 1284 636 1312 q 618 1238 636 1261 l 492 1112 q 444 1093 473 1093 q 396 1112 415 1093 l 271 1238 q 252 1284 252 1262 q 272 1332 252 1311 q 318 1353 292 1353 q 366 1332 347 1353 m 275 935 l 596 374 q 603 367 601 367 q 606 376 606 367 l 606 897 q 628 951 606 929 q 684 972 651 972 q 737 951 715 972 q 758 897 758 929 l 758 75 q 737 22 758 43 q 684 0 715 0 q 615 37 641 0 l 293 603 q 286 610 291 610 q 283 600 283 610 l 283 75 q 261 22 283 43 q 207 0 239 0 q 153 22 175 0 q 131 75 131 43 l 131 897 q 153 951 131 929 q 207 972 175 972 q 247 962 228 972 q 275 935 267 951 z "},"":{"ha":888,"x_min":131,"x_max":758,"o":"m 275 935 l 596 374 q 603 367 601 367 q 606 376 606 367 l 606 897 q 628 951 606 929 q 684 972 651 972 q 737 951 715 972 q 758 897 758 929 l 758 75 q 737 22 758 43 q 684 0 715 0 q 615 37 641 0 l 293 603 q 286 610 291 610 q 283 600 283 610 l 283 75 q 261 22 283 43 q 207 0 239 0 q 153 22 175 0 q 131 75 131 43 l 131 897 q 153 951 131 929 q 207 972 175 972 q 247 962 228 972 q 275 935 267 951 m 366 1332 l 414 1283 q 444 1271 426 1271 q 472 1283 460 1271 l 521 1332 q 568 1353 542 1353 q 616 1333 596 1353 q 636 1284 636 1312 q 618 1238 636 1261 l 492 1112 q 444 1093 473 1093 q 396 1112 415 1093 l 271 1238 q 252 1284 252 1262 q 272 1332 252 1311 q 318 1353 292 1353 q 366 1332 347 1353 z "},"":{"ha":888,"x_min":131,"x_max":758,"o":"m 275 928 q 281 922 277 922 q 288 926 283 922 l 310 949 q 364 972 328 972 l 571 972 q 624 949 593 972 l 737 836 q 758 783 758 815 l 758 -111 q 737 -165 758 -144 l 624 -278 q 571 -300 600 -300 l 444 -300 q 391 -279 412 -300 q 370 -227 370 -258 q 391 -173 370 -195 q 444 -151 412 -151 l 525 -151 q 550 -142 541 -151 l 600 -92 q 608 -66 608 -83 l 608 737 q 600 761 608 751 l 550 812 q 525 822 538 822 l 408 822 q 383 812 395 822 l 290 718 q 281 694 281 709 l 281 75 q 259 22 281 43 q 205 0 237 0 q 152 22 174 0 q 131 75 131 43 l 131 896 q 152 950 131 928 q 205 972 174 972 q 275 928 249 972 z "},"":{"ha":888,"x_min":131,"x_max":758,"o":"m 275 928 q 281 922 277 922 q 288 926 283 922 l 310 949 q 364 972 328 972 l 571 972 q 624 949 593 972 l 737 836 q 758 783 758 815 l 758 -111 q 737 -165 758 -144 l 624 -278 q 571 -300 600 -300 l 444 -300 q 391 -279 412 -300 q 370 -227 370 -258 q 391 -173 370 -195 q 444 -151 412 -151 l 525 -151 q 550 -142 541 -151 l 600 -92 q 608 -66 608 -83 l 608 737 q 600 761 608 751 l 550 812 q 525 822 538 822 l 408 822 q 383 812 395 822 l 290 718 q 281 694 281 709 l 281 75 q 259 22 281 43 q 205 0 237 0 q 152 22 174 0 q 131 75 131 43 l 131 896 q 152 950 131 928 q 205 972 174 972 q 275 928 249 972 z "},"":{"ha":888,"x_min":131,"x_max":758,"o":"m 571 1107 l 317 1107 q 263 1128 285 1107 q 241 1181 241 1149 q 263 1235 241 1213 q 317 1257 285 1257 l 571 1257 q 624 1235 603 1257 q 646 1181 646 1213 q 624 1128 646 1149 q 571 1107 603 1107 m 621 949 l 737 835 q 758 782 758 814 l 758 191 q 737 138 758 159 l 621 24 q 567 0 600 0 l 322 0 q 269 24 288 0 l 153 138 q 131 191 131 159 l 131 782 q 153 835 131 813 l 269 949 q 322 972 288 972 l 567 972 q 621 949 600 972 m 549 163 l 597 212 q 606 236 606 222 l 606 736 q 597 760 606 749 l 549 810 q 524 819 539 819 l 367 819 q 342 810 351 819 l 293 760 q 283 736 283 750 l 283 236 q 293 212 283 222 l 342 163 q 367 153 352 153 l 524 153 q 549 163 538 153 z "},"":{"ha":888,"x_min":131,"x_max":758,"o":"m 621 949 l 737 835 q 758 782 758 814 l 758 191 q 737 138 758 159 l 621 24 q 567 0 600 0 l 322 0 q 269 24 288 0 l 153 138 q 131 191 131 159 l 131 782 q 153 835 131 813 l 269 949 q 322 972 288 972 l 567 972 q 621 949 600 972 m 549 163 l 597 212 q 606 236 606 222 l 606 736 q 597 760 606 749 l 549 810 q 524 819 539 819 l 367 819 q 342 810 351 819 l 293 760 q 283 736 283 750 l 283 236 q 293 212 283 222 l 342 163 q 367 153 352 153 l 524 153 q 549 163 538 153 m 571 1107 l 317 1107 q 263 1128 285 1107 q 241 1181 241 1149 q 263 1235 241 1213 q 317 1257 285 1257 l 571 1257 q 624 1235 603 1257 q 646 1181 646 1213 q 624 1128 646 1149 q 571 1107 603 1107 z "},"":{"ha":888,"x_min":131,"x_max":758,"o":"m 385 1289 l 385 1275 q 395 1251 385 1261 l 415 1229 q 440 1219 425 1219 l 447 1219 q 471 1229 461 1219 l 493 1251 q 503 1275 503 1261 l 503 1289 q 520 1334 503 1316 q 566 1353 538 1353 q 611 1334 593 1353 q 629 1289 629 1316 l 629 1232 q 612 1192 629 1208 l 532 1109 q 490 1093 515 1093 l 397 1093 q 355 1109 370 1093 l 273 1192 q 258 1232 258 1211 l 258 1289 q 276 1334 258 1316 q 321 1353 294 1353 q 367 1334 349 1353 q 385 1289 385 1316 m 621 949 l 737 835 q 758 782 758 814 l 758 191 q 737 138 758 159 l 621 24 q 567 0 600 0 l 322 0 q 269 24 288 0 l 153 138 q 131 191 131 159 l 131 782 q 153 835 131 813 l 269 949 q 322 972 288 972 l 567 972 q 621 949 600 972 m 549 163 l 597 212 q 606 236 606 222 l 606 736 q 597 760 606 749 l 549 810 q 524 819 539 819 l 367 819 q 342 810 351 819 l 293 760 q 283 736 283 750 l 283 236 q 293 212 283 222 l 342 163 q 367 153 352 153 l 524 153 q 549 163 538 153 z "},"":{"ha":888,"x_min":131,"x_max":758,"o":"m 621 949 l 737 835 q 758 782 758 814 l 758 191 q 737 138 758 159 l 621 24 q 567 0 600 0 l 322 0 q 269 24 288 0 l 153 138 q 131 191 131 159 l 131 782 q 153 835 131 813 l 269 949 q 322 972 288 972 l 567 972 q 621 949 600 972 m 549 163 l 597 212 q 606 236 606 222 l 606 736 q 597 760 606 749 l 549 810 q 524 819 539 819 l 367 819 q 342 810 351 819 l 293 760 q 283 736 283 750 l 283 236 q 293 212 283 222 l 342 163 q 367 153 352 153 l 524 153 q 549 163 538 153 m 385 1289 l 385 1275 q 395 1251 385 1261 l 415 1229 q 440 1219 425 1219 l 447 1219 q 471 1229 461 1219 l 493 1251 q 503 1275 503 1261 l 503 1289 q 520 1334 503 1316 q 566 1353 538 1353 q 611 1334 593 1353 q 629 1289 629 1316 l 629 1232 q 612 1192 629 1208 l 532 1109 q 490 1093 515 1093 l 397 1093 q 355 1109 370 1093 l 273 1192 q 258 1232 258 1211 l 258 1289 q 276 1334 258 1316 q 321 1353 294 1353 q 367 1334 349 1353 q 385 1289 385 1316 z "},"":{"ha":888,"x_min":131,"x_max":758,"o":"m 435 1225 l 323 1116 q 272 1093 304 1093 q 219 1115 240 1093 q 197 1168 197 1136 q 220 1219 197 1200 l 329 1331 q 382 1353 351 1353 q 435 1331 414 1353 q 457 1278 457 1310 q 435 1225 457 1247 m 667 1225 l 557 1116 q 505 1093 534 1093 q 451 1115 473 1093 q 429 1168 429 1136 q 453 1219 429 1199 l 561 1331 q 614 1353 583 1353 q 668 1331 646 1353 q 690 1278 690 1310 q 667 1225 690 1249 m 621 949 l 737 835 q 758 782 758 814 l 758 191 q 737 138 758 159 l 621 24 q 567 0 600 0 l 322 0 q 269 24 288 0 l 153 138 q 131 191 131 159 l 131 782 q 153 835 131 813 l 269 949 q 322 972 288 972 l 567 972 q 621 949 600 972 m 549 163 l 597 212 q 606 236 606 222 l 606 736 q 597 760 606 749 l 549 810 q 524 819 539 819 l 367 819 q 342 810 351 819 l 293 760 q 283 736 283 750 l 283 236 q 293 212 283 222 l 342 163 q 367 153 352 153 l 524 153 q 549 163 538 153 z "},"":{"ha":888,"x_min":131,"x_max":758,"o":"m 621 949 l 737 835 q 758 782 758 814 l 758 191 q 737 138 758 159 l 621 24 q 567 0 600 0 l 322 0 q 269 24 288 0 l 153 138 q 131 191 131 159 l 131 782 q 153 835 131 813 l 269 949 q 322 972 288 972 l 567 972 q 621 949 600 972 m 549 163 l 597 212 q 606 236 606 222 l 606 736 q 597 760 606 749 l 549 810 q 524 819 539 819 l 367 819 q 342 810 351 819 l 293 760 q 283 736 283 750 l 283 236 q 293 212 283 222 l 342 163 q 367 153 352 153 l 524 153 q 549 163 538 153 m 435 1225 l 323 1116 q 272 1093 304 1093 q 219 1115 240 1093 q 197 1168 197 1136 q 220 1219 197 1200 l 329 1331 q 382 1353 351 1353 q 435 1331 414 1353 q 457 1278 457 1310 q 435 1225 457 1247 m 667 1225 l 557 1116 q 505 1093 534 1093 q 451 1115 473 1093 q 429 1168 429 1136 q 453 1219 429 1199 l 561 1331 q 614 1353 583 1353 q 668 1331 646 1353 q 690 1278 690 1310 q 667 1225 690 1249 z "},"":{"ha":888,"x_min":103,"x_max":785,"o":"m 710 0 l 290 0 q 237 24 261 0 l 125 135 q 103 189 103 157 l 103 785 q 125 838 103 816 l 237 949 q 290 972 261 972 l 710 972 q 763 951 742 972 q 785 897 785 929 q 763 844 785 865 q 710 822 742 822 l 566 822 q 532 808 546 822 q 518 775 518 795 l 518 608 q 532 574 518 589 q 566 559 546 559 l 684 559 q 736 539 715 559 q 757 486 757 518 q 736 432 757 454 q 684 411 715 411 l 566 411 q 532 397 546 411 q 518 363 518 382 l 518 197 q 532 164 518 178 q 566 150 546 150 l 710 150 q 763 129 742 150 q 785 75 785 107 q 763 22 785 43 q 710 0 742 0 m 368 157 l 368 815 q 363 822 368 822 l 336 822 q 311 811 325 822 l 264 764 q 253 739 253 750 l 253 233 q 264 208 253 222 l 311 161 q 336 150 326 150 l 363 150 q 368 157 368 150 z "},"":{"ha":888,"x_min":103,"x_max":785,"o":"m 710 0 l 290 0 q 237 24 261 0 l 125 135 q 103 189 103 157 l 103 785 q 125 838 103 816 l 237 949 q 290 972 261 972 l 710 972 q 763 951 742 972 q 785 897 785 929 q 763 844 785 865 q 710 822 742 822 l 566 822 q 532 808 546 822 q 518 775 518 795 l 518 608 q 532 574 518 589 q 566 559 546 559 l 684 559 q 736 539 715 559 q 757 486 757 518 q 736 432 757 454 q 684 411 715 411 l 566 411 q 532 397 546 411 q 518 363 518 382 l 518 197 q 532 164 518 178 q 566 150 546 150 l 710 150 q 763 129 742 150 q 785 75 785 107 q 763 22 785 43 q 710 0 742 0 m 368 157 l 368 815 q 363 822 368 822 l 336 822 q 311 811 325 822 l 264 764 q 253 739 253 750 l 253 233 q 264 208 253 222 l 311 161 q 336 150 326 150 l 363 150 q 368 157 368 150 z "},"":{"ha":888,"x_min":131,"x_max":758,"o":"m 551 1225 l 441 1116 q 389 1093 419 1093 q 335 1115 357 1093 q 314 1168 314 1136 q 336 1219 314 1200 l 446 1331 q 498 1353 468 1353 q 552 1331 530 1353 q 574 1278 574 1310 q 551 1225 574 1247 m 496 378 l 329 378 q 296 364 309 378 q 283 330 283 351 l 283 72 q 261 19 283 40 q 207 -3 239 -3 q 153 19 175 -3 q 131 72 131 40 l 131 896 q 153 950 131 928 q 207 972 175 972 l 542 972 q 595 949 571 972 l 737 806 q 758 753 758 785 l 758 597 q 736 545 758 567 l 681 489 q 667 456 667 475 q 682 419 667 435 l 737 366 q 758 313 758 345 l 758 72 q 737 19 758 40 q 684 -3 715 -3 q 628 19 651 -3 q 606 72 606 40 l 606 267 q 597 290 606 282 l 519 368 q 496 378 510 378 m 519 541 l 597 616 q 606 642 606 625 l 606 708 q 597 733 606 725 l 519 810 q 496 819 510 819 l 329 819 q 296 806 309 819 q 283 772 283 792 l 283 578 q 296 544 283 557 q 329 530 309 530 l 496 530 q 519 541 509 530 z "},"":{"ha":888,"x_min":131,"x_max":758,"o":"m 496 378 l 329 378 q 296 364 309 378 q 283 330 283 351 l 283 72 q 261 19 283 40 q 207 -3 239 -3 q 153 19 175 -3 q 131 72 131 40 l 131 896 q 153 950 131 928 q 207 972 175 972 l 542 972 q 595 949 571 972 l 737 806 q 758 753 758 785 l 758 597 q 736 545 758 567 l 681 489 q 667 456 667 475 q 682 419 667 435 l 737 366 q 758 313 758 345 l 758 72 q 737 19 758 40 q 684 -3 715 -3 q 628 19 651 -3 q 606 72 606 40 l 606 267 q 597 290 606 282 l 519 368 q 496 378 510 378 m 519 541 l 597 616 q 606 642 606 625 l 606 708 q 597 733 606 725 l 519 810 q 496 819 510 819 l 329 819 q 296 806 309 819 q 283 772 283 792 l 283 578 q 296 544 283 557 q 329 530 309 530 l 496 530 q 519 541 509 530 m 551 1225 l 441 1116 q 389 1093 419 1093 q 335 1115 357 1093 q 314 1168 314 1136 q 336 1219 314 1200 l 446 1331 q 498 1353 468 1353 q 552 1331 530 1353 q 574 1278 574 1310 q 551 1225 574 1247 z "},"":{"ha":888,"x_min":131,"x_max":758,"o":"m 496 378 l 329 378 q 296 364 309 378 q 283 330 283 351 l 283 72 q 261 19 283 40 q 207 -3 239 -3 q 153 19 175 -3 q 131 72 131 40 l 131 896 q 153 950 131 928 q 207 972 175 972 l 542 972 q 595 949 571 972 l 737 806 q 758 753 758 785 l 758 597 q 736 545 758 567 l 681 489 q 667 456 667 475 q 682 419 667 435 l 737 366 q 758 313 758 345 l 758 72 q 737 19 758 40 q 684 -3 715 -3 q 628 19 651 -3 q 606 72 606 40 l 606 267 q 597 290 606 282 l 519 368 q 496 378 510 378 m 519 541 l 597 616 q 606 642 606 625 l 606 708 q 597 733 606 725 l 519 810 q 496 819 510 819 l 329 819 q 296 806 309 819 q 283 772 283 792 l 283 578 q 296 544 283 557 q 329 530 309 530 l 496 530 q 519 541 509 530 m 551 -222 l 441 -334 q 389 -354 418 -354 q 336 -332 359 -354 q 314 -281 314 -311 q 336 -228 314 -250 l 446 -117 q 498 -96 467 -96 q 551 -118 528 -96 q 574 -170 574 -140 q 551 -222 574 -200 z "},"":{"ha":888,"x_min":131,"x_max":758,"o":"m 496 378 l 329 378 q 296 364 309 378 q 283 330 283 351 l 283 72 q 261 19 283 40 q 207 -3 239 -3 q 153 19 175 -3 q 131 72 131 40 l 131 896 q 153 950 131 928 q 207 972 175 972 l 542 972 q 595 949 571 972 l 737 806 q 758 753 758 785 l 758 597 q 736 545 758 567 l 681 489 q 667 456 667 475 q 682 419 667 435 l 737 366 q 758 313 758 345 l 758 72 q 737 19 758 40 q 684 -3 715 -3 q 628 19 651 -3 q 606 72 606 40 l 606 267 q 597 290 606 282 l 519 368 q 496 378 510 378 m 519 541 l 597 616 q 606 642 606 625 l 606 708 q 597 733 606 725 l 519 810 q 496 819 510 819 l 329 819 q 296 806 309 819 q 283 772 283 792 l 283 578 q 296 544 283 557 q 329 530 309 530 l 496 530 q 519 541 509 530 m 551 -222 l 441 -334 q 389 -354 418 -354 q 336 -332 359 -354 q 314 -281 314 -311 q 336 -228 314 -250 l 446 -117 q 498 -96 467 -96 q 551 -118 528 -96 q 574 -170 574 -140 q 551 -222 574 -200 z "},"":{"ha":888,"x_min":131,"x_max":758,"o":"m 366 1332 l 414 1283 q 444 1271 426 1271 q 472 1283 460 1271 l 521 1332 q 568 1353 542 1353 q 616 1333 596 1353 q 636 1284 636 1312 q 618 1238 636 1261 l 492 1112 q 444 1093 473 1093 q 396 1112 415 1093 l 271 1238 q 252 1284 252 1262 q 272 1332 252 1311 q 318 1353 292 1353 q 366 1332 347 1353 m 496 378 l 329 378 q 296 364 309 378 q 283 330 283 351 l 283 72 q 261 19 283 40 q 207 -3 239 -3 q 153 19 175 -3 q 131 72 131 40 l 131 896 q 153 950 131 928 q 207 972 175 972 l 542 972 q 595 949 571 972 l 737 806 q 758 753 758 785 l 758 597 q 736 545 758 567 l 681 489 q 667 456 667 475 q 682 419 667 435 l 737 366 q 758 313 758 345 l 758 72 q 737 19 758 40 q 684 -3 715 -3 q 628 19 651 -3 q 606 72 606 40 l 606 267 q 597 290 606 282 l 519 368 q 496 378 510 378 m 519 541 l 597 616 q 606 642 606 625 l 606 708 q 597 733 606 725 l 519 810 q 496 819 510 819 l 329 819 q 296 806 309 819 q 283 772 283 792 l 283 578 q 296 544 283 557 q 329 530 309 530 l 496 530 q 519 541 509 530 z "},"":{"ha":888,"x_min":131,"x_max":758,"o":"m 496 378 l 329 378 q 296 364 309 378 q 283 330 283 351 l 283 72 q 261 19 283 40 q 207 -3 239 -3 q 153 19 175 -3 q 131 72 131 40 l 131 896 q 153 950 131 928 q 207 972 175 972 l 542 972 q 595 949 571 972 l 737 806 q 758 753 758 785 l 758 597 q 736 545 758 567 l 681 489 q 667 456 667 475 q 682 419 667 435 l 737 366 q 758 313 758 345 l 758 72 q 737 19 758 40 q 684 -3 715 -3 q 628 19 651 -3 q 606 72 606 40 l 606 267 q 597 290 606 282 l 519 368 q 496 378 510 378 m 519 541 l 597 616 q 606 642 606 625 l 606 708 q 597 733 606 725 l 519 810 q 496 819 510 819 l 329 819 q 296 806 309 819 q 283 772 283 792 l 283 578 q 296 544 283 557 q 329 530 309 530 l 496 530 q 519 541 509 530 m 366 1332 l 414 1283 q 444 1271 426 1271 q 472 1283 460 1271 l 521 1332 q 568 1353 542 1353 q 616 1333 596 1353 q 636 1284 636 1312 q 618 1238 636 1261 l 492 1112 q 444 1093 473 1093 q 396 1112 415 1093 l 271 1238 q 252 1284 252 1262 q 272 1332 252 1311 q 318 1353 292 1353 q 366 1332 347 1353 z "},"":{"ha":888,"x_min":131,"x_max":758,"o":"m 551 1225 l 441 1116 q 389 1093 419 1093 q 335 1115 357 1093 q 314 1168 314 1136 q 336 1219 314 1200 l 446 1331 q 498 1353 468 1353 q 552 1331 530 1353 q 574 1278 574 1310 q 551 1225 574 1247 m 606 721 l 606 737 q 597 760 606 751 l 547 810 q 525 819 538 819 l 366 819 q 343 810 353 819 l 293 760 q 283 737 283 750 l 283 644 q 293 621 283 630 l 343 570 q 366 559 355 559 l 568 559 q 621 539 600 559 l 737 419 q 758 368 758 398 l 758 189 q 737 138 758 159 l 621 24 q 568 0 600 0 l 322 0 q 269 24 288 0 l 153 138 q 131 189 131 159 l 131 250 q 153 300 131 280 q 207 319 174 319 q 261 300 239 319 q 283 250 283 280 l 283 235 q 293 211 283 220 l 343 163 q 366 153 353 153 l 525 153 q 547 163 537 153 l 597 211 q 606 235 606 219 l 606 322 q 597 347 606 337 l 547 397 q 525 407 536 407 l 322 407 q 269 428 288 407 l 153 547 q 131 600 131 571 l 131 782 q 153 835 131 813 l 269 949 q 322 972 288 972 l 568 972 q 621 949 600 972 l 737 835 q 758 782 758 814 l 758 721 q 737 668 758 689 q 684 647 715 647 q 628 668 651 647 q 606 721 606 689 z "},"":{"ha":888,"x_min":131,"x_max":758,"o":"m 606 721 l 606 737 q 597 760 606 751 l 547 810 q 525 819 538 819 l 366 819 q 343 810 353 819 l 293 760 q 283 737 283 750 l 283 644 q 293 621 283 630 l 343 570 q 366 559 355 559 l 568 559 q 621 539 600 559 l 737 419 q 758 368 758 398 l 758 189 q 737 138 758 159 l 621 24 q 568 0 600 0 l 322 0 q 269 24 288 0 l 153 138 q 131 189 131 159 l 131 250 q 153 300 131 280 q 207 319 174 319 q 261 300 239 319 q 283 250 283 280 l 283 235 q 293 211 283 220 l 343 163 q 366 153 353 153 l 525 153 q 547 163 537 153 l 597 211 q 606 235 606 219 l 606 322 q 597 347 606 337 l 547 397 q 525 407 536 407 l 322 407 q 269 428 288 407 l 153 547 q 131 600 131 571 l 131 782 q 153 835 131 813 l 269 949 q 322 972 288 972 l 568 972 q 621 949 600 972 l 737 835 q 758 782 758 814 l 758 721 q 737 668 758 689 q 684 647 715 647 q 628 668 651 647 q 606 721 606 689 m 551 1225 l 441 1116 q 389 1093 419 1093 q 335 1115 357 1093 q 314 1168 314 1136 q 336 1219 314 1200 l 446 1331 q 498 1353 468 1353 q 552 1331 530 1353 q 574 1278 574 1310 q 551 1225 574 1247 z "},"":{"ha":888,"x_min":131,"x_max":758,"o":"m 415 1161 l 366 1112 q 318 1093 353 1093 q 271 1113 290 1093 q 252 1160 252 1132 q 271 1208 252 1184 l 397 1332 q 444 1353 416 1353 q 492 1332 471 1353 l 616 1208 q 636 1160 636 1189 q 617 1112 636 1131 q 570 1093 599 1093 q 521 1112 540 1093 l 472 1161 q 444 1173 460 1173 q 415 1161 427 1173 m 606 721 l 606 737 q 597 760 606 751 l 547 810 q 525 819 538 819 l 366 819 q 343 810 353 819 l 293 760 q 283 737 283 750 l 283 644 q 293 621 283 630 l 343 570 q 366 559 355 559 l 568 559 q 621 539 600 559 l 737 419 q 758 368 758 398 l 758 189 q 737 138 758 159 l 621 24 q 568 0 600 0 l 322 0 q 269 24 288 0 l 153 138 q 131 189 131 159 l 131 250 q 153 300 131 280 q 207 319 174 319 q 261 300 239 319 q 283 250 283 280 l 283 235 q 293 211 283 220 l 343 163 q 366 153 353 153 l 525 153 q 547 163 537 153 l 597 211 q 606 235 606 219 l 606 322 q 597 347 606 337 l 547 397 q 525 407 536 407 l 322 407 q 269 428 288 407 l 153 547 q 131 600 131 571 l 131 782 q 153 835 131 813 l 269 949 q 322 972 288 972 l 568 972 q 621 949 600 972 l 737 835 q 758 782 758 814 l 758 721 q 737 668 758 689 q 684 647 715 647 q 628 668 651 647 q 606 721 606 689 z "},"":{"ha":888,"x_min":131,"x_max":758,"o":"m 606 721 l 606 737 q 597 760 606 751 l 547 810 q 525 819 538 819 l 366 819 q 343 810 353 819 l 293 760 q 283 737 283 750 l 283 644 q 293 621 283 630 l 343 570 q 366 559 355 559 l 568 559 q 621 539 600 559 l 737 419 q 758 368 758 398 l 758 189 q 737 138 758 159 l 621 24 q 568 0 600 0 l 322 0 q 269 24 288 0 l 153 138 q 131 189 131 159 l 131 250 q 153 300 131 280 q 207 319 174 319 q 261 300 239 319 q 283 250 283 280 l 283 235 q 293 211 283 220 l 343 163 q 366 153 353 153 l 525 153 q 547 163 537 153 l 597 211 q 606 235 606 219 l 606 322 q 597 347 606 337 l 547 397 q 525 407 536 407 l 322 407 q 269 428 288 407 l 153 547 q 131 600 131 571 l 131 782 q 153 835 131 813 l 269 949 q 322 972 288 972 l 568 972 q 621 949 600 972 l 737 835 q 758 782 758 814 l 758 721 q 737 668 758 689 q 684 647 715 647 q 628 668 651 647 q 606 721 606 689 m 415 1161 l 366 1112 q 318 1093 353 1093 q 271 1113 290 1093 q 252 1160 252 1132 q 271 1208 252 1184 l 397 1332 q 444 1353 416 1353 q 492 1332 471 1353 l 616 1208 q 636 1160 636 1189 q 617 1112 636 1131 q 570 1093 599 1093 q 521 1112 540 1093 l 472 1161 q 444 1173 460 1173 q 415 1161 427 1173 z "},"":{"ha":888,"x_min":131,"x_max":758,"o":"m 608 722 l 608 739 q 600 762 608 752 l 550 812 q 525 822 541 822 l 366 822 q 340 812 350 822 l 290 762 q 281 739 281 753 l 281 646 q 290 621 281 630 l 340 570 q 366 559 353 559 l 571 559 q 624 539 604 559 l 737 424 q 758 371 758 403 l 758 187 q 737 135 758 156 l 624 24 q 571 0 600 0 l 503 0 l 503 -8 q 513 -33 503 -16 l 596 -113 q 608 -150 608 -129 l 608 -232 q 595 -268 608 -254 l 522 -339 q 486 -354 507 -354 l 404 -354 q 368 -339 381 -354 l 330 -301 q 314 -261 314 -285 q 331 -221 314 -237 q 371 -204 347 -204 q 412 -221 395 -204 l 419 -229 q 446 -240 433 -240 q 471 -229 457 -240 l 484 -216 q 494 -192 494 -203 q 484 -165 494 -179 l 407 -89 q 387 -45 387 -72 l 387 0 l 319 0 q 267 24 285 0 l 153 135 q 131 187 131 157 l 131 250 q 152 302 131 282 q 205 322 173 322 q 259 302 238 322 q 281 250 281 282 l 281 233 q 290 210 281 219 l 340 160 q 366 150 351 150 l 525 150 q 550 160 540 150 l 600 210 q 608 233 608 220 l 608 325 q 600 350 608 340 l 550 401 q 525 411 538 411 l 319 411 q 267 432 286 411 l 153 547 q 131 600 131 571 l 131 785 q 153 838 131 816 l 267 949 q 319 972 285 972 l 571 972 q 624 949 600 972 l 737 838 q 758 785 758 817 l 758 722 q 738 669 758 690 q 685 648 717 648 q 630 669 652 648 q 608 722 608 690 z "},"":{"ha":888,"x_min":131,"x_max":758,"o":"m 608 722 l 608 739 q 600 762 608 752 l 550 812 q 525 822 541 822 l 366 822 q 340 812 350 822 l 290 762 q 281 739 281 753 l 281 646 q 290 621 281 630 l 340 570 q 366 559 353 559 l 571 559 q 624 539 604 559 l 737 424 q 758 371 758 403 l 758 187 q 737 135 758 156 l 624 24 q 571 0 600 0 l 503 0 l 503 -8 q 513 -33 503 -16 l 596 -113 q 608 -150 608 -129 l 608 -232 q 595 -268 608 -254 l 522 -339 q 486 -354 507 -354 l 404 -354 q 368 -339 381 -354 l 330 -301 q 314 -261 314 -285 q 331 -221 314 -237 q 371 -204 347 -204 q 412 -221 395 -204 l 419 -229 q 446 -240 433 -240 q 471 -229 457 -240 l 484 -216 q 494 -192 494 -203 q 484 -165 494 -179 l 407 -89 q 387 -45 387 -72 l 387 0 l 319 0 q 267 24 285 0 l 153 135 q 131 187 131 157 l 131 250 q 152 302 131 282 q 205 322 173 322 q 259 302 238 322 q 281 250 281 282 l 281 233 q 290 210 281 219 l 340 160 q 366 150 351 150 l 525 150 q 550 160 540 150 l 600 210 q 608 233 608 220 l 608 325 q 600 350 608 340 l 550 401 q 525 411 538 411 l 319 411 q 267 432 286 411 l 153 547 q 131 600 131 571 l 131 785 q 153 838 131 816 l 267 949 q 319 972 285 972 l 571 972 q 624 949 600 972 l 737 838 q 758 785 758 817 l 758 722 q 738 669 758 690 q 685 648 717 648 q 630 669 652 648 q 608 722 608 690 z "}}}
